<svg width="24" height="24" viewBox="0 0 24 24" fill="none" xmlns="http://www.w3.org/2000/svg">
<path d="M4 2H20C20.5523 2 21 2.44772 21 3V22.2763C21 22.5525 20.7761 22.7764 20.5 22.7764C20.4298 22.7764 20.3604 22.7615 20.2963 22.7329L12 19.0313L3.70373 22.7329C3.45155 22.8455 3.15591 22.7322 3.04339 22.4801C3.01478 22.4159 3 22.3465 3 22.2763V3C3 2.44772 3.44772 2 4 2ZM19 19.9645V4H5V19.9645L12 16.8412L19 19.9645Z" fill="#212836"/>
<path d="M11 7H13V15H11V7Z" fill="#212836"/>
<path d="M16 10V12H8V10L16 10Z" fill="#212836"/>
</svg>
