<svg width="15" height="16" viewBox="0 0 15 16" fill="none" xmlns="http://www.w3.org/2000/svg">
<path id="Vector" d="M1.6 1.6H9.6V4.8H12.8V14.4H1.6V1.6ZM0.7988 0C0.357992 0 0 0.35524 0 0.79344V15.2066C0 15.6358 0.355808 16 0.79472 16H13.6053C14.0441 16 14.4 15.6391 14.4 15.194L14.3998 4L10.4 0H0.7988ZM5.99992 4.4C5.99992 5.66199 5.63536 7.14984 5.01994 8.52272C4.4023 9.90056 3.56914 11.0802 2.70019 11.7753L3.64371 13.0657C5.98568 11.5043 8.57864 10.4337 11.0868 10.792L11.453 9.24104C9.3148 8.52832 7.59992 6.39195 7.59992 4.4H5.99992ZM6.47992 9.17728C6.69384 8.70016 6.88336 8.20504 7.04296 7.7028C7.42024 8.28248 7.88424 8.81456 8.40808 9.27624C7.62264 9.41688 6.8532 9.64768 6.10816 9.94208C6.23992 9.69144 6.36408 9.43584 6.47992 9.17728Z" fill="#8E3DC7"/>
</svg>
