<svg id="b2b43bb5-519b-4fef-9ff5-7fc661cc0e36" data-name="b0edddb7-5202-405d-8fca-2744e1915e81" xmlns="http://www.w3.org/2000/svg" width="656.02461" height="209.11284" viewBox="0 0 656.02461 209.11284"><path d="M282.52441,206.28284l-.43408-1.44336a.08959.08959,0,0,0-.09814-.06934h-3.66992a.08958.08958,0,0,0-.09815.06934l-.43408,1.44336a.24177.24177,0,0,1-.25244.18164h-1.27442c-.15429,0-.22412-.09766-.18213-.252l2.99756-9.3711a.2409.2409,0,0,1,.252-.18164h1.63916a.24088.24088,0,0,1,.252.18164l3.01172,9.3711c.042.1543-.02832.252-.18213.252h-1.2749A.2409.2409,0,0,1,282.52441,206.28284Zm-3.79589-2.78809h2.85742c.05615,0,.084-.02734.06982-.09766l-1.44238-4.76269c-.02832-.07031-.08447-.07031-.11231,0l-1.44287,4.76269c-.01419.07032.01416.09766.07029.09766Z" transform="translate(0.00091)" fill="#0067b9"/><path d="M291.89011,202.90686a5.4249,5.4249,0,0,1-.2378,1.709,2.68827,2.68827,0,0,1-2.70361,1.96094,2.04656,2.04656,0,0,1-1.59668-.68653c-.042-.05566-.09814-.042-.09814.02832v2.96973a.206.206,0,0,1-.22413.22363H285.853a.20594.20594,0,0,1-.22412-.22363v-9.35744a.206.206,0,0,1,.22412-.22363h1.17675a.206.206,0,0,1,.2241.18617.20924.20924,0,0,1,0,.03746v.36426c0,.07031.05615.09766.09814.02832a1.97,1.97,0,0,1,1.59668-.72851,2.72152,2.72152,0,0,1,2.68945,1.96093A5.68747,5.68747,0,0,1,291.89011,202.90686Zm-1.68067-.02832a3.25946,3.25946,0,0,0-.33642-1.59668,1.26632,1.26632,0,0,0-1.17627-.67187,1.21256,1.21256,0,0,0-1.09278.6582,3.31264,3.31264,0,0,0-.32226,1.625,3.2503,3.2503,0,0,0,.3501,1.667,1.18088,1.18088,0,0,0,1.05078.61621,1.28239,1.28239,0,0,0,1.1206-.58887,3.11294,3.11294,0,0,0,.40628-1.709Z" transform="translate(0.00091)" fill="#0067b9"/><path d="M299.66013,202.90686a5.42518,5.42518,0,0,1-.2378,1.709,2.68827,2.68827,0,0,1-2.70361,1.96094,2.04656,2.04656,0,0,1-1.59668-.68653c-.042-.05566-.09814-.042-.09814.02832v2.96973a.206.206,0,0,1-.22413.22363H293.623a.206.206,0,0,1-.22409-.18617.20831.20831,0,0,1,0-.03746v-9.35744a.206.206,0,0,1,.22413-.22363h1.17675a.20594.20594,0,0,1,.22412.22363v.36426c0,.07031.05616.09766.09815.02832a1.97,1.97,0,0,1,1.59668-.72851,2.72152,2.72152,0,0,1,2.68945,1.96093A5.6875,5.6875,0,0,1,299.66013,202.90686Zm-1.68067-.02832a3.25946,3.25946,0,0,0-.33642-1.59668,1.26632,1.26632,0,0,0-1.17627-.67187,1.21256,1.21256,0,0,0-1.09278.6582,3.31264,3.31264,0,0,0-.32226,1.625,3.25039,3.25039,0,0,0,.35009,1.667,1.18091,1.18091,0,0,0,1.05079.61621,1.28239,1.28239,0,0,0,1.1206-.58887,3.11294,3.11294,0,0,0,.40628-1.709Z" transform="translate(0.00091)" fill="#0067b9"/><path d="M301.11279,206.24084v-9.35742a.206.206,0,0,1,.18665-.22368.20842.20842,0,0,1,.03747,0h1.17676a.20594.20594,0,0,1,.22412.22363v9.35742a.206.206,0,0,1-.22412.22364h-1.17676a.20595.20595,0,0,1-.22412-.22364Z" transform="translate(0.00091)" fill="#0067b9"/><path d="M304.37451,197.38831a.99.99,0,0,1,.96912-1.01046q.04083-.00084.08166.00167a1.01584,1.01584,0,1,1,.04181,2.03125q-.02091.00043-.04181,0a.9937.9937,0,0,1-1.04959-.93441Q304.37318,197.4324,304.37451,197.38831Zm.23828,8.85252v-6.71a.206.206,0,0,1,.18665-.22368.20842.20842,0,0,1,.03747,0h1.17676a.20594.20594,0,0,1,.22412.22363v6.71a.20594.20594,0,0,1-.22412.22363h-1.17676a.20594.20594,0,0,1-.22412-.22362Z" transform="translate(0.00091)" fill="#0067b9"/><path d="M308.09863,204.53186a5.09666,5.09666,0,0,1-.22412-1.68066,5.03663,5.03663,0,0,1,.22412-1.65332,2.9385,2.9385,0,0,1,2.95557-2.00293,3.00213,3.00213,0,0,1,2.9834,1.91894,1.81245,1.81245,0,0,1,.08447.39258c.02783.15332-.042.22363-.18213.25195l-1.1626.18164a.1966.1966,0,0,1-.25244-.168l-.042-.18164a1.39311,1.39311,0,0,0-1.42871-.99511,1.36487,1.36487,0,0,0-1.40088,1.02246,4.48409,4.48409,0,0,0-.14014,1.24707,5.04186,5.04186,0,0,0,.12647,1.24707,1.48739,1.48739,0,0,0,2.82959.06933.24785.24785,0,0,0,.01367-.06933c.01416-.07031.126-.22461.26611-.19629l1.1626.18164a.19748.19748,0,0,1,.18213.252,2.33067,2.33067,0,0,1-.05615.28027,3.2074,3.2074,0,0,1-5.939-.09765Z" transform="translate(0.00091)" fill="#0067b9"/><path d="M321.20554,201.57581v4.665a.206.206,0,0,1-.22413.22363h-1.17626a.206.206,0,0,1-.2241-.18617.20924.20924,0,0,1,0-.03746v-.35059c0-.07031-.042-.084-.09814-.042a2.801,2.801,0,0,1-2.01709.72851,2.07813,2.07813,0,0,1-2.36719-2.11523c0-1.44239,1.0503-2.31153,2.91358-2.31153H319.497a.07409.07409,0,0,0,.084-.084v-.32226c0-.71387-.42041-1.14844-1.30273-1.14844-.67236,0-1.10693.25195-1.24658.6582-.042.14063-.11231.19629-.25244.18262l-1.26075-.1543c-.14013-.01367-.22412-.084-.21-.18164.168-1.10742,1.3169-1.90527,2.92774-1.90527C320.043,199.195,321.20554,200.20374,321.20554,201.57581Zm-1.62452,2.42381v-.64453a.07448.07448,0,0,0-.06356-.084.07373.07373,0,0,0-.02045,0h-1.1626c-.981,0-1.61133.37793-1.61133,1.07812,0,.61621.51856.93848,1.19092.93848.88236,0,1.667-.51755,1.667-1.28806Z" transform="translate(0.00091)" fill="#0067b9"/><path d="M326.27246,200.62366h-1.35889a.0745.0745,0,0,0-.084.06355.07373.07373,0,0,0,0,.02045v3.30566c0,.72852.3081,1.02246.9668,1.02246h.36377a.20632.20632,0,0,1,.22412.22461v.93848a.21711.21711,0,0,1-.22412.23828c-.22413,0-.44825.01369-.67237.01369-1.34472,0-2.19922-.33594-2.21289-1.82129v-3.92188a.08087.08087,0,0,0-.0776-.084h-.73493a.20633.20633,0,0,1-.22412-.22461v-.86816a.20595.20595,0,0,1,.22412-.22363h.72852a.0745.0745,0,0,0,.084-.06356.07365.07365,0,0,0,0-.02044v-1.56934a.20595.20595,0,0,1,.22412-.22363h1.10645a.20594.20594,0,0,1,.22412.22363v1.56934a.08087.08087,0,0,0,.07761.084h1.36529a.20594.20594,0,0,1,.22412.22363v.86816a.20631.20631,0,0,1-.22412.2246Z" transform="translate(0.00091)" fill="#0067b9"/><path d="M327.81,197.38831a.99.99,0,0,1,.96911-1.01046q.04084-.00084.08167.00167a1.01584,1.01584,0,0,1,.04181,2.03125c-.01395.00029-.02786.00029-.04181,0a.9937.9937,0,0,1-1.04959-.93441Q327.80867,197.4324,327.81,197.38831Zm.23828,8.85252v-6.71a.206.206,0,0,1,.18664-.22368.20853.20853,0,0,1,.03748,0h1.17676a.20594.20594,0,0,1,.22412.22363v6.71a.20595.20595,0,0,1-.22412.22363H328.2724a.206.206,0,0,1-.22409-.22362Z" transform="translate(0.00091)" fill="#0067b9"/><path d="M331.54831,204.46155a5.15831,5.15831,0,0,1-.23828-1.59668,5.48648,5.48648,0,0,1,.22412-1.59668,2.99351,2.99351,0,0,1,3.03955-2.07324,2.94827,2.94827,0,0,1,2.94189,2.05859,4.78125,4.78125,0,0,1,.252,1.59766,5.2967,5.2967,0,0,1-.23828,1.59668,3.16814,3.16814,0,0,1-5.981.01367Zm4.42627-.40625a3.8092,3.8092,0,0,0,.15381-1.17676,4.51671,4.51671,0,0,0-.13965-1.17676,1.45537,1.45537,0,0,0-1.457-1.10644,1.4396,1.4396,0,0,0-1.44287,1.10644,4.51514,4.51514,0,0,0-.14014,1.17676,4.667,4.667,0,0,0,.14014,1.17676,1.47269,1.47269,0,0,0,1.47119,1.12109A1.44363,1.44363,0,0,0,335.97458,204.0553Z" transform="translate(0.00091)" fill="#0067b9"/><path d="M345.24316,201.70178v4.53906a.206.206,0,0,1-.22412.22364h-1.17675a.20624.20624,0,0,1-.2241-.18666.20951.20951,0,0,1,0-.037V202.0387a1.34764,1.34764,0,1,0-2.68945-.01465v4.21679a.206.206,0,0,1-.22412.22364h-1.1763a.20595.20595,0,0,1-.22412-.22364v-6.71a.20594.20594,0,0,1,.22412-.22363h1.17627a.20594.20594,0,0,1,.22412.22363v.37793c0,.07031.042.09863.08447.042a2.048,2.048,0,0,1,1.72266-.75586,2.33853,2.33853,0,0,1,2.50735,2.50686Z" transform="translate(0.00091)" fill="#0067b9"/><path d="M349.874,206.24084v-9.35742a.206.206,0,0,1,.18665-.22368.20842.20842,0,0,1,.03747,0H353.46c2.01709,0,3.334,1.12012,3.334,2.87109v4.0625c0,1.751-1.3169,2.8711-3.334,2.8711h-3.36181a.20608.20608,0,0,1-.22419-.22364Zm1.709-1.17674h1.94726a1.58976,1.58976,0,0,0,1.63868-1.72265V199.7975a1.583,1.583,0,0,0-1.65284-1.7373H351.583a.0743.0743,0,0,0-.084.06311.07535.07535,0,0,0,0,.02089v6.83593a.07431.07431,0,0,0,.06317.084.07506.07506,0,0,0,.02085,0Z" transform="translate(0.00091)" fill="#0067b9"/><path d="M363.10641,204.43323a.197.197,0,0,1,.30811-.06934l.67236.53223a.20951.20951,0,0,1,.06971.288l-.01355.01961a3.08867,3.08867,0,0,1-2.71778,1.373,2.9029,2.9029,0,0,1-2.9414-1.98926,6.18824,6.18824,0,0,1-.126-3.22168,2.89932,2.89932,0,0,1,2.95557-2.17088c1.87695,0,2.78759,1.09277,3.06787,2.87109a9.52358,9.52358,0,0,1,.09765,1.14941.206.206,0,0,1-.22412.22364h-4.34228a.07448.07448,0,0,0-.084.084,1.87733,1.87733,0,0,0,.084.61621,1.58723,1.58723,0,0,0,1.667,1.06445A1.86083,1.86083,0,0,0,363.10641,204.43323Zm-3.15185-2.85742a2.21951,2.21951,0,0,0-.11182.58886c-.01416.05567.01416.084.06983.084H362.728a.07463.07463,0,0,0,.08441-.06337.07387.07387,0,0,0,.00006-.02063,3.1563,3.1563,0,0,0-.08447-.50488,1.381,1.381,0,0,0-1.42871-1.06445A1.29614,1.29614,0,0,0,359.95456,201.57581Z" transform="translate(0.00091)" fill="#0067b9"/><path d="M372.2915,202.90686a5.4242,5.4242,0,0,1-.23828,1.709,2.68827,2.68827,0,0,1-2.70361,1.96094,2.04656,2.04656,0,0,1-1.59668-.68653c-.042-.05566-.09814-.042-.09814.02832v2.96973a.206.206,0,0,1-.22413.22363h-1.17675a.20594.20594,0,0,1-.22412-.22363v-9.35744a.206.206,0,0,1,.22412-.22363h1.17675a.206.206,0,0,1,.22409.18617.20831.20831,0,0,1,0,.03746v.36426c0,.07031.05615.09766.09814.02832a1.97,1.97,0,0,1,1.59668-.72851,2.72211,2.72211,0,0,1,2.69,1.96093A5.6872,5.6872,0,0,1,372.2915,202.90686Zm-1.68115-.02832a3.25946,3.25946,0,0,0-.33642-1.59668,1.26632,1.26632,0,0,0-1.17627-.67187,1.21256,1.21256,0,0,0-1.09278.6582,3.31264,3.31264,0,0,0-.32226,1.625,3.25039,3.25039,0,0,0,.35009,1.667,1.18091,1.18091,0,0,0,1.05079.61621,1.28239,1.28239,0,0,0,1.1206-.58887A3.11293,3.11293,0,0,0,370.61035,202.87854Z" transform="translate(0.00091)" fill="#0067b9"/><path d="M378.46432,204.43323a.19738.19738,0,0,1,.3086-.06934l.67187.53223a.20927.20927,0,0,1,.07056.28741l-.01392.02021a3.08921,3.08921,0,0,1-2.71777,1.373,2.90251,2.90251,0,0,1-2.94141-1.98926,6.18834,6.18834,0,0,1-.126-3.22168,2.89835,2.89835,0,0,1,2.95508-2.17088c1.87695,0,2.78808,1.09277,3.06836,2.87109a9.52562,9.52562,0,0,1,.09765,1.14941.2062.2062,0,0,1-.22461.22364H375.271a.07409.07409,0,0,0-.084.084,1.8523,1.8523,0,0,0,.084.61621,1.58684,1.58684,0,0,0,1.667,1.06445A1.85914,1.85914,0,0,0,378.46432,204.43323Zm-3.15136-2.85742a2.1986,2.1986,0,0,0-.11231.58886c-.01367.05567.01367.084.07032.084h2.81543a.0745.0745,0,0,0,.084-.06355.07373.07373,0,0,0,0-.02045,3.16284,3.16284,0,0,0-.084-.50488,1.38136,1.38136,0,0,0-1.42872-1.06445,1.29541,1.29541,0,0,0-1.34469.98047Z" transform="translate(0.00091)" fill="#0067b9"/><path d="M387.25732,201.70178v4.53906a.2062.2062,0,0,1-.22461.22364H385.856a.20585.20585,0,0,1-.22364-.22364V202.0387a1.34764,1.34764,0,1,0-2.68945-.01465v4.21679a.2062.2062,0,0,1-.22461.22364h-1.17578a.20618.20618,0,0,1-.22461-.22364v-6.71a.20614.20614,0,0,1,.22461-.22363h1.17578a.20617.20617,0,0,1,.22461.22363v.37793c0,.07031.042.09863.084.042a2.04859,2.04859,0,0,1,1.72265-.75586,2.3389,2.3389,0,0,1,2.50778,2.50686Z" transform="translate(0.00091)" fill="#0067b9"/><path d="M393.50046,196.65979h1.17578a.20617.20617,0,0,1,.22461.22363v9.35742a.20619.20619,0,0,1-.22461.22364h-1.17578a.20619.20619,0,0,1-.22461-.22364v-.36424c0-.07031-.05567-.09863-.09766-.02832a1.97552,1.97552,0,0,1-1.59668.72852,2.72071,2.72071,0,0,1-2.68945-1.96094,5.6572,5.6572,0,0,1-.25293-1.751,5.42075,5.42075,0,0,1,.23828-1.709,2.687,2.687,0,0,1,2.7041-1.96093,2.04874,2.04874,0,0,1,1.59668.68652c.042.05566.09766.042.09766-.02832v-2.96973a.2061.2061,0,0,1,.22461-.2236Zm-.25293,6.21875a3.24593,3.24593,0,0,0-.34961-1.667,1.18141,1.18141,0,0,0-1.05078-.61621,1.2794,1.2794,0,0,0-1.12012.58887,3.10847,3.10847,0,0,0-.40625,1.709,3.25426,3.25426,0,0,0,.33594,1.59668,1.2693,1.2693,0,0,0,1.17676.67187,1.21541,1.21541,0,0,0,1.09277-.6582A3.31855,3.31855,0,0,0,393.24753,202.87854Z" transform="translate(0.00091)" fill="#0067b9"/><path d="M401.38232,204.43323a.19656.19656,0,0,1,.30762-.06934l.67285.53223a.20979.20979,0,0,1,.06885.2886l-.01318.019a3.088,3.088,0,0,1-2.71778,1.373,2.90333,2.90333,0,0,1-2.9414-1.98926,5.1421,5.1421,0,0,1-.28028-1.73631,5.0867,5.0867,0,0,1,.1543-1.48537,2.90025,2.90025,0,0,1,2.95606-2.17088c1.877,0,2.7871,1.09277,3.06738,2.87109a9.52358,9.52358,0,0,1,.09765,1.14941.20586.20586,0,0,1-.22363.22364H398.188a.07448.07448,0,0,0-.084.084,1.87759,1.87759,0,0,0,.084.61621,1.58762,1.58762,0,0,0,1.667,1.06445A1.86245,1.86245,0,0,0,401.38232,204.43323ZM398.23,201.57581a2.20036,2.20036,0,0,0-.11133.58886c-.01465.05567.01367.084.06934.084h2.81543a.07479.07479,0,0,0,.085-.084,3.14991,3.14991,0,0,0-.085-.50488,1.38062,1.38062,0,0,0-1.42871-1.06445A1.29686,1.29686,0,0,0,398.23,201.57581Z" transform="translate(0.00091)" fill="#0067b9"/><path d="M410.17429,201.70178v4.53906a.20585.20585,0,0,1-.22364.22364H408.7739a.20619.20619,0,0,1-.22461-.22364V202.0387a1.34765,1.34765,0,1,0-2.68946-.01465v4.21679a.20586.20586,0,0,1-.22363.22364h-1.17676a.20586.20586,0,0,1-.22363-.22364v-6.71a.20586.20586,0,0,1,.22363-.22363h1.17676a.20586.20586,0,0,1,.22363.22363v.37793c0,.07031.042.09863.084.042a2.05051,2.05051,0,0,1,1.72363-.75586,2.3382,2.3382,0,0,1,2.50681,2.50686Z" transform="translate(0.00091)" fill="#0067b9"/><path d="M415.42331,200.62366H414.064a.0745.0745,0,0,0-.084.06355.07373.07373,0,0,0,0,.02045v3.30566c0,.72852.30859,1.02246.9668,1.02246h.36426a.2061.2061,0,0,1,.22363.22461v.93848a.21678.21678,0,0,1-.22363.23828c-.22461,0-.44825.01369-.67286.01369-1.34472,0-2.19922-.33594-2.21289-1.82129v-3.92188a.08087.08087,0,0,0-.0776-.084h-.73493a.2061.2061,0,0,1-.22363-.22461v-.86816a.20586.20586,0,0,1,.22363-.22363h.72852a.0745.0745,0,0,0,.084-.06356.07365.07365,0,0,0,0-.02044v-1.56934a.20614.20614,0,0,1,.22461-.22363h1.10645a.20584.20584,0,0,1,.22363.22363v1.56934a.08087.08087,0,0,0,.07761.084h1.36578a.20586.20586,0,0,1,.22363.22363v.86816a.20615.20615,0,0,1-.22369.2246Z" transform="translate(0.00091)" fill="#0067b9"/><rect x="298.13457" y="8.92502" width="48.75897" height="30.45935" fill="#e0f0fc" stroke="#0067b9" stroke-width="1.4"/><path d="M346.19482,154.651l-.43359-1.44287a.09076.09076,0,0,0-.09863-.06982h-3.66992a.08917.08917,0,0,0-.09766.06982l-.43457,1.44287a.24127.24127,0,0,1-.25195.18213h-1.27442c-.15429,0-.22461-.09814-.18262-.252l2.998-9.37109a.24127.24127,0,0,1,.252-.18213h1.63868a.24127.24127,0,0,1,.252.18213l3.01172,9.37109c.042.15381-.02735.252-.18164.252h-1.27442A.243.243,0,0,1,346.19482,154.651Zm-3.79589-2.7876h2.85742c.05664,0,.085-.02783.07031-.09814l-1.44238-4.76221c-.02832-.07031-.084-.07031-.11231,0l-1.44238,4.76221c-.01465.07031.01367.09814.06931.09814Z" transform="translate(0.00091)"/><path d="M349.38425,154.609v-9.35693a.20628.20628,0,0,1,.22461-.22414h3.36132c2.01758,0,3.334,1.12061,3.334,2.8716v4.062c0,1.751-1.31641,2.87158-3.334,2.87158h-3.36132a.20621.20621,0,0,1-.22461-.22411Zm1.709-1.17675h1.94727a1.58923,1.58923,0,0,0,1.63867-1.72266v-3.54395a1.58256,1.58256,0,0,0-1.65332-1.73681h-1.93262a.07429.07429,0,0,0-.084.084v6.83545a.07431.07431,0,0,0,.084.084Z" transform="translate(0.00091)"/><path d="M357.78369,151.65344v-3.46a3.20792,3.20792,0,0,1,3.5166-3.27784c2.10059,0,3.501,1.26075,3.501,3.15186,0,.09814-.06934.1543-.21.168l-1.19043.07031c-.13965.01367-.22363-.02832-.22363-.07031v-.084a1.88494,1.88494,0,0,0-3.76856,0v3.57178a1.88536,1.88536,0,0,0,3.76856,0c0-.09766.084-.168.22363-.15381l1.17676.05615c.13965.01367.22363.02783.22363.06982v.06983c0,1.91943-1.40039,3.18017-3.501,3.18017a3.21843,3.21843,0,0,1-3.51657-3.292Z" transform="translate(0.00091)"/><path d="M369.33347,154.609v-9.35693a.20627.20627,0,0,1,.2246-.22414h3.36133c2.01758,0,3.334,1.12061,3.334,2.8716v4.062c0,1.751-1.31641,2.87158-3.334,2.87158h-3.36133a.20621.20621,0,0,1-.2246-.22411Zm1.709-1.17675h1.94727a1.58923,1.58923,0,0,0,1.63867-1.72266v-3.54395a1.58256,1.58256,0,0,0-1.65332-1.73681h-1.93262a.07429.07429,0,0,0-.084.084v6.83545a.07431.07431,0,0,0,.084.084Z" transform="translate(0.00091)"/><path d="M381.90771,147.74524a.23.23,0,0,1,.126.28027l-.22363,1.1626c-.02832.15381-.11231.18213-.2666.14014a1.64691,1.64691,0,0,0-.71387-.042,1.37568,1.37568,0,0,0-1.37353,1.37782l.00054.03675v3.9082a.206.206,0,0,1-.22363.22412h-1.17676a.20625.20625,0,0,1-.22461-.22412v-6.70947a.20622.20622,0,0,1,.22461-.22412H379.233a.206.206,0,0,1,.22363.22412v.54588c0,.07031.042.09814.084.02832a1.86445,1.86445,0,0,1,1.625-.88232A1.67871,1.67871,0,0,1,381.90771,147.74524Z" transform="translate(0.00091)"/><path d="M382.96921,145.756a.99021.99021,0,0,1,.97-1.01q.04038-.00082.08075.00167a1.01583,1.01583,0,1,1,.04083,2.03125q-.02041.00041-.04083,0a.99352.99352,0,0,1-1.04959-.93406Q382.96784,145.80049,382.96921,145.756Zm.23828,8.853v-6.70947a.20623.20623,0,0,1,.22461-.22412h1.17578a.2062.2062,0,0,1,.22461.22412V154.609a.20622.20622,0,0,1-.22461.22412H383.4321a.20621.20621,0,0,1-.22461-.22412Z" transform="translate(0.00091)"/><path d="M388.40283,154.651l-2.21289-6.72363c-.05664-.168.02735-.25195.18164-.25195H387.688a.24185.24185,0,0,1,.25293.18211l1.33008,4.65039c.02832.06982.084.06982.1123,0l1.33106-4.6367a.23933.23933,0,0,1,.252-.1958l1.31641.01367c.15429,0,.23828.09814.18261.25244l-2.19928,6.70947a.24165.24165,0,0,1-.25293.18213h-1.35839A.24127.24127,0,0,1,388.40283,154.651Z" transform="translate(0.00091)"/><path d="M398.07761,152.80188a.19762.19762,0,0,1,.30859-.06982l.67285.53222a.21032.21032,0,0,1,.06861.28945l-.01294.01866a3.08916,3.08916,0,0,1-2.71778,1.373,2.90334,2.90334,0,0,1-2.9414-1.98924,5.14481,5.14481,0,0,1-.28028-1.73682,5.08531,5.08531,0,0,1,.1543-1.48486,2.89978,2.89978,0,0,1,2.95508-2.17139c1.87793,0,2.78808,1.09277,3.06836,2.87158a9.50765,9.50765,0,0,1,.09765,1.14844.20635.20635,0,0,1-.22363.22461h-4.34277a.07429.07429,0,0,0-.084.06308.07556.07556,0,0,0,0,.02092,1.87729,1.87729,0,0,0,.084.61621,1.58762,1.58762,0,0,0,1.667,1.06445A1.8604,1.8604,0,0,0,398.07761,152.80188Zm-3.15137-2.85742a2.23434,2.23434,0,0,0-.11231.58838c-.01367.05615.01465.084.07032.084h2.81543a.0739.0739,0,0,0,.084-.084,3.04777,3.04777,0,0,0-.084-.5044A1.38013,1.38013,0,0,0,396.271,148.964,1.295,1.295,0,0,0,394.92624,149.94446Z" transform="translate(0.00091)"/><path d="M170.32372,160.25208v-3.39014a3.22424,3.22424,0,0,1,3.51611-3.31983,3.17208,3.17208,0,0,1,3.47256,2.84q.01278.1275.01523.25572v.05615a.20612.20612,0,0,1-.22412.22412h-1.1626c-.14013,0-.22412-.05615-.22412-.126v-.1123a1.72436,1.72436,0,0,0-1.705-1.74349q-.08607-.001-.17193.00667a1.77181,1.77181,0,0,0-1.89111,1.8628v3.50195a1.8215,1.8215,0,0,0,1.96093,1.86328,1.60459,1.60459,0,0,0,1.80713-1.65283v-.85449a.0741.0741,0,0,0-.084-.084H173.98a.20636.20636,0,0,1-.22414-.22412v-.92481a.20613.20613,0,0,1,.22414-.22412h3.12353a.20612.20612,0,0,1,.22412.22412v1.73682a3.17983,3.17983,0,0,1-3.48779,3.40381,3.23126,3.23126,0,0,1-3.51614-3.31929Z" transform="translate(0.00091)"/><path d="M184.53661,158.57092v4.66455a.20614.20614,0,0,1-.22414.22412h-1.17625a.20612.20612,0,0,1-.22414-.22412v-.35008c0-.07031-.042-.084-.09815-.042a2.80275,2.80275,0,0,1-2.01709.728,2.0778,2.0778,0,0,1-2.36718-2.11475c0-1.44288,1.05029-2.31152,2.91357-2.31152h1.48486a.07428.07428,0,0,0,.084-.06311.07311.07311,0,0,0,0-.02089v-.32226c0-.71436-.42041-1.14844-1.30273-1.14844-.67236,0-1.10693.252-1.24658.6582-.042.14014-.11231.19629-.25244.18213l-1.26076-.15381c-.14014-.01416-.22412-.08447-.21-.18213.168-1.10693,1.3169-1.90527,2.92774-1.90527C183.374,156.18958,184.53661,157.19836,184.53661,158.57092Zm-1.62453,2.42334v-.64453a.07449.07449,0,0,0-.084-.084h-1.1626c-.981,0-1.61133.37842-1.61133,1.07862,0,.61621.51856.93847,1.19092.93847.88236,0,1.667-.518,1.667-1.28856Z" transform="translate(0.00091)"/><path d="M186.01756,154.38293a.9903.9903,0,0,1,.96976-1.01042q.04053-.00084.081.00165a1.01584,1.01584,0,1,1,.04181,2.03125q-.0209.00044-.04181,0a.9934.9934,0,0,1-1.04957-.93384Q186.01618,154.4273,186.01756,154.38293Zm.23828,8.85254V156.526a.20614.20614,0,0,1,.22414-.22412h1.17674a.20612.20612,0,0,1,.22412.22412v6.70947a.20612.20612,0,0,1-.22412.22412H186.48a.20611.20611,0,0,1-.22416-.22412Z" transform="translate(0.00091)"/><path d="M195.65282,158.6969v4.53857a.20613.20613,0,0,1-.22412.22412h-1.17676a.20612.20612,0,0,1-.22412-.22412v-4.20213a1.34764,1.34764,0,1,0-2.68946-.01416v4.21629a.20612.20612,0,0,1-.22412.22412H189.938a.20613.20613,0,0,1-.22412-.22412V156.526a.20613.20613,0,0,1,.22412-.22412h1.17627a.20612.20612,0,0,1,.22412.22412v.37793c0,.07031.042.09815.084.042a2.04858,2.04858,0,0,1,1.72315-.75633,2.33894,2.33894,0,0,1,2.50728,2.50729Z" transform="translate(0.00091)"/><path d="M54.11864,156.568a2.80427,2.80427,0,0,1-3.05371,2.88526h-2.227a.08087.08087,0,0,0-.084.07762v3.70462a.20612.20612,0,0,1-.22412.22412H47.353a.20613.20613,0,0,1-.22412-.22412V153.8644a.20613.20613,0,0,1,.22412-.22413h3.7959a2.79041,2.79041,0,0,1,2.96974,2.92772Zm-1.625.042a1.48879,1.48879,0,0,0-1.58252-1.56885H48.83788a.08058.08058,0,0,0-.084.077v2.93473a.08059.08059,0,0,0,.077.084h2.08023A1.471,1.471,0,0,0,52.49364,156.61Z" transform="translate(0.00091)"/><path d="M59.46483,156.3717a.231.231,0,0,1,.126.28028l-.22412,1.1626c-.02783.15429-.1123.18211-.26611.14013a1.65064,1.65064,0,0,0-.71435-.042,1.376,1.376,0,0,0-1.37354,1.37847l.00053.03609v3.9082a.20612.20612,0,0,1-.22412.22412H55.61278a.20612.20612,0,0,1-.22412-.22412V156.526a.20612.20612,0,0,1,.22412-.22412h1.17627a.20613.20613,0,0,1,.22412.22412v.54639c0,.06982.042.09765.08447.02783a1.86363,1.86363,0,0,1,1.62451-.88232A1.6813,1.6813,0,0,1,59.46483,156.3717Z" transform="translate(0.00091)"/><path d="M60.55467,161.45667a5.16114,5.16114,0,0,1-.23828-1.59717,5.48856,5.48856,0,0,1,.22412-1.59668,2.99352,2.99352,0,0,1,3.03955-2.07324,2.94812,2.94812,0,0,1,2.9419,2.05908,4.77831,4.77831,0,0,1,.25195,1.59717,5.29428,5.29428,0,0,1-.23828,1.59666,3.16826,3.16826,0,0,1-5.981.01418Zm4.42627-.40625a3.81138,3.81138,0,0,0,.15381-1.17676,4.51059,4.51059,0,0,0-.13965-1.17676,1.45538,1.45538,0,0,0-1.457-1.10645,1.43963,1.43963,0,0,0-1.44287,1.10645,4.50907,4.50907,0,0,0-.14014,1.17676,4.67394,4.67394,0,0,0,.14014,1.17676,1.47229,1.47229,0,0,0,1.47119,1.1206A1.44317,1.44317,0,0,0,64.98094,161.05042Z" transform="translate(0.00091)"/><path d="M71.7285,157.61829H70.36961a.07429.07429,0,0,0-.084.084v3.30615c0,.728.3081,1.02246.9668,1.02246h.36377a.20613.20613,0,0,1,.22412.22412v.93848a.21665.21665,0,0,1-.22412.23828c-.22413,0-.44825.01367-.67237.01367-1.34472,0-2.19873-.33594-2.21289-1.8208v-3.92236a.08087.08087,0,0,0-.07761-.084H67.9184a.20613.20613,0,0,1-.22413-.22412V156.526a.20612.20612,0,0,1,.22413-.22412h.7286a.07449.07449,0,0,0,.084-.084V154.649a.20613.20613,0,0,1,.22412-.22412h1.10646a.20613.20613,0,0,1,.22412.22412v1.56885a.08058.08058,0,0,0,.077.084H71.7285a.20612.20612,0,0,1,.22412.22412v.86817a.20613.20613,0,0,1-.22412.22412Z" transform="translate(0.00091)"/><path d="M77.98729,161.42834a.19709.19709,0,0,1,.3081-.06982l.67237.53223a.21007.21007,0,0,1,.06947.28885l-.01332.01925a3.0891,3.0891,0,0,1-2.71728,1.37256,2.90276,2.90276,0,0,1-2.9419-1.98877,6.18876,6.18876,0,0,1-.126-3.22168,2.8992,2.8992,0,0,1,2.95557-2.17138c1.877,0,2.7876,1.09277,3.06787,2.87158a9.50743,9.50743,0,0,1,.09766,1.14892.206.206,0,0,1-.22413.22364H74.79344a.07445.07445,0,0,0-.084.08447,1.8649,1.8649,0,0,0,.084.61621,1.58723,1.58723,0,0,0,1.667,1.06445A1.862,1.862,0,0,0,77.98729,161.42834Zm-3.15186-2.85742a2.19556,2.19556,0,0,0-.11181.58838c-.01416.05615.01367.084.06981.084h2.81543a.07445.07445,0,0,0,.08448-.084,3.09368,3.09368,0,0,0-.08448-.50439,1.3805,1.3805,0,0,0-1.42871-1.06446A1.29567,1.29567,0,0,0,74.83543,158.57092Z" transform="translate(0.00091)"/><path d="M80.86864,161.52649a5.09291,5.09291,0,0,1-.22412-1.68066,5.03648,5.03648,0,0,1,.22412-1.65334,2.93848,2.93848,0,0,1,2.95556-2.00291,3.00272,3.00272,0,0,1,2.98339,1.91894,1.8176,1.8176,0,0,1,.08448.39258c.02784.15381-.042.22412-.18212.25195l-1.1626.18213a.19688.19688,0,0,1-.25244-.168l-.042-.18213a1.39327,1.39327,0,0,0-1.42871-.99463,1.36488,1.36488,0,0,0-1.40088,1.02248,4.47721,4.47721,0,0,0-.14013,1.24658,5.03985,5.03985,0,0,0,.12646,1.24707,1.48751,1.48751,0,0,0,2.82958.06983.24964.24964,0,0,0,.01368-.06983c.01416-.07031.126-.22461.26612-.19629l1.1626.18213a.19715.19715,0,0,1,.18212.252,2.3468,2.3468,0,0,1-.05616.28027,3.20756,3.20756,0,0,1-5.939-.09815Z" transform="translate(0.00091)"/><path d="M91.84666,157.61829H90.48778a.0743.0743,0,0,0-.084.084v3.30615c0,.728.30811,1.02246.96679,1.02246h.36377a.20613.20613,0,0,1,.22413.22412v.93848a.21665.21665,0,0,1-.19373.23735.21886.21886,0,0,1-.0304.00093c-.22412,0-.44824.01367-.67236.01367-1.34473,0-2.19873-.33594-2.21289-1.8208v-3.92236a.08087.08087,0,0,0-.07761-.084h-.7349a.20613.20613,0,0,1-.22413-.22412V156.526a.20613.20613,0,0,1,.22413-.22412h.72851a.07449.07449,0,0,0,.084-.084V154.649a.20612.20612,0,0,1,.22412-.22412h1.10644a.20612.20612,0,0,1,.22412.22412v1.56885a.08059.08059,0,0,0,.077.084h1.36585a.20613.20613,0,0,1,.22413.22412v.86817a.20614.20614,0,0,1-.22412.22412Z" transform="translate(0.00091)"/><path d="M93.38426,154.38293a.9903.9903,0,0,1,.96976-1.01042q.04051-.00084.081.00165a1.01584,1.01584,0,1,1,.0418,2.03125q-.0209.00044-.0418,0a.99337.99337,0,0,1-1.04956-.93384Q93.38289,154.4273,93.38426,154.38293Zm.23828,8.85254V156.526a.20613.20613,0,0,1,.22412-.22412h1.17676a.20612.20612,0,0,1,.22412.22412v6.70947a.20612.20612,0,0,1-.22412.22412H93.84666a.20613.20613,0,0,1-.22412-.22412Z" transform="translate(0.00091)"/><path d="M97.12254,161.45667a5.16143,5.16143,0,0,1-.23828-1.59717,5.4889,5.4889,0,0,1,.22412-1.59668,2.99353,2.99353,0,0,1,3.03955-2.07324,2.94814,2.94814,0,0,1,2.94191,2.05908,4.77856,4.77856,0,0,1,.252,1.59717,5.29428,5.29428,0,0,1-.23828,1.59666,3.16826,3.16826,0,0,1-5.981.01418Zm4.42627-.40625a3.811,3.811,0,0,0,.1543-1.17676,4.50822,4.50822,0,0,0-.14014-1.17676,1.45538,1.45538,0,0,0-1.457-1.10645,1.43963,1.43963,0,0,0-1.44287,1.10645,4.50907,4.50907,0,0,0-.14014,1.17676,4.67394,4.67394,0,0,0,.14014,1.17676,1.47213,1.47213,0,0,0,1.4707,1.1206A1.44332,1.44332,0,0,0,101.54881,161.05042Z" transform="translate(0.00091)"/><path d="M110.81737,158.6969v4.53857a.20613.20613,0,0,1-.22412.22412h-1.17676a.20612.20612,0,0,1-.22412-.22412v-4.20213a1.34764,1.34764,0,1,0-2.68946-.01416v4.21629a.20612.20612,0,0,1-.22412.22412h-1.17627a.20613.20613,0,0,1-.22412-.22412V156.526a.20612.20612,0,0,1,.22412-.22412h1.17627a.20612.20612,0,0,1,.22412.22412v.37793c0,.07031.042.09815.084.042a2.04853,2.04853,0,0,1,1.72313-.75633,2.33892,2.33892,0,0,1,2.50733,2.50729Z" transform="translate(0.00091)"/><path d="M268.63474,139.7677h-4.69239a.07412.07412,0,0,0-.084.06267.0733.0733,0,0,0,0,.02133V142.443a.08058.08058,0,0,0,.077.084h3.14469a.20612.20612,0,0,1,.22412.22412v.95264a.20612.20612,0,0,1-.22412.22412h-3.1377a.08058.08058,0,0,0-.084.077v3.943a.20612.20612,0,0,1-.22412.22412h-1.17673a.20613.20613,0,0,1-.22412-.22412v-9.35694a.20612.20612,0,0,1,.22412-.22412h6.17725a.20613.20613,0,0,1,.22412.22412v.95215a.20654.20654,0,0,1-.22412.22461Z" transform="translate(0.00091)"/><path d="M269.835,139.09485a.99022.99022,0,0,1,.97-1.01q.04038-.00081.08075.00167a1.01584,1.01584,0,0,1,.04181,2.03125q-.02091.00044-.04181,0a.99352.99352,0,0,1-1.04959-.934Q269.83362,139.13934,269.835,139.09485Zm.23828,8.853V141.2384a.20612.20612,0,0,1,.22412-.22412h1.17676a.20613.20613,0,0,1,.22412.22412v6.70948a.20612.20612,0,0,1-.22412.22412h-1.17676a.20611.20611,0,0,1-.22415-.22412Z" transform="translate(0.00091)"/><path d="M273.54492,147.94788v-9.35694a.20612.20612,0,0,1,.22412-.22412h1.17676a.20613.20613,0,0,1,.22412.22412v9.35694a.20612.20612,0,0,1-.22412.22412H273.769a.20614.20614,0,0,1-.22409-.22412Z" transform="translate(0.00091)"/><path d="M280.50488,142.33069H279.146a.07448.07448,0,0,0-.084.084v3.30617c0,.728.30811,1.02246.9668,1.02246h.36377a.20612.20612,0,0,1,.22412.22412v.93847a.21664.21664,0,0,1-.22412.2383c-.22412,0-.44824.01367-.67237.01367-1.34472,0-2.19921-.33593-2.21289-1.8208v-3.92236a.08087.08087,0,0,0-.0776-.084h-.73493a.20613.20613,0,0,1-.22412-.22412v-.86817a.20612.20612,0,0,1,.22412-.22412h.72852a.07449.07449,0,0,0,.084-.06355.07373.07373,0,0,0,0-.02045v-1.56884a.20613.20613,0,0,1,.22412-.22413h1.10645a.20614.20614,0,0,1,.22412.22413v1.56884a.08087.08087,0,0,0,.07761.084h1.36529a.20613.20613,0,0,1,.22412.22412v.86817a.20614.20614,0,0,1-.22412.22409Z" transform="translate(0.00091)"/><path d="M286.76367,146.14075a.19711.19711,0,0,1,.30811-.06983l.67236.53223a.21008.21008,0,0,1,.06949.28885l-.01334.01925a3.08976,3.08976,0,0,1-2.71777,1.37305,2.90289,2.90289,0,0,1-2.94141-1.98926,6.18834,6.18834,0,0,1-.126-3.22168,2.8992,2.8992,0,0,1,2.95556-2.17138c1.877,0,2.7876,1.09277,3.06787,2.87158a9.51392,9.51392,0,0,1,.09766,1.14844.20655.20655,0,0,1-.22412.22461h-4.34229a.07429.07429,0,0,0-.084.084,1.87758,1.87758,0,0,0,.084.61621,1.58725,1.58725,0,0,0,1.667,1.06445A1.86208,1.86208,0,0,0,286.76367,146.14075Zm-3.15185-2.85742a2.21589,2.21589,0,0,0-.11182.58836c-.01416.05617.01416.084.06982.084h2.81543a.07446.07446,0,0,0,.08442-.06293.07549.07549,0,0,0,.00006-.02107,3.15012,3.15012,0,0,0-.08448-.5044,1.38047,1.38047,0,0,0-1.42871-1.06445,1.29567,1.29567,0,0,0-1.34475.98049Z" transform="translate(0.00091)"/><path d="M293.69333,141.08411a.231.231,0,0,1,.126.28027l-.22413,1.1626c-.02832.15381-.1123.18213-.26611.14013a1.65019,1.65019,0,0,0-.71435-.042,1.376,1.376,0,0,0-1.3736,1.37841l.00055.03614v3.9082a.20612.20612,0,0,1-.22412.22412h-1.17627a.20613.20613,0,0,1-.22412-.22412V141.2384a.20612.20612,0,0,1,.22412-.22412h1.17627a.20613.20613,0,0,1,.22412.22412v.5459c0,.07031.042.09815.084.02832a1.86448,1.86448,0,0,1,1.625-.88232A1.681,1.681,0,0,1,293.69333,141.08411Z" transform="translate(0.00091)"/><path d="M316.43945,28.28381l-1.835-4.00634a.09315.09315,0,0,0-.09765-.05616h-1.63916a.08088.08088,0,0,0-.084.0776v3.92876a.20612.20612,0,0,1-.22412.22412h-1.1767a.20612.20612,0,0,1-.22412-.22412v-9.3711a.20612.20612,0,0,1,.22412-.22412h3.7959a2.72413,2.72413,0,0,1,2.8999,2.85742,2.53172,2.53172,0,0,1-1.86328,2.57763.07053.07053,0,0,0-.042.11182l1.93311,4.00635c.07031.15381,0,.26611-.168.26611h-1.23291A.25645.25645,0,0,1,316.43945,28.28381Zm-3.65576-8.1665v2.75928a.07411.07411,0,0,0,.084.084h2.0874a1.39725,1.39725,0,0,0,1.49853-1.44238,1.415,1.415,0,0,0-1.49853-1.48486h-2.0874a.07412.07412,0,0,0-.084.06264A.07323.07323,0,0,0,312.78369,20.11731Z" transform="translate(0.00091)"/><path d="M326.15622,20.04749h-4.70654a.0741.0741,0,0,0-.084.084V22.7228a.08057.08057,0,0,0,.077.084h3.1452a.20605.20605,0,0,1,.22363.22412v.95264a.206.206,0,0,1-.22363.22412h-3.13818a.08058.08058,0,0,0-.084.077V26.967a.08057.08057,0,0,0,.077.084h4.71356a.20668.20668,0,0,1,.22461.22412v.95264a.20671.20671,0,0,1-.22461.22412h-6.19141a.20612.20612,0,0,1-.22412-.22412v-9.357a.20612.20612,0,0,1,.22412-.22412h6.19141a.20667.20667,0,0,1,.22461.22412v.95215a.2071.2071,0,0,1-.22461.22461Z" transform="translate(0.00091)"/><path d="M334.42966,20.04749h-4.69239a.07429.07429,0,0,0-.084.084V22.7228a.08087.08087,0,0,0,.07764.084h3.1441a.20668.20668,0,0,1,.22461.22412v.95264a.20671.20671,0,0,1-.22461.22412h-3.1377a.08057.08057,0,0,0-.084.077v3.943a.20627.20627,0,0,1-.22461.22412H328.2529a.20621.20621,0,0,1-.22461-.22412v-9.357a.20628.20628,0,0,1,.22461-.22412h6.17676a.2062.2062,0,0,1,.22461.22412v.95215a.20664.20664,0,0,1-.22461.22461Z" transform="translate(0.00091)"/><path d="M549.87744,145.22424v-9.35693a.20622.20622,0,0,1,.22461-.22412h1.17578a.20623.20623,0,0,1,.22455.18619.20194.20194,0,0,1,.00006.03793v9.35693a.20621.20621,0,0,1-.22461.22412H550.102a.20624.20624,0,0,1-.22449-.18623A.20152.20152,0,0,1,549.87744,145.22424Z" transform="translate(0.00091)"/><path d="M553.12549,143.54309v-.06982a.206.206,0,0,1,.22363-.22412h1.12109c.13965,0,.22364.042.22364.09814v.09814c0,.46192.54687.86817,1.35937.86817.75586,0,1.26074-.3501,1.26074-.8125,0-.58789-.82714-.686-1.751-.99414-1.1211-.33643-2.36719-.78467-2.36719-2.15723,0-1.33105,1.13379-2.14306,2.78711-2.14306,1.72266,0,2.85742.88232,2.85742,2.1289,0,.09815-.084.168-.22363.168h-1.0791c-.13965,0-.22364-.02783-.22364-.084v-.084c0-.4624-.49023-.85449-1.33105-.85449-.71484,0-1.23242.26611-1.23242.77051,0,.57422.78418.71435,1.72265.98047,1.16211.33642,2.46485.77049,2.46485,2.17138,0,1.34473-1.14844,2.12891-2.8711,2.12891C554.27393,145.53235,553.12549,144.67786,553.12549,143.54309Z" transform="translate(0.00091)"/><path d="M560.34912,143.44543a5.19049,5.19049,0,0,1-.2373-1.59715,5.50605,5.50605,0,0,1,.22363-1.59668,2.99338,2.99338,0,0,1,3.04-2.07326,2.94755,2.94755,0,0,1,2.9414,2.0591,4.77833,4.77833,0,0,1,.252,1.59715,5.29378,5.29378,0,0,1-.23828,1.59668,3.16835,3.16835,0,0,1-5.98145.01416Zm4.42676-.40625a3.79753,3.79753,0,0,0,.1543-1.17674,4.50808,4.50808,0,0,0-.14063-1.17676,1.4543,1.4543,0,0,0-1.45605-1.10644,1.43939,1.43939,0,0,0-1.44336,1.10644,4.51234,4.51234,0,0,0-.13965,1.17676,4.67624,4.67624,0,0,0,.13965,1.17674,1.47135,1.47135,0,0,0,1.4707,1.12061A1.44331,1.44331,0,0,0,564.77588,143.03918Z" transform="translate(0.00091)"/><path d="M568.11963,145.22424v-9.35693a.206.206,0,0,1,.22363-.22412H569.52a.20669.20669,0,0,1,.22455.18718.20168.20168,0,0,1,.00006.03694v9.35693a.20668.20668,0,0,1-.22461.22412h-1.17676a.2059.2059,0,0,1-.22363-.22412Z" transform="translate(0.00091)"/><path d="M577.20752,140.55969v4.66455a.206.206,0,0,1-.22363.22412h-1.17676a.20623.20623,0,0,1-.22455-.18618.202.202,0,0,1-.00006-.03794v-.35008c0-.07031-.042-.084-.09766-.042a2.80352,2.80352,0,0,1-2.01757.72852,2.0783,2.0783,0,0,1-2.36719-2.11524c0-1.44287,1.05078-2.31152,2.91406-2.31152h1.48438a.07391.07391,0,0,0,.084-.06222.07229.07229,0,0,0,0-.02178v-.32226c0-.71436-.41992-1.14844-1.30273-1.14844-.67188,0-1.10645.252-1.2461.6582-.042.14014-.1123.19629-.252.18213l-1.26074-.15381c-.14063-.01416-.22461-.084-.21-.18213.168-1.10693,1.31641-1.90527,2.92676-1.90527C576.04541,138.17834,577.20752,139.18713,577.20752,140.55969Zm-1.625,2.42334v-.64453a.0741.0741,0,0,0-.084-.084h-1.16211c-.98047,0-1.61133.3784-1.61133,1.07861,0,.61622.51855.93848,1.19043.93848.88281,0,1.667-.51805,1.667-1.28859Z" transform="translate(0.00091)"/><path d="M582.2749,139.60706h-1.3584a.07408.07408,0,0,0-.084.06269.07317.07317,0,0,0,0,.02131v3.30615c0,.728.30762,1.02246.96582,1.02246h.36426a.20623.20623,0,0,1,.22455.18619.20194.20194,0,0,1,.00006.03793v.93848a.217.217,0,0,1-.19446.23739.21983.21983,0,0,1-.03015.00089c-.22364,0-.44824.01367-.67188.01367-1.34472,0-2.19922-.33594-2.21386-1.8208V139.691a.08032.08032,0,0,0-.07642-.084h-.73608a.20591.20591,0,0,1-.22364-.22413v-.86817a.206.206,0,0,1,.22364-.22412h.72851a.0741.0741,0,0,0,.084-.084v-1.56884a.20626.20626,0,0,1,.2246-.22413h1.10645a.20623.20623,0,0,1,.22455.18616.20237.20237,0,0,1,.00006.038v1.56884a.08033.08033,0,0,0,.07642.084h1.366a.20607.20607,0,0,1,.2237.18666.20924.20924,0,0,1-.00006.03746v.86817a.206.206,0,0,1-.22364.2242Z" transform="translate(0.00091)"/><path d="M583.813,136.37122a.99019.99019,0,0,1,.97-1.01c.02692-.00055.05389,0,.08075.00167a1.01583,1.01583,0,0,1,.04083,2.03125q-.02041.00041-.04083,0a.99345.99345,0,0,1-1.04956-.93407Q583.81156,136.4157,583.813,136.37122Zm.23828,8.853v-6.70947a.20622.20622,0,0,1,.22461-.22412h1.17578a.20622.20622,0,0,1,.22455.18616.20226.20226,0,0,1,.00006.038v6.70947a.20622.20622,0,0,1-.22461.22412h-1.17578a.20623.20623,0,0,1-.22455-.18618.20173.20173,0,0,1-.00006-.03791Z" transform="translate(0.00091)"/><path d="M587.55029,143.44543a5.19079,5.19079,0,0,1-.2373-1.59715,5.50673,5.50673,0,0,1,.22363-1.59668,2.99336,2.99336,0,0,1,3.04-2.07326,2.94755,2.94755,0,0,1,2.94141,2.0591,4.78,4.78,0,0,1,.25195,1.59715,5.29378,5.29378,0,0,1-.23828,1.59668,3.16835,3.16835,0,0,1-5.98145.01416Zm4.42676-.40625a3.79723,3.79723,0,0,0,.1543-1.17674,4.50808,4.50808,0,0,0-.14063-1.17676,1.45429,1.45429,0,0,0-1.45605-1.10644,1.43939,1.43939,0,0,0-1.44336,1.10644,4.51277,4.51277,0,0,0-.13965,1.17676,4.6767,4.6767,0,0,0,.13965,1.17674,1.47136,1.47136,0,0,0,1.4707,1.12061,1.44336,1.44336,0,0,0,1.415-1.12061Z" transform="translate(0.00091)"/><path d="M601.24561,140.68567v4.53857a.206.206,0,0,1-.22364.22412h-1.17676a.20621.20621,0,0,1-.22454-.18615.20237.20237,0,0,1-.00006-.038v-4.20215a1.34764,1.34764,0,1,0-2.68946-.01416v4.21631a.206.206,0,0,1-.22363.22412h-1.17676a.20622.20622,0,0,1-.22455-.18615.20237.20237,0,0,1-.00006-.038v-6.70947a.20622.20622,0,0,1,.22461-.22412h1.17676a.2059.2059,0,0,1,.22363.22412v.37793c0,.07031.042.09814.084.042a2.04839,2.04839,0,0,1,1.72363-.75635,2.3384,2.3384,0,0,1,2.50684,2.50731Z" transform="translate(0.00091)"/><rect x="337.73653" y="71.78438" width="63.88412" height="63.88412" fill="#e0f0fc" stroke="#0067b9" stroke-miterlimit="10" stroke-width="1.4"/><rect x="548.3908" y="79.15511" width="54.12958" height="49.14266" fill="#e0f0fc" stroke="#0067b9" stroke-miterlimit="10" stroke-width="1.4"/><polygon points="352.252 80.951 352.252 126.502 392.494 103.623 352.252 80.951 352.252 80.951" fill="#f1f9fe" stroke="#0067b9" stroke-miterlimit="14.3" stroke-width="1.05"/><polygon points="428.846 103.726 453.575 79.155 514.06 79.155 514.06 128.298 453.575 128.298 428.846 103.726" fill="#e0f0fc" stroke="#0067b9" stroke-miterlimit="14.3" stroke-width="1.4" fill-rule="evenodd"/><path d="M398.39835,87.96475h0a3.22354,3.22354,0,1,1,3.22354,3.22354h-.0018A3.22292,3.22292,0,0,1,398.39835,87.96475Z" transform="translate(0.00091)" fill="#f1f9fe" stroke="#0067b9" stroke-miterlimit="14.3" stroke-width="1.05"/><path d="M334.51422,87.96475h0a3.22354,3.22354,0,1,1,3.22354,3.22354h-.0018A3.22293,3.22293,0,0,1,334.51422,87.96475Z" transform="translate(0.00091)" fill="#f1f9fe" stroke="#0067b9" stroke-miterlimit="14.3" stroke-width="1.05"/><path d="M398.39835,119.48814h0a3.22354,3.22354,0,1,1,3.22357,3.22351h-.00183A3.2229,3.2229,0,0,1,398.39835,119.48814Z" transform="translate(0.00091)" fill="#f1f9fe" stroke="#0067b9" stroke-miterlimit="14.3" stroke-width="1.05"/><path d="M334.51422,119.48814h0a3.22354,3.22354,0,1,1,3.22357,3.22351H337.736A3.22291,3.22291,0,0,1,334.51422,119.48814Z" transform="translate(0.00091)" fill="#f1f9fe" stroke="#0067b9" stroke-miterlimit="14.3" stroke-width="1.05"/><rect x="151.6509" y="71.78438" width="63.88412" height="63.88412" fill="#e0f0fc" stroke="#0067b9" stroke-miterlimit="10" stroke-width="1.4"/><polygon points="166.166 80.951 166.166 126.502 206.409 103.623 166.166 80.951 166.166 80.951" fill="#f1f9fe" stroke="#0067b9" stroke-miterlimit="14.3" stroke-width="1.05"/><path d="M212.31268,87.96475h0a3.22354,3.22354,0,1,1,3.22354,3.22354h-.00178A3.22293,3.22293,0,0,1,212.31268,87.96475Z" transform="translate(0.00091)" fill="#f1f9fe" stroke="#0067b9" stroke-miterlimit="14.3" stroke-width="1.05"/><path d="M148.42856,87.96475h0a3.22354,3.22354,0,1,1,3.22352,3.22354h-.00177A3.22292,3.22292,0,0,1,148.42856,87.96475Z" transform="translate(0.00091)" fill="#f1f9fe" stroke="#0067b9" stroke-miterlimit="14.3" stroke-width="1.05"/><path d="M212.31268,119.48814h0a3.22355,3.22355,0,1,1,3.22356,3.22351h-.0018A3.22293,3.22293,0,0,1,212.31268,119.48814Z" transform="translate(0.00091)" fill="#f1f9fe" stroke="#0067b9" stroke-miterlimit="14.3" stroke-width="1.05"/><path d="M148.42856,119.48814h0a3.22354,3.22354,0,1,1,3.22354,3.22351h-.00179A3.22292,3.22292,0,0,1,148.42856,119.48814Z" transform="translate(0.00091)" fill="#f1f9fe" stroke="#0067b9" stroke-miterlimit="14.3" stroke-width="1.05"/><line x1="405.41518" y1="87.96475" x2="444.70904" y2="87.96475" fill="none" stroke="#0067b9" stroke-miterlimit="14.3" stroke-width="1.05"/><polyline points="463.019 75.932 463.019 24.155 350.119 24.155" fill="none" stroke="#0067b9" stroke-miterlimit="14.3" stroke-width="1.05"/><line x1="405.41518" y1="119.48814" x2="444.09206" y2="119.48814" fill="none" stroke="#0067b9" stroke-miterlimit="14.3" stroke-width="1.05"/><polyline points="514.06 94.389 533.489 94.389 533.489 88.874 548.391 103.776 533.489 118.579 533.489 113.353 514.06 113.353" fill="none" stroke="#0067b9" stroke-miterlimit="14.3" stroke-width="1.05"/><polygon points="618.322 113.353 618.322 118.579 603.42 103.776 618.322 88.874 618.322 94.389 640.38 94.389 640.38 88.874 655.281 103.776 640.38 118.579 640.38 113.353 618.322 113.353" fill="none" stroke="#0067b9" stroke-miterlimit="14.3" stroke-width="1.05"/><path d="M440.86761,87.96475h0a3.22354,3.22354,0,1,1,3.22355,3.22354h-.0018A3.22294,3.22294,0,0,1,440.86761,87.96475Z" transform="translate(0.00091)" fill="#f1f9fe" stroke="#0067b9" stroke-miterlimit="14.3" stroke-width="1.05"/><path d="M459.79642,79.15511h0A3.22354,3.22354,0,1,1,463.02,82.37865h-.0018A3.22292,3.22292,0,0,1,459.79642,79.15511Z" transform="translate(0.00091)" fill="#f1f9fe" stroke="#0067b9" stroke-miterlimit="14.3" stroke-width="1.05"/><path d="M440.86761,119.48814h0a3.22355,3.22355,0,1,1,3.22358,3.22351h-.00183A3.22291,3.22291,0,0,1,440.86761,119.48814Z" transform="translate(0.00091)" fill="#f1f9fe" stroke="#0067b9" stroke-miterlimit="14.3" stroke-width="1.05"/><rect x="247.93502" y="79.15511" width="59.35654" height="49.14266" fill="#e0f0fc" stroke="#0067b9" stroke-width="1.4"/><polyline points="257.702 93.388 285.127 93.375 297.525 114.078" fill="none" stroke="#0067b9" stroke-linecap="square" stroke-miterlimit="10" stroke-width="1.05"/><path d="M304.06714,87.96475h0a3.22354,3.22354,0,1,1,3.22354,3.22354h-.0018A3.22292,3.22292,0,0,1,304.06714,87.96475Z" transform="translate(0.00091)" fill="#f1f9fe" stroke="#0067b9" stroke-miterlimit="14.3" stroke-width="1.05"/><path d="M304.06714,119.48814h0a3.22354,3.22354,0,1,1,3.22357,3.22351h-.00183A3.2229,3.2229,0,0,1,304.06714,119.48814Z" transform="translate(0.00091)" fill="#f1f9fe" stroke="#0067b9" stroke-miterlimit="14.3" stroke-width="1.05"/><path d="M244.71237,87.96475h0a3.22354,3.22354,0,1,1,3.22354,3.22354h-.00178A3.22293,3.22293,0,0,1,244.71237,87.96475Z" transform="translate(0.00091)" fill="#f1f9fe" stroke="#0067b9" stroke-miterlimit="14.3" stroke-width="1.05"/><path d="M244.71237,119.48814h0a3.22354,3.22354,0,1,1,3.22356,3.22351h-.0018A3.22293,3.22293,0,0,1,244.71237,119.48814Z" transform="translate(0.00091)" fill="#f1f9fe" stroke="#0067b9" stroke-miterlimit="14.3" stroke-width="1.05"/><line x1="334.51513" y1="87.96475" x2="310.51513" y2="87.96475" fill="none" stroke="#0067b9" stroke-miterlimit="14.3" stroke-width="1.05"/><line x1="334.51513" y1="119.48814" x2="310.51513" y2="119.48814" fill="none" stroke="#0067b9" stroke-miterlimit="14.3" stroke-width="1.05"/><line x1="244.71328" y1="87.96475" x2="218.76067" y2="87.96475" fill="none" stroke="#0067b9" stroke-miterlimit="14.3" stroke-width="1.05"/><line x1="244.71328" y1="119.48814" x2="218.76067" y2="119.48814" fill="none" stroke="#0067b9" stroke-miterlimit="14.3" stroke-width="1.05"/><line x1="148.42947" y1="87.96475" x2="110.8509" y2="87.96475" fill="none" stroke="#0067b9" stroke-miterlimit="14.3" stroke-width="1.05"/><line x1="148.42947" y1="119.48814" x2="110.8509" y2="119.48814" fill="none" stroke="#0067b9" stroke-miterlimit="14.3" stroke-width="1.05"/><line x1="43.86096" y1="87.96475" x2="12.67608" y2="87.96475" fill="none" stroke="#0067b9" stroke-miterlimit="14.3" stroke-width="1.05"/><line x1="43.86096" y1="119.48814" x2="12.67608" y2="119.48814" fill="none" stroke="#0067b9" stroke-miterlimit="14.3" stroke-width="1.05"/><line x1="573.979" y1="87.50936" x2="573.979" y2="119.94352" fill="none" stroke="#0067b9" stroke-miterlimit="14.3" stroke-width="1.05"/><line x1="576.932" y1="87.50936" x2="576.932" y2="119.94352" fill="none" stroke="#0067b9" stroke-miterlimit="14.3" stroke-width="1.05"/><path d="M559.5899,87.62611h6.58478c2.868.02932,5.19739,1.81559,5.2049,3.98648.0075,2.19639-2.37079,4.012-5.269,4.01877h.06408c2.868.02913,5.19739,1.81562,5.2049,3.98651.0075,2.19635-2.37079,4.012-5.269,4.01951h.06408c2.868.02914,5.19739,1.81466,5.2049,3.98555.0075,2.19635-2.37079,4.01195-5.269,4.01951h.06408c2.868.02933,5.19739,1.81563,5.2049,3.98574.0075,2.19616-2.37079,4.012-5.269,4.01951h-6.5207" transform="translate(0.00091)" fill="none" stroke="#0067b9" stroke-miterlimit="14.3" stroke-width="1.05"/><path d="M591.31946,119.772h-6.52069c-2.89838-.00752-5.27649-1.82319-5.269-4.01951.0075-2.16992,2.3349-3.95641,5.203-3.98555h.066c-2.89838-.00752-5.27649-1.82315-5.269-4.0195.0075-2.16993,2.3349-3.95642,5.203-3.98574h.066c-2.89838-.00756-5.27649-1.82316-5.269-4.01951.0075-2.17089,2.3349-3.95642,5.203-3.98555h.066c-2.89838-.00753-5.27649-1.82316-5.269-4.01951.0075-2.17089,2.3349-3.95738,5.203-3.98652h6.58673" transform="translate(0.00091)" fill="none" stroke="#0067b9" stroke-miterlimit="14.3" stroke-width="1.05"/><path d="M343.6709,24.1547h0a3.22354,3.22354,0,1,1,3.22354,3.22353h-.0018A3.22292,3.22292,0,0,1,343.6709,24.1547Z" transform="translate(0.00091)" fill="#f1f9fe" stroke="#0067b9" stroke-miterlimit="14.3" stroke-width="1.05"/><path d="M470.84521,107.84241l-.43359-1.44287a.09076.09076,0,0,0-.09863-.06984h-3.66992a.0892.0892,0,0,0-.09766.06984l-.43457,1.44287a.24129.24129,0,0,1-.252.18213h-1.27442c-.15429,0-.22461-.09816-.18261-.252l2.998-9.3711a.24129.24129,0,0,1,.252-.18213h1.63867a.243.243,0,0,1,.25293.18213l3.01074,9.3711c.042.15381-.02734.252-.18164.252h-1.27442A.24238.24238,0,0,1,470.84521,107.84241Zm-3.79589-2.7876h2.85742c.05664,0,.084-.02783.07031-.09814l-1.44238-4.7622c-.02832-.07032-.084-.07032-.11231,0l-1.44235,4.7622c-.01468.07033.01364.09814.06928.09814Z" transform="translate(0.00091)"/><path d="M474.03464,107.80042V98.44348a.20628.20628,0,0,1,.22461-.22412h3.36132c2.01758,0,3.334,1.12061,3.334,2.87158v4.062c0,1.751-1.31641,2.87159-3.334,2.87159h-3.36132a.20621.20621,0,0,1-.22461-.22411Zm1.709-1.17676h1.94727a1.58922,1.58922,0,0,0,1.63867-1.72265v-3.54394a1.58263,1.58263,0,0,0-1.65332-1.73682h-1.93262a.07429.07429,0,0,0-.084.084v6.83545a.07432.07432,0,0,0,.084.084Z" transform="translate(0.00091)"/><path d="M482.43408,104.84485v-3.46a3.20792,3.20792,0,0,1,3.5166-3.27783c2.10059,0,3.501,1.26074,3.501,3.15185,0,.09815-.06934.15429-.21.168l-1.19043.07032c-.13965.01367-.22363-.02832-.22363-.07032v-.084a1.88494,1.88494,0,0,0-3.76856,0v3.57177a1.88536,1.88536,0,0,0,3.76856,0c0-.09764.084-.168.22363-.1538l1.17676.05616c.13965.01367.22363.02783.22363.06981v.06983c0,1.91944-1.40039,3.18017-3.501,3.18017a3.21844,3.21844,0,0,1-3.51657-3.29195Z" transform="translate(0.00091)"/><line x1="173.23977" y1="130.65775" x2="190.3857" y2="83.35431" fill="none" stroke="#0067b9" stroke-miterlimit="10" stroke-width="1.05"/><polygon points="192.005 85.601 192.763 76.795 187.703 84.042 192.005 85.601" fill="#0067b9"/><rect x="46.96677" y="71.78438" width="63.88413" height="63.88412" fill="#e0f0fc" stroke="#0067b9" stroke-miterlimit="10" stroke-width="1.4"/><path d="M107.62856,87.96475h0a3.22353,3.22353,0,1,1,3.22353,3.22354h-.00178A3.22294,3.22294,0,0,1,107.62856,87.96475Z" transform="translate(0.00091)" fill="#f1f9fe" stroke="#0067b9" stroke-miterlimit="14.3" stroke-width="1.05"/><path d="M43.74442,87.96475h0A3.22354,3.22354,0,1,1,46.968,91.18829h-.00178A3.22294,3.22294,0,0,1,43.74442,87.96475Z" transform="translate(0.00091)" fill="#f1f9fe" stroke="#0067b9" stroke-miterlimit="14.3" stroke-width="1.05"/><path d="M107.62856,119.48814h0a3.22353,3.22353,0,1,1,3.22354,3.22351h-.00179A3.22292,3.22292,0,0,1,107.62856,119.48814Z" transform="translate(0.00091)" fill="#f1f9fe" stroke="#0067b9" stroke-miterlimit="14.3" stroke-width="1.05"/><path d="M43.74442,119.48814h0a3.22354,3.22354,0,1,1,3.22356,3.22351h-.0018A3.22293,3.22293,0,0,1,43.74442,119.48814Z" transform="translate(0.00091)" fill="#f1f9fe" stroke="#0067b9" stroke-miterlimit="14.3" stroke-width="1.05"/><rect x="260.7626" y="201.64124" width="4.19971" height="1.05078" fill="#0067b9"/><rect x="253.76261" y="201.64124" width="4.19972" height="1.05078" fill="#0067b9"/><rect x="267.7626" y="201.64124" width="4.19971" height="1.05078" fill="#0067b9"/><rect x="239.76261" y="201.64124" width="4.19971" height="1.05078" fill="#0067b9"/><rect x="246.76261" y="201.64124" width="4.19971" height="1.05078" fill="#0067b9"/><polygon points="354.768 45.684 354.768 47.259 353.194 47.259 353.194 48.309 355.818 48.309 355.818 45.684 354.769 45.684 354.768 45.684" fill="#0067b9"/><rect x="323.97521" y="47.25928" width="4.38275" height="1.04999" fill="#0067b9"/><rect x="309.36596" y="47.25928" width="4.38275" height="1.04999" fill="#0067b9"/><rect x="331.27984" y="47.25928" width="4.38281" height="1.04999" fill="#0067b9"/><rect x="316.67055" y="47.25928" width="4.38275" height="1.04999" fill="#0067b9"/><rect x="345.88909" y="47.25928" width="4.38281" height="1.04999" fill="#0067b9"/><rect x="338.58443" y="47.25928" width="4.38281" height="1.04999" fill="#0067b9"/><rect x="302.06127" y="47.25928" width="4.38281" height="1.04999" fill="#0067b9"/><rect x="294.75661" y="47.25928" width="4.38281" height="1.04999" fill="#0067b9"/><polygon points="290.26 45.684 289.21 45.684 289.21 48.309 291.834 48.309 291.834 47.259 290.26 47.259 290.26 45.684" fill="#0067b9"/><rect x="289.20977" y="5.31635" width="1.05005" height="4.0368" fill="#0067b9"/><rect x="289.20977" y="12.04437" width="1.05005" height="4.0368" fill="#0067b9"/><rect x="289.20977" y="18.7724" width="1.05005" height="4.0368" fill="#0067b9"/><rect x="289.20977" y="38.95642" width="1.05005" height="4.03687" fill="#0067b9"/><rect x="289.20977" y="25.50043" width="1.05005" height="4.0368" fill="#0067b9"/><rect x="289.20977" y="32.22839" width="1.05005" height="4.03687" fill="#0067b9"/><polygon points="289.21 2.625 290.26 2.625 290.26 1.05 291.834 1.05 291.834 0 289.21 0 289.21 2.625" fill="#0067b9"/><rect x="338.5841" width="4.38281" height="1.04999" fill="#0067b9"/><rect x="323.97481" width="4.38275" height="1.04999" fill="#0067b9"/><rect x="345.88869" width="4.38281" height="1.04999" fill="#0067b9"/><rect x="331.27947" width="4.38275" height="1.04999" fill="#0067b9"/><rect x="309.36553" width="4.38281" height="1.04999" fill="#0067b9"/><rect x="302.06087" width="4.38281" height="1.04999" fill="#0067b9"/><rect x="294.75628" width="4.38281" height="1.04999" fill="#0067b9"/><rect x="316.67022" width="4.38275" height="1.04999" fill="#0067b9"/><line x1="353.19378" y1="1.04999" x2="353.19378" y2="1.05005" fill="none"/><polygon points="353.194 0 353.194 1.05 354.768 1.05 354.768 2.625 355.818 2.625 355.818 0 353.194 0" fill="#0067b9"/><rect x="354.76833" y="18.77209" width="1.05005" height="4.0368" fill="#0067b9"/><rect x="354.76833" y="12.04407" width="1.05005" height="4.0368" fill="#0067b9"/><rect x="354.76833" y="25.50012" width="1.05005" height="4.03674" fill="#0067b9"/><rect x="354.76833" y="32.22809" width="1.05005" height="4.0368" fill="#0067b9"/><rect x="354.76833" y="5.31604" width="1.05005" height="4.0368" fill="#0067b9"/><rect x="354.76833" y="38.95612" width="1.05005" height="4.0368" fill="#0067b9"/><polygon points="223.41 141.968 223.41 143.543 221.835 143.543 221.835 144.594 224.46 144.593 224.46 141.968 223.41 141.968 223.41 141.968" fill="#0067b9"/><rect x="174.87101" y="143.54346" width="4.02545" height="1.04999" fill="#0067b9"/><rect x="161.45274" y="143.54346" width="4.02551" height="1.04999" fill="#0067b9"/><rect x="194.99839" y="143.54346" width="4.02551" height="1.04999" fill="#0067b9"/><rect x="148.03452" y="143.54346" width="4.02545" height="1.04999" fill="#0067b9"/><rect x="201.70756" y="143.54346" width="4.02545" height="1.04999" fill="#0067b9"/><rect x="215.12583" y="143.54346" width="4.02545" height="1.04999" fill="#0067b9"/><rect x="188.28928" y="143.54346" width="4.02545" height="1.04999" fill="#0067b9"/><rect x="154.74363" y="143.54346" width="4.02545" height="1.04999" fill="#0067b9"/><rect x="168.1619" y="143.54346" width="4.02545" height="1.04999" fill="#0067b9"/><rect x="208.41666" y="143.54346" width="4.02551" height="1.04999" fill="#0067b9"/><rect x="181.58012" y="143.54346" width="4.02551" height="1.04999" fill="#0067b9"/><polygon points="143.776 141.968 142.726 141.968 142.726 144.593 145.351 144.593 145.351 143.543 143.776 143.543 143.776 141.968" fill="#0067b9"/><rect x="142.72587" y="95.00446" width="1.05005" height="4.02551" fill="#0067b9"/><rect x="142.72587" y="88.29535" width="1.05005" height="4.02551" fill="#0067b9"/><rect x="142.72587" y="81.58624" width="1.05005" height="4.02545" fill="#0067b9"/><rect x="142.72587" y="101.71362" width="1.05005" height="4.02545" fill="#0067b9"/><rect x="142.72587" y="108.42273" width="1.05005" height="4.02551" fill="#0067b9"/><rect x="142.72587" y="74.87708" width="1.05005" height="4.02551" fill="#0067b9"/><rect x="142.72587" y="68.16797" width="1.05005" height="4.02545" fill="#0067b9"/><rect x="142.72587" y="121.841" width="1.05005" height="4.02551" fill="#0067b9"/><rect x="142.72587" y="135.25928" width="1.05005" height="4.02551" fill="#0067b9"/><rect x="142.72587" y="115.1319" width="1.05005" height="4.02545" fill="#0067b9"/><rect x="142.72587" y="128.55017" width="1.05005" height="4.02545" fill="#0067b9"/><polygon points="142.726 65.484 143.776 65.484 143.776 63.909 145.351 63.909 145.351 62.859 142.726 62.859 142.726 65.484" fill="#0067b9"/><rect x="168.16196" y="62.85938" width="4.02551" height="1.04999" fill="#0067b9"/><rect x="174.87113" y="62.85938" width="4.02545" height="1.04999" fill="#0067b9"/><rect x="161.45286" y="62.85938" width="4.02545" height="1.04999" fill="#0067b9"/><rect x="188.28941" y="62.85938" width="4.02545" height="1.04999" fill="#0067b9"/><rect x="148.03458" y="62.85938" width="4.02545" height="1.04999" fill="#0067b9"/><rect x="181.58024" y="62.85938" width="4.02551" height="1.04999" fill="#0067b9"/><rect x="154.74369" y="62.85938" width="4.02551" height="1.04999" fill="#0067b9"/><rect x="201.70762" y="62.85938" width="4.02551" height="1.04999" fill="#0067b9"/><rect x="208.41679" y="62.85938" width="4.02545" height="1.04999" fill="#0067b9"/><rect x="215.12589" y="62.85938" width="4.02545" height="1.04999" fill="#0067b9"/><rect x="194.99851" y="62.85938" width="4.02545" height="1.04999" fill="#0067b9"/><line x1="221.83488" y1="63.90936" x2="221.83488" y2="63.90942" fill="none"/><polygon points="221.835 63.909 223.41 63.909 223.41 65.484 224.46 65.484 224.46 62.859 221.835 62.859 221.835 63.909" fill="#0067b9"/><rect x="223.40995" y="88.29547" width="1.05005" height="4.02545" fill="#0067b9"/><rect x="223.40995" y="74.8772" width="1.05005" height="4.02545" fill="#0067b9"/><rect x="223.40995" y="81.5863" width="1.05005" height="4.02551" fill="#0067b9"/><rect x="223.40995" y="121.84113" width="1.05005" height="4.02545" fill="#0067b9"/><rect x="223.40995" y="68.16809" width="1.05005" height="4.02545" fill="#0067b9"/><rect x="223.40995" y="108.42285" width="1.05005" height="4.02551" fill="#0067b9"/><rect x="223.40995" y="115.13196" width="1.05005" height="4.02551" fill="#0067b9"/><rect x="223.40995" y="95.00458" width="1.05005" height="4.02551" fill="#0067b9"/><rect x="223.40995" y="101.71375" width="1.05005" height="4.02545" fill="#0067b9"/><rect x="223.40995" y="128.55023" width="1.05005" height="4.02551" fill="#0067b9"/><rect x="223.40995" y="135.2594" width="1.05005" height="4.02545" fill="#0067b9"/><polygon points="118.726 143.543 117.151 143.543 117.151 144.594 119.776 144.593 119.776 141.968 118.726 141.968 118.726 143.543" fill="#0067b9"/><rect x="103.73257" y="143.54346" width="4.02551" height="1.04999" fill="#0067b9"/><rect x="110.44175" y="143.54346" width="4.02545" height="1.04999" fill="#0067b9"/><rect x="97.02348" y="143.54346" width="4.02545" height="1.04999" fill="#0067b9"/><rect x="56.76866" y="143.54346" width="4.02551" height="1.04999" fill="#0067b9"/><rect x="90.31431" y="143.54346" width="4.02551" height="1.04999" fill="#0067b9"/><rect x="70.18693" y="143.54346" width="4.02545" height="1.04999" fill="#0067b9"/><rect x="83.60519" y="143.54346" width="4.02545" height="1.04999" fill="#0067b9"/><rect x="50.05955" y="143.54346" width="4.02551" height="1.04999" fill="#0067b9"/><rect x="43.35044" y="143.54346" width="4.02545" height="1.04999" fill="#0067b9"/><rect x="76.89603" y="143.54346" width="4.02551" height="1.04999" fill="#0067b9"/><rect x="63.47782" y="143.54346" width="4.02545" height="1.04999" fill="#0067b9"/><polygon points="39.092 141.968 38.042 141.968 38.042 144.593 40.667 144.593 40.667 143.543 39.092 143.543 39.092 141.968" fill="#0067b9"/><rect x="38.04185" y="74.87708" width="1.04999" height="4.02551" fill="#0067b9"/><rect x="38.04185" y="68.16797" width="1.04999" height="4.02545" fill="#0067b9"/><rect x="38.04185" y="95.00446" width="1.04999" height="4.02551" fill="#0067b9"/><rect x="38.04185" y="81.58624" width="1.04999" height="4.02545" fill="#0067b9"/><rect x="38.04185" y="135.25928" width="1.04999" height="4.02551" fill="#0067b9"/><rect x="38.04185" y="121.841" width="1.04999" height="4.02551" fill="#0067b9"/><rect x="38.04185" y="128.55017" width="1.04999" height="4.02545" fill="#0067b9"/><rect x="38.04185" y="108.42273" width="1.04999" height="4.02551" fill="#0067b9"/><rect x="38.04185" y="115.1319" width="1.04999" height="4.02545" fill="#0067b9"/><rect x="38.04185" y="101.71362" width="1.04999" height="4.02545" fill="#0067b9"/><rect x="38.04185" y="88.29535" width="1.04999" height="4.02551" fill="#0067b9"/><polygon points="38.042 65.484 39.092 65.484 39.092 63.909 40.667 63.909 40.667 62.859 38.042 62.859 38.042 65.484" fill="#0067b9"/><rect x="63.47795" y="62.85938" width="4.02545" height="1.04999" fill="#0067b9"/><rect x="83.60533" y="62.85938" width="4.02545" height="1.04999" fill="#0067b9"/><rect x="97.02354" y="62.85938" width="4.02551" height="1.04999" fill="#0067b9"/><rect x="76.89616" y="62.85938" width="4.02551" height="1.04999" fill="#0067b9"/><rect x="70.18705" y="62.85938" width="4.02545" height="1.04999" fill="#0067b9"/><rect x="56.76878" y="62.85938" width="4.02551" height="1.04999" fill="#0067b9"/><rect x="90.31443" y="62.85938" width="4.02545" height="1.04999" fill="#0067b9"/><rect x="103.7327" y="62.85938" width="4.02545" height="1.04999" fill="#0067b9"/><rect x="110.44181" y="62.85938" width="4.02545" height="1.04999" fill="#0067b9"/><rect x="43.3505" y="62.85938" width="4.02551" height="1.04999" fill="#0067b9"/><rect x="50.05967" y="62.85938" width="4.02545" height="1.04999" fill="#0067b9"/><line x1="117.15079" y1="63.90936" x2="117.15079" y2="63.90942" fill="none"/><polygon points="117.151 63.909 118.726 63.909 118.726 65.484 119.776 65.484 119.776 62.859 117.151 62.859 117.151 63.909" fill="#0067b9"/><rect x="118.72587" y="88.29547" width="1.05005" height="4.02545" fill="#0067b9"/><rect x="118.72587" y="81.5863" width="1.05005" height="4.02551" fill="#0067b9"/><rect x="118.72587" y="95.00458" width="1.05005" height="4.02551" fill="#0067b9"/><rect x="118.72587" y="68.16809" width="1.05005" height="4.02545" fill="#0067b9"/><rect x="118.72587" y="74.8772" width="1.05005" height="4.02545" fill="#0067b9"/><rect x="118.72587" y="135.2594" width="1.05005" height="4.02545" fill="#0067b9"/><rect x="118.72587" y="128.55023" width="1.05005" height="4.02551" fill="#0067b9"/><rect x="118.72587" y="101.71375" width="1.05005" height="4.02545" fill="#0067b9"/><rect x="118.72587" y="121.84113" width="1.05005" height="4.02545" fill="#0067b9"/><rect x="118.72587" y="108.42285" width="1.05005" height="4.02551" fill="#0067b9"/><rect x="118.72587" y="115.13196" width="1.05005" height="4.02551" fill="#0067b9"/><path d="M12.67517,87.96475a5.98847,5.98847,0,1,1-6.09031-5.88487q.05173-.00089.10349-.00088A5.96494,5.96494,0,0,1,12.67517,87.96475Z" transform="translate(0.00091)" fill="#f1f9fe" stroke="#0067b9" stroke-width="1.4" fill-rule="evenodd"/><path d="M12.67517,119.48814a5.98847,5.98847,0,1,1-6.09032-5.88487q.05175-.00088.1035-.00088A5.96494,5.96494,0,0,1,12.67517,119.48814Z" transform="translate(0.00091)" fill="#f1f9fe" stroke="#0067b9" stroke-width="1.4" fill-rule="evenodd"/></svg>