<svg id="b39be151-8a2a-4fb2-8e5c-1e1d52421493" data-name="bb759d66-f2e3-43d1-9896-7e009c0fe968" xmlns="http://www.w3.org/2000/svg" width="581.89096" height="209.64455" viewBox="0 0 581.89096 209.64455"><path d="M272.70245,151.52844v-3.19433a3.5681,3.5681,0,0,1,7.12989,0v3.19433a3.567,3.567,0,0,1-7.12989,0Zm5.50489.05567v-3.26369a1.94094,1.94094,0,0,0-3.87989-.12451q-.002.06225,0,.12451v3.26369a1.94056,1.94056,0,0,0,3.87989.098Q278.20857,151.6331,278.20734,151.58411Z"/><path d="M285.93488,147.6759h1.1621a.20641.20641,0,0,1,.22461.22461v6.709a.2064.2064,0,0,1-.22461.22461h-1.1621a.20641.20641,0,0,1-.22461-.22461v-.36426c0-.06933-.05567-.09765-.09766-.02734a2.04209,2.04209,0,0,1-1.709.71387,2.30632,2.30632,0,0,1-2.50781-2.36719v-4.66408a.2064.2064,0,0,1,.22461-.22461h1.17676a.2061.2061,0,0,1,.22363.22461v4.20215a1.26966,1.26966,0,0,0,1.30274,1.44238,1.33109,1.33109,0,0,0,1.38672-1.44238v-4.20215a.20642.20642,0,0,1,.22464-.22461Z"/><path d="M292.62628,148.99231h-1.3584a.0741.0741,0,0,0-.084.084V152.383c0,.72754.30762,1.02248.96582,1.02248h.36426a.20622.20622,0,0,1,.22461.22363v.93848a.21652.21652,0,0,1-.22461.23829c-.22364,0-.44825.01367-.67188.01367-1.34473,0-2.19922-.33593-2.21387-1.82031v-3.92287a.0803.0803,0,0,0-.07641-.084h-.73612a.20584.20584,0,0,1-.22363-.22363v-.86816a.20606.20606,0,0,1,.22363-.22461h.72852a.0741.0741,0,0,0,.084-.084v-1.56836a.20641.20641,0,0,1,.22461-.22461h1.10645a.20686.20686,0,0,1,.22461.18744.2042.2042,0,0,1,0,.03717v1.56836a.08029.08029,0,0,0,.07641.084h1.366a.206.206,0,0,1,.22363.22461v.86816a.20586.20586,0,0,1-.22363.22362Z"/><path d="M300.62238,151.27551a5.421,5.421,0,0,1-.23829,1.709,2.68744,2.68744,0,0,1-2.70312,1.96192,2.05263,2.05263,0,0,1-1.59766-.68653c-.042-.05664-.09765-.042-.09765.02735V157.257a.20641.20641,0,0,1-.22461.22461h-1.17578a.20641.20641,0,0,1-.22461-.22461v-9.35644a.2064.2064,0,0,1,.22461-.22461h1.17578a.20641.20641,0,0,1,.22461.22461v.36426c0,.06933.05566.09765.09765.02734a1.97614,1.97614,0,0,1,1.59766-.72852,2.72238,2.72238,0,0,1,2.68945,1.96094A5.69181,5.69181,0,0,1,300.62238,151.27551Zm-1.68165-.02734a3.25169,3.25169,0,0,0-.33593-1.59668,1.26838,1.26838,0,0,0-1.17676-.67285,1.21543,1.21543,0,0,0-1.09277.6582,3.32384,3.32384,0,0,0-.32129,1.625,3.24332,3.24332,0,0,0,.34961,1.667,1.17952,1.17952,0,0,0,1.05078.61621,1.28074,1.28074,0,0,0,1.12011-.58789A3.10847,3.10847,0,0,0,298.94073,151.24817Z"/><path d="M306.515,147.6759h1.16211a.20641.20641,0,0,1,.22461.22461v6.709a.2064.2064,0,0,1-.22461.22461H306.515a.20641.20641,0,0,1-.2246-.22461v-.36426c0-.06933-.05567-.09765-.09766-.02734a2.04214,2.04214,0,0,1-1.709.71387,2.30632,2.30632,0,0,1-2.50781-2.36719v-4.66408a.2064.2064,0,0,1,.22461-.22461h1.17676a.2061.2061,0,0,1,.22363.22461v4.20215a1.26966,1.26966,0,0,0,1.30274,1.44238,1.331,1.331,0,0,0,1.38671-1.44238v-4.20215a.20642.20642,0,0,1,.22464-.22461Z"/><path d="M313.20636,148.99231H311.848a.0741.0741,0,0,0-.084.084V152.383c0,.72754.30761,1.02248.96582,1.02248h.36426a.20615.20615,0,0,1,.2246.22363v.93848a.21649.21649,0,0,1-.2246.23829c-.22364,0-.44825.01367-.67188.01367-1.34473,0-2.19922-.33593-2.21387-1.82031v-3.92287a.0803.0803,0,0,0-.07641-.084h-.73612a.20584.20584,0,0,1-.22363-.22363v-.86816a.20606.20606,0,0,1,.22363-.22461h.72852a.0741.0741,0,0,0,.084-.084v-1.56836a.2064.2064,0,0,1,.22461-.22461h1.10645a.20686.20686,0,0,1,.22461.18744.2042.2042,0,0,1,0,.03717v1.56836a.08029.08029,0,0,0,.07641.084h1.366a.20609.20609,0,0,1,.22363.22461v.86816a.20587.20587,0,0,1-.22366.22362Z"/><path d="M317.82355,154.6095v-9.35645a.2064.2064,0,0,1,.22461-.22461h3.36132c2.01758,0,3.334,1.1211,3.334,2.87207v4.0615c0,1.751-1.31641,2.87207-3.334,2.87207h-3.36132a.20641.20641,0,0,1-.22461-.18645A.20407.20407,0,0,1,317.82355,154.6095Zm1.709-1.17676h1.94727a1.58885,1.58885,0,0,0,1.63867-1.72266v-3.54394a1.5824,1.5824,0,0,0-1.65332-1.73633h-1.93262a.0741.0741,0,0,0-.084.084v6.835a.07409.07409,0,0,0,.084.08392Z"/><path d="M330.39777,147.74622a.22978.22978,0,0,1,.126.28027l-.22363,1.16211c-.02832.1543-.1123.18262-.2666.14062a1.63941,1.63941,0,0,0-.71387-.042,1.37524,1.37524,0,0,0-1.37353,1.377l.00055.0371v3.9082a.20612.20612,0,0,1-.22364.22461H326.5462a.20641.20641,0,0,1-.22461-.22461v-6.709a.20641.20641,0,0,1,.22461-.22461H327.723a.206.206,0,0,1,.22363.22461v.5459c0,.07031.042.09766.084.02832a1.86381,1.86381,0,0,1,1.625-.88281A1.678,1.678,0,0,1,330.39777,147.74622Z"/><path d="M331.45929,145.757a.99057.99057,0,0,1,.97034-1.01043q.04023-.00081.08044.00164a1.01583,1.01583,0,1,1,.04083,2.03125q-.02042.00042-.04083,0a.9931.9931,0,0,1-1.04956-.93327Q331.4579,145.80165,331.45929,145.757Zm.23828,8.85254v-6.709a.2064.2064,0,0,1,.22461-.22461H333.098a.20641.20641,0,0,1,.22461.22461v6.709a.2064.2064,0,0,1-.22461.22461h-1.17578a.20641.20641,0,0,1-.22464-.22465Z"/><path d="M336.89288,154.65149,334.68,147.92786c-.05664-.168.02735-.252.18164-.252H336.178a.24178.24178,0,0,1,.25293.18261l1.33008,4.6504c.02832.06933.084.06933.1123,0l1.33106-4.63672a.23933.23933,0,0,1,.252-.19629l1.31641.01368c.15429,0,.23828.09864.18261.25292l-2.19921,6.709a.24205.24205,0,0,1-.25293.18262h-1.3584A.24171.24171,0,0,1,336.89288,154.65149Z"/><path d="M346.56769,152.80286a.19771.19771,0,0,1,.30859-.07032l.67285.53223a.21087.21087,0,0,1,.06839.29027l-.01272.01832a3.09028,3.09028,0,0,1-2.71778,1.373,2.90333,2.90333,0,0,1-2.9414-1.98926,5.14791,5.14791,0,0,1-.28028-1.73731,5.08442,5.08442,0,0,1,.1543-1.48437,2.89969,2.89969,0,0,1,2.95508-2.17188c1.87793,0,2.78809,1.09278,3.06836,2.87207a9.48943,9.48943,0,0,1,.09765,1.14844.2066.2066,0,0,1-.22363.22461h-4.34277a.0741.0741,0,0,0-.084.084,1.87755,1.87755,0,0,0,.084.61621,1.58761,1.58761,0,0,0,1.667,1.06445A1.8617,1.8617,0,0,0,346.56769,152.80286Zm-3.15137-2.85744a2.22913,2.22913,0,0,0-.1123.58791c-.01368.05664.01464.084.07031.084h2.81543a.07371.07371,0,0,0,.084-.084,3.04167,3.04167,0,0,0-.084-.50391,1.37966,1.37966,0,0,0-1.42871-1.06445,1.29446,1.29446,0,0,0-1.34473.98046Z"/><path d="M353.49738,147.74622a.22978.22978,0,0,1,.126.28027l-.22363,1.16211c-.02832.1543-.1123.18262-.2666.14062a1.63941,1.63941,0,0,0-.71387-.042,1.37524,1.37524,0,0,0-1.37353,1.377l.00055.0371v3.9082a.20612.20612,0,0,1-.22364.22461H349.6459a.2064.2064,0,0,1-.2246-.18645.2027.2027,0,0,1,0-.03816v-6.709a.2064.2064,0,0,1,.2246-.22461h1.17676a.2061.2061,0,0,1,.22364.22461v.5459c0,.07031.042.09766.084.02832a1.86381,1.86381,0,0,1,1.625-.88281A1.678,1.678,0,0,1,353.49738,147.74622Z"/><rect x="280.92664" y="71.78499" width="63.88412" height="63.88412" fill="#e0f0fc" stroke="#0067b9" stroke-miterlimit="10" stroke-width="1.4"/><polygon points="295.442 80.951 295.442 126.503 335.684 103.624 295.442 80.951 295.442 80.951" fill="#f1f9fe" stroke="#0067b9" stroke-miterlimit="14.3" stroke-width="1.05"/><path d="M341.58932,103.72706h0a3.22355,3.22355,0,1,1,3.22358,3.22352h-.00183A3.22293,3.22293,0,0,1,341.58932,103.72706Z" fill="#f1f9fe" stroke="#0067b9" stroke-miterlimit="14.3" stroke-width="1.05"/><polygon points="116.286 113.353 116.286 118.578 101.384 103.776 116.286 88.874 116.286 94.389 138.344 94.389 138.344 88.874 153.246 103.776 138.344 118.578 138.344 113.353 116.286 113.353" fill="none" stroke="#0067b9" stroke-miterlimit="14.3" stroke-width="1.05"/><path d="M397.91144,139.76868h-4.69238a.07371.07371,0,0,0-.084.084v2.59082a.08032.08032,0,0,0,.07645.084h3.14526a.20609.20609,0,0,1,.22363.22461v.95213a.20611.20611,0,0,1-.22363.22461h-3.13769a.08032.08032,0,0,0-.084.07643v3.94311a.2064.2064,0,0,1-.22461.22461H391.7337a.20609.20609,0,0,1-.22363-.22461V138.592a.20611.20611,0,0,1,.22363-.22461h6.17774a.20609.20609,0,0,1,.22363.22461v.95215a.20661.20661,0,0,1-.22363.22458Z"/><path d="M399.11163,139.09583a.99059.99059,0,0,1,.97031-1.01044q.04023-.00081.08047.00165a1.01583,1.01583,0,1,1,.04084,2.03125q-.02042.00041-.04084,0a.99315.99315,0,0,1-1.04956-.93329Q399.11024,139.14045,399.11163,139.09583Zm.23828,8.85252v-6.709a.20612.20612,0,0,1,.22364-.22461h1.17676a.2064.2064,0,0,1,.2246.22461v6.709a.2064.2064,0,0,1-.2246.22461h-1.17676a.20609.20609,0,0,1-.22364-.2246Z"/><path d="M402.82159,147.94836v-9.35644a.20612.20612,0,0,1,.22364-.22461H404.222a.2064.2064,0,0,1,.22461.22461v9.35644a.2064.2064,0,0,1-.22461.22461h-1.17675a.20609.20609,0,0,1-.22364-.22461Z"/><path d="M409.78156,142.33118h-1.35938a.07449.07449,0,0,0-.084.06355.07373.07373,0,0,0,0,.02045v3.30664c0,.72754.30859,1.02246.96679,1.02246h.36426a.20584.20584,0,0,1,.22363.22363v.93848a.21582.21582,0,0,1-.22363.23828c-.22461,0-.44824.01369-.67285.01369-1.34473,0-2.19922-.33594-2.21289-1.82032v-3.92285a.08087.08087,0,0,0-.07761-.084H405.971a.20584.20584,0,0,1-.22363-.22363v-.86816a.20606.20606,0,0,1,.22363-.22461h.72851a.07449.07449,0,0,0,.084-.084v-1.56836a.2064.2064,0,0,1,.22461-.22461h1.10644a.20609.20609,0,0,1,.22364.22461v1.56836a.08087.08087,0,0,0,.0776.084h1.36579a.20609.20609,0,0,1,.22363.22461v.86816a.20589.20589,0,0,1-.22369.22362Z"/><path d="M416.04034,146.14172a.1968.1968,0,0,1,.30762-.07031l.67285.53223a.21087.21087,0,0,1,.06839.29027l-.01272.01832a3.09026,3.09026,0,0,1-2.71778,1.37305,2.90333,2.90333,0,0,1-2.9414-1.98926,5.14789,5.14789,0,0,1-.28028-1.7373,5.08309,5.08309,0,0,1,.1543-1.48438,2.9,2.9,0,0,1,2.95606-2.17187c1.87695,0,2.7871,1.09277,3.06738,2.87207a9.48909,9.48909,0,0,1,.09765,1.14843.20654.20654,0,0,1-.22363.22461H412.846a.07411.07411,0,0,0-.084.084,1.87755,1.87755,0,0,0,.084.61621,1.58761,1.58761,0,0,0,1.667,1.06446A1.865,1.865,0,0,0,416.04034,146.14172ZM412.888,143.2843a2.19332,2.19332,0,0,0-.11133.58789c-.01465.05664.01367.084.06934.084h2.81543a.07439.07439,0,0,0,.085-.084,3.13435,3.13435,0,0,0-.085-.5039,1.37968,1.37968,0,0,0-1.42871-1.06446A1.296,1.296,0,0,0,412.888,143.2843Z"/><path d="M422.97,141.08508a.23175.23175,0,0,1,.126.28028l-.22461,1.16211c-.02832.15429-.11231.18261-.26563.14062a1.64535,1.64535,0,0,0-.71484-.042,1.37584,1.37584,0,0,0-1.37357,1.37812l.00052.036v3.9082a.20611.20611,0,0,1-.22363.22461h-1.17676a.2061.2061,0,0,1-.22363-.22461v-6.709a.20611.20611,0,0,1,.22363-.22461h1.17676a.20609.20609,0,0,1,.22363.22461v.5459c0,.07031.042.09765.084.02832a1.86378,1.86378,0,0,1,1.625-.88281A1.683,1.683,0,0,1,422.97,141.08508Z"/><rect x="377.21075" y="79.15573" width="59.35654" height="49.14265" fill="#e0f0fc" stroke="#0067b9" stroke-width="1.4"/><polyline points="386.978 93.389 414.403 93.376 426.8 114.078" fill="none" stroke="#0067b9" stroke-linecap="square" stroke-miterlimit="10" stroke-width="1.05"/><path d="M373.989,103.72706h0a3.22355,3.22355,0,1,1,3.22358,3.22352h-.00184A3.22292,3.22292,0,0,1,373.989,103.72706Z" fill="#f1f9fe" stroke="#0067b9" stroke-miterlimit="14.3" stroke-width="1.05"/><line x1="373.98901" y1="103.72706" x2="348.03638" y2="103.72706" fill="none" stroke="#0067b9" stroke-miterlimit="14.3" stroke-width="1.05"/><polygon points="238.459 103.726 213.731 79.155 153.246 79.155 153.246 128.298 213.731 128.298 238.459 103.726" fill="#e0f0fc" stroke="#0067b9" stroke-miterlimit="14.3" stroke-width="1.4" fill-rule="evenodd"/><path d="M178.51593,107.79993V98.44348a.20641.20641,0,0,1,.22461-.22461h3.36133c2.01758,0,3.334,1.1211,3.334,2.87207v4.06153c0,1.751-1.31641,2.87207-3.334,2.87207h-3.36133a.20641.20641,0,0,1-.22461-.22461Zm1.709-1.17676h1.94727a1.589,1.589,0,0,0,1.63867-1.72266v-3.54393a1.5824,1.5824,0,0,0-1.65332-1.73633h-1.93262a.0741.0741,0,0,0-.084.084v6.835a.07409.07409,0,0,0,.084.08392Z"/><path d="M192.58917,107.84192l-.43359-1.44238a.09115.09115,0,0,0-.09863-.07032h-3.67a.08955.08955,0,0,0-.09765.07032l-.43457,1.44238a.24169.24169,0,0,1-.252.18262h-1.27442c-.15429,0-.22461-.09864-.18261-.252l2.998-9.3711a.24166.24166,0,0,1,.252-.18261h1.63867a.24345.24345,0,0,1,.25293.18261l3.01076,9.3711c.042.15332-.02735.252-.18164.252H192.8421A.24277.24277,0,0,1,192.58917,107.84192Zm-3.7959-2.78711h2.85744c.05664,0,.084-.02832.07031-.09863l-1.44238-4.76172c-.02832-.07031-.084-.07031-.1123,0l-1.44239,4.76172C188.70929,105.02649,188.73761,105.05481,188.79327,105.05481Z"/><path d="M195.28741,104.84485v-3.46a3.208,3.208,0,0,1,3.51662-3.27832c2.10059,0,3.501,1.26074,3.501,3.15234,0,.09765-.06934.15429-.21.168l-1.19043.07032c-.13965.01367-.22363-.02832-.22363-.07032v-.084a1.88494,1.88494,0,0,0-3.76856,0v3.57129a1.88537,1.88537,0,0,0,3.76856,0c0-.09765.084-.168.22363-.15332l1.17676.05567c.13965.01367.22363.02832.22363.07031v.06934c0,1.91993-1.40039,3.18066-3.501,3.18066a3.21876,3.21876,0,0,1-3.51658-3.292Z"/><path d="M20.9632,104.84583v-3.46a3.208,3.208,0,0,1,3.5166-3.27832c2.10058,0,3.501,1.26075,3.501,3.15235,0,.09765-.06933.15429-.21.168l-1.19043.07032c-.13965.01367-.22363-.02832-.22363-.07032v-.084a1.747,1.747,0,0,0-1.877-1.835,1.75815,1.75815,0,0,0-1.8916,1.835v3.57129a1.75487,1.75487,0,0,0,1.8916,1.82129,1.74361,1.74361,0,0,0,1.877-1.82129c0-.09765.084-.168.22363-.15332l1.17676.05566c.13965.01368.22363.02833.22363.07032v.06933c0,1.91993-1.40039,3.18067-3.501,3.18067a3.2187,3.2187,0,0,1-3.51656-3.292Z"/><path d="M29.58722,106.02258a5.194,5.194,0,0,1-.23731-1.59765,5.50815,5.50815,0,0,1,.22364-1.59668,2.99337,2.99337,0,0,1,3.04-2.07325,2.94738,2.94738,0,0,1,2.9414,2.05958,4.77575,4.77575,0,0,1,.252,1.59667,5.29177,5.29177,0,0,1-.23829,1.59668,3.16823,3.16823,0,0,1-5.98144.01465Zm4.42676-.40625a3.7983,3.7983,0,0,0,.15429-1.17675,4.501,4.501,0,0,0-.14062-1.17675,1.4543,1.4543,0,0,0-1.45606-1.10646,1.43942,1.43942,0,0,0-1.44336,1.10646,4.50577,4.50577,0,0,0-.13964,1.17675,4.68141,4.68141,0,0,0,.13964,1.17675,1.47093,1.47093,0,0,0,1.47071,1.12012,1.44288,1.44288,0,0,0,1.41506-1.12012Z"/><path d="M43.28253,103.26282v4.53808a.20617.20617,0,0,1-.22363.22461H41.88214a.20641.20641,0,0,1-.22461-.22461v-4.20215a1.34761,1.34761,0,1,0-2.68945-.01367v4.21582a.20617.20617,0,0,1-.22363.22461H37.56769a.2064.2064,0,0,1-.22461-.22461v-6.709a.2064.2064,0,0,1,.22461-.22461h1.17676a.20609.20609,0,0,1,.22363.22461v.37793c0,.07031.042.09764.084.042a2.0474,2.0474,0,0,1,1.72364-.75685,2.339,2.339,0,0,1,2.50681,2.50784Z"/><path d="M48.53156,102.18372h-1.3584a.07411.07411,0,0,0-.084.084v3.30664c0,.72754.30762,1.02246.96582,1.02246h.36426a.20613.20613,0,0,1,.22461.22364v.93847a.21656.21656,0,0,1-.22461.23829c-.22363,0-.44824.01367-.67187.01367-1.34473,0-2.19922-.33593-2.21387-1.82032V102.2677a.08031.08031,0,0,0-.07644-.084H44.721a.20585.20585,0,0,1-.22363-.22364v-.86816a.20617.20617,0,0,1,.22363-.22461h.72851a.07411.07411,0,0,0,.084-.084V99.215a.2064.2064,0,0,1,.22461-.22461h1.10644a.20686.20686,0,0,1,.22461.22461v1.56836a.08033.08033,0,0,0,.07645.084h1.366a.20614.20614,0,0,1,.22363.2246v.86816a.20587.20587,0,0,1-.22364.2236Z"/><path d="M54.27081,100.93762a.22978.22978,0,0,1,.126.28028l-.22363,1.1621c-.02832.1543-.11231.18262-.2666.14064a1.63943,1.63943,0,0,0-.71387-.042,1.37525,1.37525,0,0,0-1.37355,1.377l.00055.03711v3.9082a.20612.20612,0,0,1-.22363.22461H50.41925a.20641.20641,0,0,1-.22461-.22461v-6.709a.20641.20641,0,0,1,.22461-.22461H51.596a.20615.20615,0,0,1,.22363.22461v.5459c0,.07031.042.09765.084.02832a1.86379,1.86379,0,0,1,1.625-.88281A1.67824,1.67824,0,0,1,54.27081,100.93762Z"/><path d="M55.36066,106.02258a5.19426,5.19426,0,0,1-.23731-1.59765,5.50883,5.50883,0,0,1,.22363-1.59668,2.99337,2.99337,0,0,1,3.04-2.07325,2.94739,2.94739,0,0,1,2.94141,2.05958,4.77549,4.77549,0,0,1,.252,1.59667,5.29145,5.29145,0,0,1-.23828,1.59668,3.16824,3.16824,0,0,1-5.98145.01465Zm4.42675-.40625a3.798,3.798,0,0,0,.1543-1.17675,4.501,4.501,0,0,0-.14062-1.17675,1.4543,1.4543,0,0,0-1.45606-1.10646,1.4394,1.4394,0,0,0-1.44336,1.10646,4.50578,4.50578,0,0,0-.13965,1.17675,4.68188,4.68188,0,0,0,.13965,1.17675,1.47093,1.47093,0,0,0,1.47071,1.12012A1.44288,1.44288,0,0,0,59.78741,105.61633Z"/><path d="M63.13116,107.8009V98.44446a.20612.20612,0,0,1,.22364-.22461h1.17676a.20687.20687,0,0,1,.2246.22461v9.35644a.20685.20685,0,0,1-.2246.22461H63.3548a.20614.20614,0,0,1-.22364-.22461Z"/><path d="M66.53351,107.8009V98.44446a.20612.20612,0,0,1,.22363-.22461H67.9339a.20686.20686,0,0,1,.22461.22461v9.35644a.20686.20686,0,0,1-.22461.22461H66.75714a.20609.20609,0,0,1-.22363-.22461Z"/><path d="M74.6546,105.99426a.19772.19772,0,0,1,.3086-.07031l.67285.53223a.21086.21086,0,0,1,.06839.29026l-.01273.01833a3.09024,3.09024,0,0,1-2.71777,1.37305,2.90333,2.90333,0,0,1-2.94141-1.98926,5.14815,5.14815,0,0,1-.28027-1.73731,5.08371,5.08371,0,0,1,.1543-1.48437,2.89967,2.89967,0,0,1,2.95507-2.17188c1.87793,0,2.78809,1.09278,3.06836,2.87208a9.48892,9.48892,0,0,1,.09765,1.14843.20653.20653,0,0,1-.22363.2246H71.46124a.07411.07411,0,0,0-.084.084,1.87816,1.87816,0,0,0,.084.61622,1.58763,1.58763,0,0,0,1.667,1.06445A1.8617,1.8617,0,0,0,74.6546,105.99426Zm-3.15137-2.85742a2.22978,2.22978,0,0,0-.11229.58789c-.01367.05664.01465.084.07031.084h2.81543a.07373.07373,0,0,0,.084-.084,3.04188,3.04188,0,0,0-.084-.5039,1.37968,1.37968,0,0,0-1.42871-1.06446A1.29446,1.29446,0,0,0,71.50323,103.13684Z"/><path d="M81.58429,100.93762a.22979.22979,0,0,1,.126.28028l-.22364,1.1621c-.02832.1543-.1123.18262-.2666.14064a1.63943,1.63943,0,0,0-.71387-.042,1.37525,1.37525,0,0,0-1.37355,1.377l.00055.03711v3.9082a.20612.20612,0,0,1-.22364.22461H77.73273a.2064.2064,0,0,1-.22461-.22461v-6.709a.2064.2064,0,0,1,.22461-.22461h1.17675a.20614.20614,0,0,1,.22364.22461v.5459c0,.07031.042.09765.084.02832a1.86381,1.86381,0,0,1,1.625-.88281A1.67817,1.67817,0,0,1,81.58429,100.93762Z"/><path d="M481.29913,156.56848a2.80429,2.80429,0,0,1-3.05371,2.88574h-2.22754a.08088.08088,0,0,0-.084.07759v3.70466a.20584.20584,0,0,1-.22363.22363h-1.17676a.20617.20617,0,0,1-.22461-.22363v-9.3711a.2064.2064,0,0,1,.22461-.22461h3.7959a2.79032,2.79032,0,0,1,2.96975,2.92772Zm-1.625.042a1.48875,1.48875,0,0,0-1.583-1.56836h-2.07325a.08031.08031,0,0,0-.084.07643v2.9353a.08086.08086,0,0,0,.0776.084h2.07966a1.47138,1.47138,0,0,0,1.583-1.52739Z"/><path d="M486.64484,156.37219a.23022.23022,0,0,1,.126.28028l-.22363,1.16308c-.02832.1543-.1123.18164-.2666.13965a1.65587,1.65587,0,0,0-.71387-.042,1.3761,1.3761,0,0,0-1.37353,1.37865l.00055.03635v3.9082a.20614.20614,0,0,1-.22461.22363h-1.17578a.20617.20617,0,0,1-.22461-.22363v-6.71a.20614.20614,0,0,1,.22461-.22363h1.17578a.20621.20621,0,0,1,.22461.22363v.54688c0,.06933.042.09765.084.02734a1.86512,1.86512,0,0,1,1.625-.88183A1.67989,1.67989,0,0,1,486.64484,156.37219Z"/><path d="M487.73468,161.45715a5.15742,5.15742,0,0,1-.23828-1.59668,5.46888,5.46888,0,0,1,.22461-1.59668,2.993,2.993,0,0,1,3.03906-2.07324,2.9489,2.9489,0,0,1,2.94238,2.0586,4.78119,4.78119,0,0,1,.252,1.59765,5.2966,5.2966,0,0,1-.23828,1.59668,3.16848,3.16848,0,0,1-5.98145.01367Zm4.42676-.40625a3.82386,3.82386,0,0,0,.15332-1.17674,4.51671,4.51671,0,0,0-.13965-1.17676,1.4546,1.4546,0,0,0-1.457-1.10644,1.43907,1.43907,0,0,0-1.44238,1.10644,4.512,4.512,0,0,0-.14063,1.17676,4.66552,4.66552,0,0,0,.14063,1.17674,1.47174,1.47174,0,0,0,1.4707,1.1211A1.44376,1.44376,0,0,0,492.16144,161.0509Z"/><path d="M498.90851,157.61926h-1.3584a.0741.0741,0,0,0-.084.084v3.30567c0,.72851.30762,1.02246.9668,1.02246h.36328a.20641.20641,0,0,1,.22461.22461v.93847a.21742.21742,0,0,1-.22461.23828c-.22363,0-.44824.01368-.67187.01368-1.34473,0-2.19922-.33594-2.21289-1.82129v-3.92188a.08087.08087,0,0,0-.07761-.084h-.73492a.2064.2064,0,0,1-.22461-.22461v-.86816a.20614.20614,0,0,1,.22461-.22363h.72851a.0745.0745,0,0,0,.084-.084v-1.56934a.20584.20584,0,0,1,.22363-.22363h1.10645a.20618.20618,0,0,1,.2246.22363v1.56934a.08032.08032,0,0,0,.07645.084h1.366a.20617.20617,0,0,1,.22461.22363v.86816a.2064.2064,0,0,1-.22461.22461Z"/><path d="M505.1673,161.42883a.19738.19738,0,0,1,.30859-.06933l.67188.53222a.20929.20929,0,0,1,.07055.28742l-.01391.0202a3.08924,3.08924,0,0,1-2.71778,1.37305,2.90249,2.90249,0,0,1-2.9414-1.98926,6.18824,6.18824,0,0,1-.126-3.22168,2.89838,2.89838,0,0,1,2.95508-2.1709c1.877,0,2.78808,1.09278,3.06836,2.8711a9.52341,9.52341,0,0,1,.09765,1.14941.20614.20614,0,0,1-.22461.22363h-4.34179a.07412.07412,0,0,0-.084.06267.0733.0733,0,0,0,0,.02133,1.85249,1.85249,0,0,0,.084.61621,1.58686,1.58686,0,0,0,1.667,1.06446A1.85912,1.85912,0,0,0,505.1673,161.42883Zm-3.15137-2.85742a2.19834,2.19834,0,0,0-.1123.58887c-.01368.05566.01367.084.07031.084h2.81543a.0745.0745,0,0,0,.084-.06355.07373.07373,0,0,0,0-.02045,3.16247,3.16247,0,0,0-.084-.50488,1.38136,1.38136,0,0,0-1.42871-1.06446A1.29542,1.29542,0,0,0,502.01593,158.57141Z"/><path d="M508.04913,161.52747a5.0969,5.0969,0,0,1-.22461-1.68067,5.022,5.022,0,0,1,.22461-1.65332,2.93791,2.93791,0,0,1,2.95508-2.00293,3.00214,3.00214,0,0,1,2.9834,1.91895,1.81443,1.81443,0,0,1,.085.39258c.02735.15332-.042.22363-.18262.25195l-1.1621.18164a.19677.19677,0,0,1-.25293-.168l-.042-.18164a1.39269,1.39269,0,0,0-1.42871-.99512,1.364,1.364,0,0,0-1.40039,1.02246,4.47977,4.47977,0,0,0-.14062,1.24707,5.03524,5.03524,0,0,0,.127,1.24707,1.487,1.487,0,0,0,2.8291.06934.2487.2487,0,0,0,.01367-.06934c.01465-.07031.126-.22461.26661-.19629l1.16211.18166a.19751.19751,0,0,1,.18261.252,2.32912,2.32912,0,0,1-.05664.28027,3.207,3.207,0,0,1-5.93847-.09765Z"/><path d="M519.02667,157.61926h-1.3584a.07406.07406,0,0,0-.084.06267.0733.0733,0,0,0,0,.02133v3.30567c0,.72851.30762,1.02246.9668,1.02246h.36328a.20641.20641,0,0,1,.22461.18644.20977.20977,0,0,1,0,.03817v.93847a.21745.21745,0,0,1-.22461.23828c-.22364,0-.44824.01368-.67188.01368-1.34472,0-2.19922-.33594-2.21289-1.82129v-3.92188a.08085.08085,0,0,0-.07763-.084h-.73487a.20641.20641,0,0,1-.22461-.18644.20977.20977,0,0,1,0-.03817v-.86816a.20614.20614,0,0,1,.22461-.22363h.72852a.07447.07447,0,0,0,.084-.0636.07574.07574,0,0,0,0-.0204v-1.56934a.20586.20586,0,0,1,.22363-.22363h1.10645a.20616.20616,0,0,1,.22455.18593.21005.21005,0,0,1,.00006.0377v1.56934a.08033.08033,0,0,0,.07642.084h1.366a.20616.20616,0,0,1,.22455.18592.21016.21016,0,0,1,.00006.03771v.86816a.20639.20639,0,0,1-.22461.22461Z"/><path d="M520.56476,154.38391a.99.99,0,0,1,.96911-1.01045c.02723-.00057.05451,0,.08167.00166a1.01583,1.01583,0,0,1,.04083,2.03125q-.02042.00042-.04083,0a.99364.99364,0,0,1-1.04956-.9344Q520.56342,154.428,520.56476,154.38391Zm.23828,8.85254v-6.71a.20586.20586,0,0,1,.22363-.22363h1.17676a.20617.20617,0,0,1,.22455.18593.21005.21005,0,0,1,.00006.0377v6.71a.20614.20614,0,0,1-.22461.22363h-1.17676a.20584.20584,0,0,1-.22369-.18631.21144.21144,0,0,1,0-.03732Z"/><path d="M524.303,161.45715a5.158,5.158,0,0,1-.23828-1.59668,5.50191,5.50191,0,0,1,.22363-1.59668,2.99415,2.99415,0,0,1,3.04-2.07324,2.94774,2.94774,0,0,1,2.9414,2.0586,4.78266,4.78266,0,0,1,.252,1.59765,5.29754,5.29754,0,0,1-.23828,1.59668,3.16779,3.16779,0,0,1-5.98047.01367Zm4.42578-.40625a3.79369,3.79369,0,0,0,.1543-1.17674,4.518,4.518,0,0,0-.13965-1.17676,1.45612,1.45612,0,0,0-1.457-1.10644,1.44015,1.44015,0,0,0-1.44336,1.10644,4.518,4.518,0,0,0-.13965,1.17676,4.67109,4.67109,0,0,0,.13965,1.17674,1.47331,1.47331,0,0,0,1.4707,1.1211,1.44377,1.44377,0,0,0,1.415-1.1211Z"/><path d="M537.99738,158.69739v4.53906a.20587.20587,0,0,1-.22364.22363H536.597a.20613.20613,0,0,1-.22454-.18589.2105.2105,0,0,1-.00006-.03774V159.0343a1.34765,1.34765,0,1,0-2.68946-.01465v4.2168a.20586.20586,0,0,1-.22363.22363h-1.17676a.20585.20585,0,0,1-.22363-.18637.21076.21076,0,0,1,0-.03726v-6.71a.20586.20586,0,0,1,.22363-.22363h1.17676a.20586.20586,0,0,1,.22363.18637.21076.21076,0,0,1,0,.03726v.37793c0,.07032.042.09864.084.042a2.05046,2.05046,0,0,1,1.72363-.75586,2.33822,2.33822,0,0,1,2.50684,2.50687Z"/><line x1="436.56732" y1="103.72706" x2="474.14587" y2="103.72706" fill="none" stroke="#0067b9" stroke-miterlimit="14.3" stroke-width="1.05"/><rect x="474.14581" y="71.785" width="63.88416" height="63.88412" fill="#e0f0fc" stroke="#0067b9" stroke-miterlimit="10" stroke-width="1.4"/><path d="M477.36731,103.72706h0a3.22354,3.22354,0,1,0-3.22357,3.22352h.0018A3.223,3.223,0,0,0,477.36731,103.72706Z" fill="#f1f9fe" stroke="#0067b9" stroke-miterlimit="14.3" stroke-width="1.05"/><line x1="538.03003" y1="103.72706" x2="569.2149" y2="103.72706" fill="none" stroke="#0067b9" stroke-miterlimit="14.3" stroke-width="1.05"/><path d="M569.2149,103.72706a5.98846,5.98846,0,1,0,6.09034-5.88487q-.05174-.00087-.10352-.00087A5.96494,5.96494,0,0,0,569.2149,103.72706Z" fill="#f1f9fe" stroke="#0067b9" stroke-width="1.4" fill-rule="evenodd"/><path d="M541.25146,103.72706h0a3.22354,3.22354,0,1,0-3.22357,3.22352h.00183A3.223,3.223,0,0,0,541.25146,103.72706Z" fill="#f1f9fe" stroke="#0067b9" stroke-miterlimit="14.3" stroke-width="1.05"/><path d="M433.34378,103.72706h0a3.22354,3.22354,0,1,1,3.22357,3.22352h-.00183A3.22292,3.22292,0,0,1,433.34378,103.72706Z" fill="#f1f9fe" stroke="#0067b9" stroke-miterlimit="14.3" stroke-width="1.05"/><path d="M235.2359,103.72706h0a3.22354,3.22354,0,1,1,3.22356,3.22352h-.0018A3.22294,3.22294,0,0,1,235.2359,103.72706Z" fill="#f1f9fe" stroke="#0067b9" stroke-miterlimit="14.3" stroke-width="1.05"/><line x1="242.25183" y1="103.72706" x2="280.92871" y2="103.72706" fill="none" stroke="#0067b9" stroke-miterlimit="14.3" stroke-width="1.05"/><path d="M277.7052,103.72706h0a3.22354,3.22354,0,1,1,3.22357,3.22352h-.00183A3.22292,3.22292,0,0,1,277.7052,103.72706Z" fill="#f1f9fe" stroke="#0067b9" stroke-miterlimit="14.3" stroke-width="1.05"/><rect x="256.54922" y="8.92494" width="48.75897" height="30.45935" fill="#e0f0fc" stroke="#0067b9" stroke-width="1.4"/><path d="M274.85724,28.28381l-1.835-4.00634a.09317.09317,0,0,0-.09766-.05616h-1.63916a.08087.08087,0,0,0-.084.0776v3.92876a.20613.20613,0,0,1-.22413.22412H269.8006a.20612.20612,0,0,1-.22412-.22412v-9.3711a.20612.20612,0,0,1,.22412-.22412h3.7959a2.72442,2.72442,0,0,1,2.8999,2.85742,2.53224,2.53224,0,0,1-1.86328,2.57763.07053.07053,0,0,0-.042.11182l1.93261,4.00635c.07032.15381,0,.26611-.168.26611h-1.23242A.25644.25644,0,0,1,274.85724,28.28381Zm-3.65576-8.1665v2.75928a.0741.0741,0,0,0,.084.084h2.0874a1.39725,1.39725,0,0,0,1.49854-1.44238,1.415,1.415,0,0,0-1.49854-1.48486h-2.0874a.07411.07411,0,0,0-.084.06264A.07323.07323,0,0,0,271.20148,20.11731Z"/><path d="M284.57355,20.04749h-4.70606a.07391.07391,0,0,0-.084.084V22.7228a.08029.08029,0,0,0,.07641.084h3.1453a.20605.20605,0,0,1,.22363.22412v.95264a.206.206,0,0,1-.22363.22412h-3.1377a.08058.08058,0,0,0-.084.077V26.967a.08029.08029,0,0,0,.07641.084h4.71366a.20668.20668,0,0,1,.22461.22412v.95264a.20672.20672,0,0,1-.22461.22412h-6.19141a.20605.20605,0,0,1-.22363-.22412v-9.357a.206.206,0,0,1,.22363-.22412h6.19141a.20667.20667,0,0,1,.22461.22412v.95215a.2071.2071,0,0,1-.22461.22461Z"/><path d="M292.847,20.04749H288.1546a.07428.07428,0,0,0-.084.084V22.7228a.08086.08086,0,0,0,.0776.084h3.14411a.20668.20668,0,0,1,.22461.22412v.95264a.20672.20672,0,0,1-.22461.22412h-3.1377a.08058.08058,0,0,0-.084.077v3.943a.20628.20628,0,0,1-.22461.22412H286.6702a.2062.2062,0,0,1-.22461-.22412v-9.357a.20626.20626,0,0,1,.22461-.22412H292.847a.2062.2062,0,0,1,.22461.22412v.95215a.20664.20664,0,0,1-.22461.22461Z"/><polyline points="204.287 75.932 204.287 24.155 253.324 24.155" fill="none" stroke="#0067b9" stroke-miterlimit="14.3" stroke-width="1.05"/><path d="M207.50842,79.155h0a3.22354,3.22354,0,1,0-3.22355,3.22352h.0018A3.22293,3.22293,0,0,0,207.50842,79.155Z" fill="#f1f9fe" stroke="#0067b9" stroke-miterlimit="14.3" stroke-width="1.05"/><polygon points="466.27 141.969 465.22 141.969 465.22 141.969 465.22 144.594 467.846 144.594 467.846 143.544 466.27 143.544 466.27 141.969" fill="#0067b9"/><rect x="510.78436" y="143.54443" width="4.02551" height="1.04999" fill="#0067b9"/><rect x="483.94781" y="143.54443" width="4.02551" height="1.04999" fill="#0067b9"/><rect x="490.65698" y="143.54443" width="4.02545" height="1.04999" fill="#0067b9"/><rect x="517.49353" y="143.54443" width="4.02545" height="1.04999" fill="#0067b9"/><rect x="504.07526" y="143.54443" width="4.02545" height="1.04999" fill="#0067b9"/><rect x="524.20264" y="143.54443" width="4.02545" height="1.04999" fill="#0067b9"/><rect x="477.23871" y="143.54443" width="4.02545" height="1.04999" fill="#0067b9"/><rect x="530.91174" y="143.54443" width="4.02551" height="1.04999" fill="#0067b9"/><rect x="537.62091" y="143.54443" width="4.02545" height="1.04999" fill="#0067b9"/><rect x="497.36609" y="143.54443" width="4.02551" height="1.04999" fill="#0067b9"/><rect x="470.5296" y="143.54443" width="4.02545" height="1.04999" fill="#0067b9"/><line x1="544.33038" y1="144.59448" x2="544.33038" y2="144.59442" fill="none"/><polygon points="545.905 143.544 544.33 143.544 544.33 144.594 546.955 144.594 546.955 141.969 545.905 141.969 545.905 143.544" fill="#0067b9"/><rect x="545.90497" y="88.29584" width="1.04999" height="4.02551" fill="#0067b9"/><rect x="545.90497" y="81.58673" width="1.04999" height="4.02545" fill="#0067b9"/><rect x="545.90497" y="68.16846" width="1.04999" height="4.02545" fill="#0067b9"/><rect x="545.90497" y="74.87756" width="1.04999" height="4.02551" fill="#0067b9"/><rect x="545.90497" y="115.13239" width="1.04999" height="4.02545" fill="#0067b9"/><rect x="545.90497" y="128.55066" width="1.04999" height="4.02545" fill="#0067b9"/><rect x="545.90497" y="121.84149" width="1.04999" height="4.02551" fill="#0067b9"/><rect x="545.90497" y="135.25977" width="1.04999" height="4.02551" fill="#0067b9"/><rect x="545.90497" y="108.42322" width="1.04999" height="4.02551" fill="#0067b9"/><rect x="545.90497" y="95.00494" width="1.04999" height="4.02551" fill="#0067b9"/><rect x="545.90497" y="101.71411" width="1.04999" height="4.02545" fill="#0067b9"/><line x1="546.95502" y1="65.48499" x2="546.95496" y2="65.48499" fill="none"/><polygon points="544.33 62.86 544.33 63.91 545.905 63.91 545.905 65.485 546.955 65.485 546.955 62.86 544.33 62.86" fill="#0067b9"/><rect x="524.203" y="62.85986" width="4.02551" height="1.04999" fill="#0067b9"/><rect x="483.94824" y="62.85986" width="4.02545" height="1.04999" fill="#0067b9"/><rect x="490.65735" y="62.85986" width="4.02545" height="1.04999" fill="#0067b9"/><rect x="470.52997" y="62.85986" width="4.02551" height="1.04999" fill="#0067b9"/><rect x="477.23914" y="62.85986" width="4.02545" height="1.04999" fill="#0067b9"/><rect x="497.36646" y="62.85986" width="4.02551" height="1.04999" fill="#0067b9"/><rect x="510.78473" y="62.85986" width="4.02551" height="1.04999" fill="#0067b9"/><rect x="537.62128" y="62.85986" width="4.02551" height="1.04999" fill="#0067b9"/><rect x="504.07562" y="62.85986" width="4.02545" height="1.04999" fill="#0067b9"/><rect x="530.91217" y="62.85986" width="4.02545" height="1.04999" fill="#0067b9"/><rect x="517.4939" y="62.85986" width="4.02545" height="1.04999" fill="#0067b9"/><polygon points="465.22 65.485 466.27 65.485 466.27 63.91 467.846 63.91 467.846 62.86 465.22 62.86 465.22 65.485" fill="#0067b9"/><rect x="465.2204" y="115.13245" width="1.05005" height="4.02551" fill="#0067b9"/><rect x="465.2204" y="101.71423" width="1.05005" height="4.02545" fill="#0067b9"/><rect x="465.2204" y="121.84161" width="1.05005" height="4.02545" fill="#0067b9"/><rect x="465.2204" y="95.00507" width="1.05005" height="4.02551" fill="#0067b9"/><rect x="465.2204" y="128.55072" width="1.05005" height="4.02551" fill="#0067b9"/><rect x="465.2204" y="88.29596" width="1.05005" height="4.02545" fill="#0067b9"/><rect x="465.2204" y="68.16858" width="1.05005" height="4.02545" fill="#0067b9"/><rect x="465.2204" y="74.87769" width="1.05005" height="4.02545" fill="#0067b9"/><rect x="465.2204" y="135.25989" width="1.05005" height="4.02545" fill="#0067b9"/><rect x="465.2204" y="81.58679" width="1.05005" height="4.02551" fill="#0067b9"/><rect x="465.2204" y="108.42334" width="1.05005" height="4.02551" fill="#0067b9"/><polygon points="1.4 141.969 0 141.969 0 144.769 2.8 144.769 2.8 143.369 1.4 143.369 1.4 141.969" fill="#0067b9"/><rect x="12.88031" y="143.36945" width="4.32019" height="1.39996" fill="#0067b9"/><rect x="20.08063" y="143.36945" width="4.32019" height="1.39996" fill="#0067b9"/><rect x="77.68304" y="143.36945" width="4.32019" height="1.39996" fill="#0067b9"/><rect x="27.28094" y="143.36945" width="4.32013" height="1.39996" fill="#0067b9"/><rect x="41.68152" y="143.36945" width="4.32019" height="1.39996" fill="#0067b9"/><rect x="34.4812" y="143.36945" width="4.32019" height="1.39996" fill="#0067b9"/><rect x="84.88336" y="143.36945" width="4.32019" height="1.39996" fill="#0067b9"/><rect x="92.08368" y="143.36945" width="4.32019" height="1.39996" fill="#0067b9"/><rect x="48.88184" y="143.36945" width="4.32019" height="1.39996" fill="#0067b9"/><rect x="63.28247" y="143.36945" width="4.32013" height="1.39996" fill="#0067b9"/><rect x="56.08215" y="143.36945" width="4.32019" height="1.39996" fill="#0067b9"/><rect x="70.48273" y="143.36945" width="4.32019" height="1.39996" fill="#0067b9"/><rect x="5.67999" y="143.36945" width="4.32019" height="1.39996" fill="#0067b9"/><line x1="99.284" y1="144.76947" x2="99.284" y2="144.76941" fill="none"/><polygon points="100.684 143.369 99.284 143.369 99.284 144.769 102.084 144.769 102.084 141.969 100.684 141.969 100.684 143.369" fill="#0067b9"/><rect x="100.68408" y="115.13239" width="1.40002" height="4.02545" fill="#0067b9"/><rect x="100.68408" y="108.42322" width="1.40002" height="4.02551" fill="#0067b9"/><rect x="100.68408" y="101.71411" width="1.40002" height="4.02545" fill="#0067b9"/><rect x="100.68408" y="121.84149" width="1.40002" height="4.02551" fill="#0067b9"/><rect x="100.68408" y="95.00494" width="1.40002" height="4.02551" fill="#0067b9"/><rect x="100.68408" y="128.55066" width="1.40002" height="4.02545" fill="#0067b9"/><rect x="100.68408" y="135.25977" width="1.40002" height="4.02551" fill="#0067b9"/><rect x="100.68408" y="81.58673" width="1.40002" height="4.02545" fill="#0067b9"/><rect x="100.68408" y="68.16846" width="1.40002" height="4.02545" fill="#0067b9"/><rect x="100.68408" y="88.29584" width="1.40002" height="4.02551" fill="#0067b9"/><rect x="100.68408" y="74.87756" width="1.40002" height="4.02551" fill="#0067b9"/><polygon points="99.284 64.085 100.684 64.085 100.684 65.485 102.084 65.485 102.084 62.685 99.284 62.685 99.284 64.085" fill="#0067b9"/><rect x="20.08087" y="62.68488" width="4.32019" height="1.39996" fill="#0067b9"/><rect x="84.88361" y="62.68488" width="4.32019" height="1.39996" fill="#0067b9"/><rect x="27.28119" y="62.68488" width="4.32019" height="1.39996" fill="#0067b9"/><rect x="77.68329" y="62.68488" width="4.32019" height="1.39996" fill="#0067b9"/><rect x="48.88208" y="62.68488" width="4.32019" height="1.39996" fill="#0067b9"/><rect x="34.48151" y="62.68488" width="4.32013" height="1.39996" fill="#0067b9"/><rect x="92.08392" y="62.68488" width="4.32019" height="1.39996" fill="#0067b9"/><rect x="70.48303" y="62.68488" width="4.32013" height="1.39996" fill="#0067b9"/><rect x="56.0824" y="62.68488" width="4.32019" height="1.39996" fill="#0067b9"/><rect x="63.28271" y="62.68488" width="4.32019" height="1.39996" fill="#0067b9"/><rect x="5.68024" y="62.68488" width="4.32019" height="1.39996" fill="#0067b9"/><rect x="41.68176" y="62.68488" width="4.32019" height="1.39996" fill="#0067b9"/><rect x="12.88055" y="62.68488" width="4.32019" height="1.39996" fill="#0067b9"/><polygon points="0 65.485 1.4 65.485 1.4 64.085 2.8 64.085 2.8 62.685 0 62.685 0 65.485" fill="#0067b9"/><rect y="115.13245" width="1.40002" height="4.02551" fill="#0067b9"/><rect y="108.42334" width="1.40002" height="4.02551" fill="#0067b9"/><rect y="101.71423" width="1.40002" height="4.02545" fill="#0067b9"/><rect y="95.00507" width="1.40002" height="4.02551" fill="#0067b9"/><rect y="128.55072" width="1.40002" height="4.02551" fill="#0067b9"/><rect y="135.25989" width="1.40002" height="4.02545" fill="#0067b9"/><rect y="121.84161" width="1.40002" height="4.02545" fill="#0067b9"/><rect y="88.29596" width="1.40002" height="4.02545" fill="#0067b9"/><rect y="68.16858" width="1.40002" height="4.02545" fill="#0067b9"/><rect y="74.87769" width="1.40002" height="4.02545" fill="#0067b9"/><rect y="81.58679" width="1.40002" height="4.02551" fill="#0067b9"/><polygon points="248.674 45.684 247.624 45.684 247.624 45.684 247.624 48.309 250.249 48.309 250.249 47.259 248.674 47.259 248.674 45.684" fill="#0067b9"/><rect x="304.30365" y="47.25928" width="4.38281" height="1.04999" fill="#0067b9"/><rect x="282.38977" y="47.25928" width="4.38275" height="1.04999" fill="#0067b9"/><rect x="260.47583" y="47.25928" width="4.38281" height="1.04999" fill="#0067b9"/><rect x="275.08514" y="47.25928" width="4.38275" height="1.04999" fill="#0067b9"/><rect x="253.1712" y="47.25928" width="4.38281" height="1.04999" fill="#0067b9"/><rect x="296.99902" y="47.25928" width="4.38275" height="1.04999" fill="#0067b9"/><rect x="289.6944" y="47.25928" width="4.38275" height="1.04999" fill="#0067b9"/><rect x="267.78046" y="47.25928" width="4.38281" height="1.04999" fill="#0067b9"/><line x1="311.60773" y1="48.30933" x2="311.60773" y2="48.30927" fill="none"/><polygon points="313.183 47.259 311.608 47.259 311.608 48.309 314.233 48.309 314.233 45.684 313.183 45.684 313.183 47.259" fill="#0067b9"/><rect x="313.18329" y="32.22839" width="1.05005" height="4.03687" fill="#0067b9"/><rect x="313.18329" y="25.50037" width="1.05005" height="4.03687" fill="#0067b9"/><rect x="313.18329" y="38.95642" width="1.05005" height="4.03687" fill="#0067b9"/><rect x="313.18329" y="12.04437" width="1.05005" height="4.0368" fill="#0067b9"/><rect x="313.18329" y="18.7724" width="1.05005" height="4.0368" fill="#0067b9"/><rect x="313.18329" y="5.31635" width="1.05005" height="4.0368" fill="#0067b9"/><polygon points="311.608 1.05 313.183 1.05 313.183 2.625 314.233 2.625 314.233 0 311.608 0 311.608 1.05" fill="#0067b9"/><rect x="282.38916" width="4.38275" height="1.04999" fill="#0067b9"/><rect x="289.69379" width="4.38281" height="1.04999" fill="#0067b9"/><rect x="304.30304" width="4.38281" height="1.04999" fill="#0067b9"/><rect x="296.99841" width="4.38281" height="1.04999" fill="#0067b9"/><rect x="260.47528" width="4.38275" height="1.04999" fill="#0067b9"/><rect x="253.17059" width="4.38281" height="1.04999" fill="#0067b9"/><rect x="275.08453" width="4.38275" height="1.04999" fill="#0067b9"/><rect x="267.77991" width="4.38275" height="1.04999" fill="#0067b9"/><polygon points="247.624 2.625 248.674 2.625 248.674 1.05 250.249 1.05 250.249 0 247.624 0 247.624 2.625" fill="#0067b9"/><rect x="247.62421" y="5.31604" width="1.05005" height="4.0368" fill="#0067b9"/><rect x="247.62421" y="38.95612" width="1.05005" height="4.0368" fill="#0067b9"/><rect x="247.62421" y="25.50006" width="1.05005" height="4.0368" fill="#0067b9"/><rect x="247.62421" y="32.22809" width="1.05005" height="4.0368" fill="#0067b9"/><rect x="247.62421" y="12.04401" width="1.05005" height="4.03687" fill="#0067b9"/><rect x="247.62421" y="18.77203" width="1.05005" height="4.0368" fill="#0067b9"/><path d="M259.771,24.15462h0a3.22355,3.22355,0,1,0-3.22358,3.22352h.00184A3.22292,3.22292,0,0,0,259.771,24.15462Z" fill="#f1f9fe" stroke="#0067b9" stroke-miterlimit="14.3" stroke-width="1.05"/><path d="M245.4798,206.81458l-.43408-1.44336a.08959.08959,0,0,0-.09815-.06934h-3.66992a.08959.08959,0,0,0-.09815.06934l-.43408,1.44336a.24177.24177,0,0,1-.25244.18164h-1.27441c-.1543,0-.22412-.09766-.18213-.252l2.99756-9.3711a.24087.24087,0,0,1,.252-.18164h1.63916a.24086.24086,0,0,1,.252.18164l3.01172,9.3711c.042.15429-.02832.252-.18213.252h-1.2749A.24089.24089,0,0,1,245.4798,206.81458Zm-3.7959-2.78809h2.85742c.05615,0,.084-.02734.06983-.09766l-1.44239-4.76269c-.02832-.07031-.08447-.07031-.1123,0l-1.44287,4.76269C241.59943,203.99915,241.62775,204.02649,241.6839,204.02649Z" fill="#0067b9"/><path d="M254.84552,203.4386a5.4255,5.4255,0,0,1-.23779,1.709,2.68831,2.68831,0,0,1-2.70362,1.96094,2.04656,2.04656,0,0,1-1.59668-.68653c-.042-.05566-.09814-.042-.09814.02832V209.42a.206.206,0,0,1-.22412.22363h-1.17676a.206.206,0,0,1-.22412-.22363v-9.35742a.206.206,0,0,1,.22412-.22364h1.17676a.20605.20605,0,0,1,.22412.22364v.36425c0,.07032.05615.09766.09814.02832a1.97,1.97,0,0,1,1.59668-.72851,2.72153,2.72153,0,0,1,2.68946,1.96094A5.68737,5.68737,0,0,1,254.84552,203.4386Zm-1.68066-.02832a3.25947,3.25947,0,0,0-.33643-1.59668,1.26635,1.26635,0,0,0-1.17627-.67188,1.21258,1.21258,0,0,0-1.09277.65821,3.31254,3.31254,0,0,0-.32227,1.625,3.25065,3.25065,0,0,0,.3501,1.667,1.1809,1.1809,0,0,0,1.05078.61622,1.28242,1.28242,0,0,0,1.12061-.58887A3.11319,3.11319,0,0,0,253.16486,203.41028Z" fill="#0067b9"/><path d="M262.61554,203.4386a5.42522,5.42522,0,0,1-.23779,1.709,2.6883,2.6883,0,0,1-2.70362,1.96094,2.04658,2.04658,0,0,1-1.59668-.68653c-.042-.05566-.09814-.042-.09814.02832V209.42a.20595.20595,0,0,1-.22412.22363h-1.17676a.20594.20594,0,0,1-.22412-.22363v-9.35742a.206.206,0,0,1,.22412-.22364h1.17676a.206.206,0,0,1,.22412.22364v.36425c0,.07032.05615.09766.09814.02832a1.97,1.97,0,0,1,1.59668-.72851,2.72156,2.72156,0,0,1,2.68946,1.96094A5.68707,5.68707,0,0,1,262.61554,203.4386Zm-1.68066-.02832a3.25947,3.25947,0,0,0-.33643-1.59668,1.26635,1.26635,0,0,0-1.17627-.67188,1.21258,1.21258,0,0,0-1.09277.65821,3.31254,3.31254,0,0,0-.32227,1.625,3.25055,3.25055,0,0,0,.3501,1.667,1.18088,1.18088,0,0,0,1.05078.61622,1.28242,1.28242,0,0,0,1.12061-.58887A3.113,3.113,0,0,0,260.93488,203.41028Z" fill="#0067b9"/><path d="M264.06818,206.77258v-9.35742a.20594.20594,0,0,1,.22412-.22363h1.17676a.206.206,0,0,1,.22409.18617.20831.20831,0,0,1,0,.03746v9.35742a.206.206,0,0,1-.22412.22364H264.2923a.206.206,0,0,1-.22412-.22364Z" fill="#0067b9"/><path d="M267.3299,197.92a.99.99,0,0,1,.96911-1.01045q.04083-.00085.08167.00166a1.01584,1.01584,0,0,1,.04181,2.03125q-.02092.00043-.04181,0a.99369.99369,0,0,1-1.04959-.9344Q267.32857,197.96408,267.3299,197.92Zm.23828,8.85254v-6.71a.20594.20594,0,0,1,.22412-.22363h1.17676a.206.206,0,0,1,.22409.18617.20831.20831,0,0,1,0,.03746v6.71a.206.206,0,0,1-.18665.22368.20842.20842,0,0,1-.03747,0H267.7923a.20593.20593,0,0,1-.22412-.22359Z" fill="#0067b9"/><path d="M271.054,205.0636a5.0967,5.0967,0,0,1-.22413-1.68067,5.03641,5.03641,0,0,1,.22413-1.65332,2.93851,2.93851,0,0,1,2.95556-2.00293,3.00191,3.00191,0,0,1,2.98291,1.919,1.81641,1.81641,0,0,1,.085.39258c.02735.15332-.042.22363-.18261.25195l-1.16211.18164a.19687.19687,0,0,1-.25293-.168l-.042-.18164a1.39249,1.39249,0,0,0-1.42823-.99511,1.36488,1.36488,0,0,0-1.40088,1.02246,4.48371,4.48371,0,0,0-.14013,1.24707,5.04137,5.04137,0,0,0,.12646,1.24707,1.48706,1.48706,0,0,0,2.8291.06933.24793.24793,0,0,0,.01368-.06933c.01464-.07032.126-.22461.2666-.19629l1.16211.18164a.19757.19757,0,0,1,.18261.25195,2.33513,2.33513,0,0,1-.05664.28028,3.207,3.207,0,0,1-5.93847-.09766Z" fill="#0067b9"/><path d="M284.16046,202.10754v4.665a.20584.20584,0,0,1-.22363.22363h-1.17676a.20584.20584,0,0,1-.22363-.22363V206.422c0-.07032-.042-.084-.09863-.042a2.80069,2.80069,0,0,1-2.01661.72852,2.07813,2.07813,0,0,1-2.36718-2.11524c0-1.44238,1.0498-2.31152,2.91308-2.31152h1.48535a.0741.0741,0,0,0,.084-.084v-.32227c0-.71387-.4209-1.14844-1.30274-1.14844-.67285,0-1.10742.252-1.24707.65821-.042.14062-.1123.19629-.25195.18261l-1.26074-.15429c-.14063-.01367-.22461-.084-.21-.18164.168-1.10742,1.3164-1.90528,2.92773-1.90528C282.99835,199.72668,284.16046,200.73547,284.16046,202.10754Zm-1.624,2.42383v-.64453a.0745.0745,0,0,0-.084-.084h-1.16308c-.98047,0-1.61133.37793-1.61133,1.07813,0,.61621.51855.93847,1.19141.93847.88183,0,1.667-.51756,1.667-1.28807Z" fill="#0067b9"/><path d="M289.22784,201.1554h-1.35937a.0745.0745,0,0,0-.084.084v3.3056c0,.72851.3086,1.02246.9668,1.02246h.36426a.20609.20609,0,0,1,.22363.22461v.93848a.21678.21678,0,0,1-.22363.23828c-.22461,0-.44824.01367-.67285.01367-1.34473,0-2.19922-.33594-2.21289-1.82129v-3.92188a.08087.08087,0,0,0-.07761-.084h-.73492a.2061.2061,0,0,1-.22364-.2246v-.86817a.20585.20585,0,0,1,.22364-.22363h.72851a.0745.0745,0,0,0,.084-.084v-1.56934a.20614.20614,0,0,1,.22461-.22363h1.10644a.20584.20584,0,0,1,.22363.22363V199.755a.08086.08086,0,0,0,.07764.084h1.36575a.20585.20585,0,0,1,.22364.22364v.86816a.20615.20615,0,0,1-.22364.2246Z" fill="#0067b9"/><path d="M290.765,197.92a.99.99,0,0,1,.96912-1.01045q.04083-.00085.08167.00166a1.01585,1.01585,0,0,1,.04275,2.03125q-.02137.00045-.04275,0a.9937.9937,0,0,1-1.0496-.9344Q290.7637,197.96408,290.765,197.92Zm.23829,8.85254v-6.71a.20614.20614,0,0,1,.22461-.22363h1.17675a.20585.20585,0,0,1,.22364.22363v6.71a.20585.20585,0,0,1-.22364.22363h-1.17675a.20619.20619,0,0,1-.22468-.22359Z" fill="#0067b9"/><path d="M294.50323,204.99329a5.15836,5.15836,0,0,1-.23828-1.59668,5.46913,5.46913,0,0,1,.22461-1.59668,2.993,2.993,0,0,1,3.03907-2.07326,2.94891,2.94891,0,0,1,2.94238,2.05859,4.78128,4.78128,0,0,1,.252,1.59766,5.29634,5.29634,0,0,1-.23828,1.59668,3.16848,3.16848,0,0,1-5.98144.01369ZM298.93,204.587a3.824,3.824,0,0,0,.15332-1.17676,4.51623,4.51623,0,0,0-.13965-1.17676,1.45459,1.45459,0,0,0-1.457-1.10645,1.43908,1.43908,0,0,0-1.44238,1.10645,4.51153,4.51153,0,0,0-.14062,1.17676,4.66578,4.66578,0,0,0,.14062,1.17676,1.4718,1.4718,0,0,0,1.4707,1.12109A1.44375,1.44375,0,0,0,298.93,204.587Z" fill="#0067b9"/><path d="M308.19855,202.23352v4.53906a.2062.2062,0,0,1-.22461.22364h-1.17676a.20585.20585,0,0,1-.22363-.22364v-4.20215a1.34764,1.34764,0,1,0-2.68946-.01463v4.2168a.20614.20614,0,0,1-.22461.22363H302.4837a.20623.20623,0,0,1-.22461-.22363v-6.71a.20614.20614,0,0,1,.22461-.22363h1.17578a.20617.20617,0,0,1,.22461.22363v.37793c0,.07031.042.09863.084.042a2.04868,2.04868,0,0,1,1.72266-.75586,2.33891,2.33891,0,0,1,2.50778,2.50685Z" fill="#0067b9"/><path d="M312.82941,206.77258v-9.35742a.20584.20584,0,0,1,.22363-.22363h3.3623c2.01661,0,3.334,1.12012,3.334,2.87109v4.0625c0,1.751-1.31738,2.8711-3.334,2.8711H313.053a.20587.20587,0,0,1-.2236-.22364Zm1.709-1.17674h1.94727a1.58992,1.58992,0,0,0,1.63867-1.72266v-3.54394a1.58324,1.58324,0,0,0-1.65332-1.73731h-1.93262a.0741.0741,0,0,0-.084.084v6.83594a.07412.07412,0,0,0,.084.084Z" fill="#0067b9"/><path d="M326.06183,204.965a.19656.19656,0,0,1,.30762-.06934l.67285.53223a.20983.20983,0,0,1,.06888.28859l-.01322.019a3.08806,3.08806,0,0,1-2.71777,1.37305,2.90333,2.90333,0,0,1-2.94141-1.98926,5.14215,5.14215,0,0,1-.28027-1.73632,5.08769,5.08769,0,0,1,.1543-1.48536,2.90026,2.90026,0,0,1,2.95605-2.17089c1.87695,0,2.78711,1.09277,3.06738,2.87109a9.5236,9.5236,0,0,1,.09766,1.14941.20586.20586,0,0,1-.22363.22364h-4.34278a.07449.07449,0,0,0-.084.06355.07373.07373,0,0,0,0,.02045,1.87758,1.87758,0,0,0,.084.61621,1.58763,1.58763,0,0,0,1.667,1.06445A1.86248,1.86248,0,0,0,326.06183,204.965Zm-3.15235-2.85744a2.20167,2.20167,0,0,0-.11132.58887c-.01465.05566.01367.084.06933.084h2.81543a.07479.07479,0,0,0,.085-.084,3.14891,3.14891,0,0,0-.085-.50489,1.3806,1.3806,0,0,0-1.42871-1.06445,1.29687,1.29687,0,0,0-1.34473.98045Z" fill="#0067b9"/><path d="M335.2464,203.4386a5.42453,5.42453,0,0,1-.23828,1.709,2.68775,2.68775,0,0,1-2.70313,1.96094,2.04588,2.04588,0,0,1-1.59668-.68653c-.042-.05566-.09863-.042-.09863.02832V209.42a.20584.20584,0,0,1-.22363.22363h-1.17676a.20617.20617,0,0,1-.22461-.22363v-9.35742a.20619.20619,0,0,1,.22461-.22364h1.17676a.20585.20585,0,0,1,.22363.22364v.36425c0,.07032.05664.09766.09863.02832a1.97,1.97,0,0,1,1.59668-.72851,2.72156,2.72156,0,0,1,2.68946,1.96094A5.688,5.688,0,0,1,335.2464,203.4386Zm-1.68067-.02832a3.25351,3.25351,0,0,0-.33691-1.59668,1.26507,1.26507,0,0,0-1.17578-.67188,1.21258,1.21258,0,0,0-1.09277.65821,3.30681,3.30681,0,0,0-.32227,1.625,3.25588,3.25588,0,0,0,.34961,1.667,1.18143,1.18143,0,0,0,1.05078.61622,1.28323,1.28323,0,0,0,1.12109-.58887A3.11711,3.11711,0,0,0,333.56573,203.41028Z" fill="#0067b9"/><path d="M341.41925,204.965a.19738.19738,0,0,1,.30859-.06934l.67188.53223a.20926.20926,0,0,1,.07056.2874l-.01392.02021a3.08922,3.08922,0,0,1-2.71777,1.37305,2.90251,2.90251,0,0,1-2.94141-1.98926,6.18824,6.18824,0,0,1-.126-3.22168,2.89839,2.89839,0,0,1,2.95508-2.17089c1.87695,0,2.78809,1.09277,3.06836,2.87109a9.5236,9.5236,0,0,1,.09766,1.14941.2062.2062,0,0,1-.22461.22364h-4.3418a.07409.07409,0,0,0-.084.084,1.85229,1.85229,0,0,0,.084.61621,1.58687,1.58687,0,0,0,1.667,1.06445A1.8591,1.8591,0,0,0,341.41925,204.965Zm-3.15137-2.85744a2.19873,2.19873,0,0,0-.1123.58887c-.01367.05566.01367.084.07031.084h2.81543a.0745.0745,0,0,0,.084-.084,3.163,3.163,0,0,0-.084-.50489,1.38133,1.38133,0,0,0-1.42871-1.06445,1.29542,1.29542,0,0,0-1.34473.98045Z" fill="#0067b9"/><path d="M350.21222,202.23352v4.53906a.2062.2062,0,0,1-.22461.22364h-1.17676a.20585.20585,0,0,1-.22363-.22364v-4.20215a1.34764,1.34764,0,1,0-2.68945-.01463v4.2168a.20615.20615,0,0,1-.22461.22363h-1.17578a.20617.20617,0,0,1-.22461-.22363v-6.71a.20614.20614,0,0,1,.22461-.22363h1.17578a.20622.20622,0,0,1,.22461.22363v.37793c0,.07031.042.09863.084.042a2.0487,2.0487,0,0,1,1.72266-.75586,2.33891,2.33891,0,0,1,2.50778,2.50685Z" fill="#0067b9"/><path d="M356.45538,197.19153h1.17578a.20617.20617,0,0,1,.22461.22363v9.35742a.20619.20619,0,0,1-.22461.22364h-1.17578a.20623.20623,0,0,1-.22461-.22364v-.36424c0-.07031-.05566-.09863-.09765-.02834a1.97552,1.97552,0,0,1-1.59668.72852,2.72073,2.72073,0,0,1-2.68946-1.96094,5.65742,5.65742,0,0,1-.25292-1.751,5.42067,5.42067,0,0,1,.23828-1.709,2.687,2.687,0,0,1,2.7041-1.96094,2.04874,2.04874,0,0,1,1.59668.68652c.042.05567.09765.042.09765-.02832v-2.96972a.20611.20611,0,0,1,.22461-.22359Zm-.25293,6.21875a3.24581,3.24581,0,0,0-.34961-1.667,1.18139,1.18139,0,0,0-1.05078-.61621,1.27937,1.27937,0,0,0-1.12011.58887,3.10847,3.10847,0,0,0-.40625,1.709,3.25425,3.25425,0,0,0,.33593,1.59668,1.26933,1.26933,0,0,0,1.17676.67187,1.21541,1.21541,0,0,0,1.09277-.6582A3.31843,3.31843,0,0,0,356.20245,203.41028Z" fill="#0067b9"/><path d="M364.33722,204.965a.19656.19656,0,0,1,.30762-.06934l.67285.53223a.20982.20982,0,0,1,.06888.28859l-.01322.019a3.088,3.088,0,0,1-2.71777,1.37305,2.90333,2.90333,0,0,1-2.94141-1.98926,5.14215,5.14215,0,0,1-.28027-1.73632,5.08769,5.08769,0,0,1,.1543-1.48536,2.90026,2.90026,0,0,1,2.95605-2.17089c1.877,0,2.78711,1.09277,3.06738,2.87109a9.5236,9.5236,0,0,1,.09766,1.14941.20585.20585,0,0,1-.22363.22364h-4.34278a.07449.07449,0,0,0-.084.06355.07373.07373,0,0,0,0,.02045,1.87758,1.87758,0,0,0,.084.61621,1.58764,1.58764,0,0,0,1.667,1.06445A1.86242,1.86242,0,0,0,364.33722,204.965Zm-3.15234-2.85744a2.20129,2.20129,0,0,0-.11133.58887c-.01465.05566.01367.084.06933.084h2.81543a.07479.07479,0,0,0,.085-.084,3.14447,3.14447,0,0,0-.085-.50489,1.3806,1.3806,0,0,0-1.42871-1.06445,1.29685,1.29685,0,0,0-1.34472.98045Z" fill="#0067b9"/><path d="M373.12921,202.23352v4.53906a.20585.20585,0,0,1-.22363.22364h-1.17676a.20619.20619,0,0,1-.22461-.22364v-4.20215a1.34764,1.34764,0,1,0-2.68945-.01463v4.2168a.20586.20586,0,0,1-.22363.22363h-1.17676a.20586.20586,0,0,1-.22364-.22363v-6.71a.20585.20585,0,0,1,.22364-.22363h1.17676a.20584.20584,0,0,1,.22363.22363v.37793c0,.07031.042.09863.084.042a2.05061,2.05061,0,0,1,1.72364-.75586,2.33821,2.33821,0,0,1,2.5068,2.50685Z" fill="#0067b9"/><path d="M378.37823,201.1554h-1.35937a.07448.07448,0,0,0-.084.084v3.3056c0,.72851.3086,1.02246.9668,1.02246h.36426a.20609.20609,0,0,1,.22363.22461v.93848a.21678.21678,0,0,1-.22363.23828c-.22461,0-.44824.01367-.67285.01367-1.34473,0-2.19922-.33594-2.21289-1.82129v-3.92188a.08087.08087,0,0,0-.07761-.084h-.73492a.20609.20609,0,0,1-.22364-.2246v-.86817a.20585.20585,0,0,1,.22364-.22363h.72851a.0745.0745,0,0,0,.084-.084v-1.56934a.20614.20614,0,0,1,.22461-.22363h1.10644a.20584.20584,0,0,1,.22363.22363V199.755a.08087.08087,0,0,0,.07761.084h1.36578a.20585.20585,0,0,1,.22364.22364v.86816a.20615.20615,0,0,1-.22364.2246Z" fill="#0067b9"/><rect x="223.71671" y="202.17345" width="4.20001" height="1.04999" fill="#0067b9"/><rect x="216.71671" y="202.17345" width="4.20001" height="1.04999" fill="#0067b9"/><rect x="230.71671" y="202.17345" width="4.20001" height="1.04999" fill="#0067b9"/><rect x="202.71671" y="202.17345" width="4.20001" height="1.04999" fill="#0067b9"/><rect x="209.71671" y="202.17345" width="4.20001" height="1.04999" fill="#0067b9"/></svg>