<svg id="ac92f5de-f706-46b3-8fbc-dc474a7ddbba" data-name="bd9360ab-0c1d-40ca-9f86-714fdf347eed" xmlns="http://www.w3.org/2000/svg" width="498.7986" height="200.82284" viewBox="0 0 498.7986 200.82284"><line x1="42.98454" y1="61.39102" x2="42.98454" y2="30.20613" fill="none" stroke="#0067b9" stroke-miterlimit="14.3" stroke-width="1.05"/><path d="M42.98462,30.20613a5.98847,5.98847,0,1,0-5.88486-6.09032q-.00089.05174-.00088.1035A5.96493,5.96493,0,0,0,42.98462,30.20613Z" transform="translate(-0.00008)" fill="#f1f9fe" stroke="#0067b9" stroke-width="1.4" fill-rule="evenodd"/><rect x="230.26822" y="8.92477" width="48.75896" height="30.45935" fill="#e0f0fc" stroke="#0067b9" stroke-width="1.4"/><path d="M278.32944,154.651l-.4336-1.44336a.09035.09035,0,0,0-.09863-.06933h-3.66992a.08878.08878,0,0,0-.09766.06933l-.43457,1.44336a.24089.24089,0,0,1-.25195.18164H272.0687c-.1543,0-.22461-.09765-.18262-.25195l2.998-9.3711a.2409.2409,0,0,1,.252-.18164h1.63867a.24089.24089,0,0,1,.252.18164l3.01172,9.3711c.042.1543-.02734.25195-.18164.25195h-1.27441A.24265.24265,0,0,1,278.32944,154.651Zm-3.7959-2.78808H277.391c.05664,0,.085-.02735.07031-.09766l-1.44238-4.7627c-.02832-.07031-.084-.07031-.1123,0l-1.44239,4.7627C274.44955,151.83557,274.47787,151.86292,274.53354,151.86292Z" transform="translate(-0.00008)"/><path d="M281.51889,154.609v-9.35742a.20614.20614,0,0,1,.22461-.22363h3.36133c2.01758,0,3.334,1.12012,3.334,2.87109v4.0625c0,1.751-1.3164,2.8711-3.334,2.8711H281.7435a.20618.20618,0,0,1-.22461-.22364Zm1.709-1.17675h1.94726a1.58938,1.58938,0,0,0,1.63867-1.72266v-3.54395a1.58266,1.58266,0,0,0-1.65332-1.7373h-1.93261a.0745.0745,0,0,0-.084.06358.07351.07351,0,0,0,0,.02042v6.83594a.07449.07449,0,0,0,.084.084Z" transform="translate(-0.00008)"/><path d="M289.9183,151.653v-3.46a3.20783,3.20783,0,0,1,3.51661-3.27734c2.10058,0,3.501,1.26074,3.501,3.15137,0,.09863-.06933.15429-.21.168l-1.19043.07031c-.13965.01367-.22363-.02832-.22363-.07031v-.084a1.88494,1.88494,0,0,0-3.76856,0v3.57226a1.88537,1.88537,0,0,0,3.76856,0c0-.09765.084-.168.22363-.1543l1.17676.05665c.13965.01367.22363.02734.22363.06933v.07031c0,1.919-1.40039,3.17969-3.501,3.17969a3.21828,3.21828,0,0,1-3.51658-3.292Z" transform="translate(-0.00008)"/><path d="M301.46811,154.609v-9.35742a.20614.20614,0,0,1,.22461-.22363H305.054c2.01757,0,3.334,1.12012,3.334,2.87109v4.0625c0,1.751-1.31641,2.8711-3.334,2.8711h-3.36133a.2062.2062,0,0,1-.22455-.22364Zm1.709-1.17675h1.94727a1.58938,1.58938,0,0,0,1.63867-1.72266v-3.54395a1.58266,1.58266,0,0,0-1.65332-1.7373h-1.93262a.07449.07449,0,0,0-.084.06358.07351.07351,0,0,0,0,.02042v6.83594a.07449.07449,0,0,0,.084.084Z" transform="translate(-0.00008)"/><path d="M314.04233,147.74475a.23021.23021,0,0,1,.126.28027l-.22363,1.16309c-.02832.15332-.1123.18164-.2666.13965a1.65451,1.65451,0,0,0-.71387-.042,1.3761,1.3761,0,0,0-1.37353,1.37865l.00055.03634V154.609a.20585.20585,0,0,1-.22364.22363h-1.17675a.20617.20617,0,0,1-.22461-.22363v-6.71a.20614.20614,0,0,1,.22461-.22363h1.17675a.20585.20585,0,0,1,.22364.22363v.5459c0,.07031.042.09863.084.02832a1.86513,1.86513,0,0,1,1.625-.88184A1.68,1.68,0,0,1,314.04233,147.74475Z" transform="translate(-0.00008)"/><path d="M315.10385,145.75549a.9898.9898,0,0,1,.96973-1.0095c.027-.00055.05408,0,.08105.00169a1.01583,1.01583,0,0,1,.04084,2.03125q-.02043.00042-.04084,0a.99391.99391,0,0,1-1.04962-.93484Q315.10245,145.79984,315.10385,145.75549Zm.23828,8.85352v-6.71a.20614.20614,0,0,1,.22461-.22363h1.17578a.20617.20617,0,0,1,.22461.22363v6.71a.20614.20614,0,0,1-.22461.22363h-1.17578a.20617.20617,0,0,1-.22461-.22365Z" transform="translate(-0.00008)"/><path d="M320.53745,154.651l-2.2129-6.72363c-.05664-.168.02735-.25195.18165-.25195h1.3164a.242.242,0,0,1,.25293.18164l1.33008,4.65039c.02832.07031.084.07031.1123,0l1.33106-4.63672a.23932.23932,0,0,1,.25195-.19531l1.31641.01367c.15429,0,.23828.09765.18262.25195l-2.19922,6.71a.24127.24127,0,0,1-.25293.18164h-1.3584A.24087.24087,0,0,1,320.53745,154.651Z" transform="translate(-0.00008)"/><path d="M330.21225,152.80139a.19747.19747,0,0,1,.30859-.06933l.67286.53222a.20981.20981,0,0,1,.06884.28861l-.01318.019a3.08806,3.08806,0,0,1-2.71777,1.37305,2.90334,2.90334,0,0,1-2.94141-1.98926,5.14216,5.14216,0,0,1-.28027-1.73633,5.08762,5.08762,0,0,1,.15429-1.48535,2.89992,2.89992,0,0,1,2.95508-2.1709c1.87793,0,2.78809,1.09277,3.06836,2.87109a9.52834,9.52834,0,0,1,.09766,1.14844.20612.20612,0,0,1-.22364.22461h-4.34277a.0745.0745,0,0,0-.084.06358.07351.07351,0,0,0,0,.02042,1.87755,1.87755,0,0,0,.084.61621,1.58761,1.58761,0,0,0,1.667,1.06445A1.85911,1.85911,0,0,0,330.21225,152.80139Zm-3.15137-2.85742a2.2375,2.2375,0,0,0-.1123.58887c-.01367.05566.01465.084.07031.084h2.81543a.0741.0741,0,0,0,.084-.084,3.05352,3.05352,0,0,0-.084-.50489,1.38062,1.38062,0,0,0-1.42871-1.06445,1.2954,1.2954,0,0,0-1.34473.9805Z" transform="translate(-0.00008)"/><path d="M200.76938,139.76721H196.077a.0743.0743,0,0,0-.084.084V142.443a.08057.08057,0,0,0,.077.084h3.14468a.206.206,0,0,1,.22412.22364v.95312a.206.206,0,0,1-.22412.22363H196.077a.08087.08087,0,0,0-.084.07762v3.94291a.206.206,0,0,1-.18666.22368.20831.20831,0,0,1-.03746-.00005h-1.17676a.206.206,0,0,1-.22412-.22363v-9.35744a.206.206,0,0,1,.22412-.22363h6.17724a.206.206,0,0,1,.22412.22363v.95215a.20626.20626,0,0,1-.2241.22459Z" transform="translate(-0.00008)"/><path d="M201.96957,139.09436a.98983.98983,0,0,1,.96972-1.00951q.04054-.00082.08107.0017a1.01584,1.01584,0,0,1,.0418,2.03125q-.0209.00044-.0418,0a.99389.99389,0,0,1-1.04961-.93485Q201.96819,139.13871,201.96957,139.09436Zm.23829,8.85352v-6.71a.206.206,0,0,1,.22412-.22363h1.17675a.206.206,0,0,1,.22413.22363v6.71a.206.206,0,0,1-.22413.22363H202.432a.206.206,0,0,1-.22415-.22363Z" transform="translate(-0.00008)"/><path d="M205.67953,147.94788v-9.35744a.206.206,0,0,1,.22413-.22363h1.17675a.206.206,0,0,1,.22412.22363v9.35744a.206.206,0,0,1-.22412.22363h-1.17675a.206.206,0,0,1-.22413-.22363Z" transform="translate(-0.00008)"/><path d="M212.6395,142.33069h-1.35889a.07449.07449,0,0,0-.084.084v3.30566c0,.72852.3081,1.02246.9668,1.02246h.36377a.20627.20627,0,0,1,.22412.22461v.93848a.21712.21712,0,0,1-.22412.2383c-.22413,0-.44825.01367-.67237.01367-1.34472,0-2.19922-.33594-2.2129-1.82129V142.4147a.08087.08087,0,0,0-.07762-.084h-.7349a.20623.20623,0,0,1-.22412-.22461v-.86816a.206.206,0,0,1,.22412-.22363h.72852a.07449.07449,0,0,0,.084-.084V139.361a.206.206,0,0,1,.22413-.22363h1.10645a.206.206,0,0,1,.22412.22363v1.56934a.08087.08087,0,0,0,.07762.084h1.36527a.206.206,0,0,1,.22412.22363v.86816a.20624.20624,0,0,1-.22412.22457Z" transform="translate(-0.00008)"/><path d="M218.89828,146.14026a.197.197,0,0,1,.30811-.06934l.67236.53223a.20951.20951,0,0,1,.06972.288l-.01356.01964a3.08868,3.08868,0,0,1-2.71778,1.373,2.90291,2.90291,0,0,1-2.9414-1.98924,6.18824,6.18824,0,0,1-.126-3.22168,2.89929,2.89929,0,0,1,2.95557-2.1709c1.877,0,2.78759,1.09277,3.06787,2.87109a9.52408,9.52408,0,0,1,.09765,1.14844.20631.20631,0,0,1-.22412.22461h-4.34228a.07449.07449,0,0,0-.084.084,1.8778,1.8778,0,0,0,.084.61621,1.58724,1.58724,0,0,0,1.667,1.06445A1.86078,1.86078,0,0,0,218.89828,146.14026Zm-3.15185-2.85742a2.21871,2.21871,0,0,0-.11182.58886c-.01416.05567.01416.084.06983.084h2.81543a.07466.07466,0,0,0,.08447-.084,3.15518,3.15518,0,0,0-.08447-.50488,1.381,1.381,0,0,0-1.42871-1.06445A1.29613,1.29613,0,0,0,215.74643,143.28284Z" transform="translate(-0.00008)"/><path d="M225.828,141.08362a.2312.2312,0,0,1,.126.28027l-.22412,1.16309c-.02832.15332-.11231.18164-.26611.13965a1.65735,1.65735,0,0,0-.71436-.042,1.37639,1.37639,0,0,0-1.37358,1.37921l.00053.03578v3.9082a.206.206,0,0,1-.22412.22364H221.976a.206.206,0,0,1-.22412-.22364v-6.71a.206.206,0,0,1,.22412-.22363h1.17627a.206.206,0,0,1,.22412.22363v.54588c0,.07031.042.09863.084.02832a1.86511,1.86511,0,0,1,1.625-.88183A1.6818,1.6818,0,0,1,225.828,141.08362Z" transform="translate(-0.00008)"/><path d="M248.57455,28.28333l-1.835-4.00635a.09317.09317,0,0,0-.09766-.05615h-1.63963a.08088.08088,0,0,0-.084.07761v3.92875a.206.206,0,0,1-.22363.22412h-1.17676a.20626.20626,0,0,1-.22461-.22412V18.85608a.20628.20628,0,0,1,.22461-.22412h3.7959a2.7237,2.7237,0,0,1,2.89941,2.85742A2.53121,2.53121,0,0,1,248.3499,24.067a.07074.07074,0,0,0-.042.11181l1.9336,4.00635c.07031.15381,0,.26611-.168.26611h-1.2334A.25552.25552,0,0,1,248.57455,28.28333Zm-3.65625-8.16651V22.8761a.0743.0743,0,0,0,.084.084h2.08789a1.39678,1.39678,0,0,0,1.498-1.44238,1.4146,1.4146,0,0,0-1.498-1.48486H245.0023a.07428.07428,0,0,0-.084.084Z" transform="translate(-0.00008)"/><path d="M258.29135,20.047h-4.707a.0743.0743,0,0,0-.084.084v2.59131a.08087.08087,0,0,0,.07762.084h3.145a.206.206,0,0,1,.22363.22413V23.983a.206.206,0,0,1-.22363.22412h-3.13867a.0806.0806,0,0,0-.084.077v2.68224a.0809.0809,0,0,0,.07764.084h4.71336a.20667.20667,0,0,1,.22461.22412v.95263a.20671.20671,0,0,1-.22461.22411h-6.19141a.20626.20626,0,0,1-.2246-.22411V18.87024a.20627.20627,0,0,1,.2246-.22412h6.19141a.20667.20667,0,0,1,.22461.22412v.95215a.20708.20708,0,0,1-.22458.22461Z" transform="translate(-0.00008)"/><path d="M266.56479,20.047h-4.69238a.07429.07429,0,0,0-.084.084v2.59131a.08087.08087,0,0,0,.07761.084h3.1441a.20668.20668,0,0,1,.22461.22413V23.983a.20671.20671,0,0,1-.22461.22412h-3.13769a.08058.08058,0,0,0-.084.077v3.943a.20628.20628,0,0,1-.22461.22412H260.388a.2062.2062,0,0,1-.22461-.22412V18.87024a.20627.20627,0,0,1,.22461-.22412h6.17676a.20621.20621,0,0,1,.22461.22412v.95215a.20663.20663,0,0,1-.22458.22461Z" transform="translate(-0.00008)"/><rect x="269.87019" y="71.78412" width="63.88412" height="63.88412" fill="#e0f0fc" stroke="#0067b9" stroke-miterlimit="10" stroke-width="1.4"/><polygon points="284.385 80.95 284.385 126.502 324.628 103.623 284.385 80.95 284.385 80.95" fill="#f1f9fe" stroke="#0067b9" stroke-miterlimit="14.3" stroke-width="1.05"/><polygon points="360.98 103.726 385.709 79.155 446.194 79.155 446.194 128.298 385.709 128.298 360.98 103.726" fill="#e0f0fc" stroke="#0067b9" stroke-miterlimit="14.3" stroke-width="1.4" fill-rule="evenodd"/><path d="M330.533,87.96449h0a3.22354,3.22354,0,1,1,3.22354,3.22354h-.00177A3.22294,3.22294,0,0,1,330.533,87.96449Z" transform="translate(-0.00008)" fill="#f1f9fe" stroke="#0067b9" stroke-miterlimit="14.3" stroke-width="1.05"/><path d="M330.533,119.48788h0a3.22354,3.22354,0,1,1,3.22354,3.22353h-.00177A3.22294,3.22294,0,0,1,330.533,119.48788Z" transform="translate(-0.00008)" fill="#f1f9fe" stroke="#0067b9" stroke-miterlimit="14.3" stroke-width="1.05"/><rect x="83.78455" y="71.78412" width="63.88412" height="63.88412" fill="#e0f0fc" stroke="#0067b9" stroke-miterlimit="10" stroke-width="1.4"/><polygon points="98.3 80.95 98.3 126.502 138.542 103.623 98.3 80.95 98.3 80.95" fill="#f1f9fe" stroke="#0067b9" stroke-miterlimit="14.3" stroke-width="1.05"/><line x1="337.54881" y1="87.96449" x2="376.8427" y2="87.96449" fill="none" stroke="#0067b9" stroke-miterlimit="14.3" stroke-width="1.05"/><polyline points="395.153 75.931 395.153 24.154 282.253 24.154" fill="none" stroke="#0067b9" stroke-miterlimit="14.3" stroke-width="1.05"/><line x1="337.54881" y1="119.48788" x2="376.22572" y2="119.48788" fill="none" stroke="#0067b9" stroke-miterlimit="14.3" stroke-width="1.05"/><polygon points="461.095 113.353 461.095 118.578 446.194 103.776 461.095 88.874 461.095 94.389 483.154 94.389 483.154 88.874 498.055 103.776 483.154 118.578 483.154 113.353 461.095 113.353" fill="none" stroke="#0067b9" stroke-miterlimit="14.3" stroke-width="1.05"/><path d="M373.00226,87.96449h0a3.22354,3.22354,0,1,1,3.22357,3.22351H376.224a3.22291,3.22291,0,0,1-3.22174-3.22353Z" transform="translate(-0.00008)" fill="#f1f9fe" stroke="#0067b9" stroke-miterlimit="14.3" stroke-width="1.05"/><path d="M391.931,79.15486h0a3.22354,3.22354,0,1,1,3.22357,3.22352h-.00183A3.22292,3.22292,0,0,1,391.931,79.15486Z" transform="translate(-0.00008)" fill="#f1f9fe" stroke="#0067b9" stroke-miterlimit="14.3" stroke-width="1.05"/><path d="M373.00226,119.48788h0a3.22354,3.22354,0,1,1,3.22354,3.22353h-.0018A3.22292,3.22292,0,0,1,373.00226,119.48788Z" transform="translate(-0.00008)" fill="#f1f9fe" stroke="#0067b9" stroke-miterlimit="14.3" stroke-width="1.05"/><rect x="180.06868" y="79.15486" width="59.35655" height="49.14265" fill="#e0f0fc" stroke="#0067b9" stroke-width="1.4"/><path d="M112.93832,145.96155v.96582a.20631.20631,0,0,1-.22412.22461h-2.50732a.07465.07465,0,0,0-.08448.084v8.082a.20612.20612,0,0,1-.22363.22461H108.722a.20628.20628,0,0,1-.22412-.22461v-8.082a.08088.08088,0,0,0-.07761-.084h-2.41606a.2065.2065,0,0,1-.22412-.22461v-.96582a.20649.20649,0,0,1,.22412-.22461h6.71a.20627.20627,0,0,1,.22411.22461Z" transform="translate(-0.00008)"/><path d="M114.43246,155.318v-9.35644a.20626.20626,0,0,1,.22412-.22461h1.17676a.20626.20626,0,0,1,.22412.22461V155.318a.20625.20625,0,0,1-.22412.22461h-1.17676a.20628.20628,0,0,1-.22412-.22461Z" transform="translate(-0.00008)"/><path d="M123.98373,155.36l-.43409-1.44238a.09033.09033,0,0,0-.09813-.07031h-3.66993a.09035.09035,0,0,0-.09814.07031l-.43408,1.44238a.24224.24224,0,0,1-.25244.18262H117.7225c-.15429,0-.22412-.09864-.18213-.252l2.99756-9.37109a.2417.2417,0,0,1,.252-.18262H122.429a.24168.24168,0,0,1,.252.18262l3.01172,9.37109c.042.15332-.02832.252-.18213.252h-1.27491A.24168.24168,0,0,1,123.98373,155.36Zm-3.7959-2.78711h2.85743c.05615,0,.084-.02832.06981-.09863l-1.44287-4.76172c-.02783-.07031-.084-.07031-.11181,0l-1.44287,4.76172c-.01367.0703.01416.09862.07031.09862Z" transform="translate(-0.00008)"/><polygon points="286.902 45.684 286.902 47.259 285.327 47.259 285.327 48.309 287.952 48.309 287.952 45.684 286.902 45.684 286.902 45.684" fill="#0067b9"/><rect x="234.1949" y="47.25928" width="4.38281" height="1.04999" fill="#0067b9"/><rect x="248.80421" y="47.25928" width="4.38275" height="1.04999" fill="#0067b9"/><rect x="241.49959" y="47.25928" width="4.38275" height="1.04999" fill="#0067b9"/><rect x="226.89027" y="47.25928" width="4.38281" height="1.04999" fill="#0067b9"/><rect x="270.71809" y="47.25928" width="4.38281" height="1.04999" fill="#0067b9"/><rect x="278.02272" y="47.25928" width="4.38281" height="1.04999" fill="#0067b9"/><rect x="263.41347" y="47.25928" width="4.38281" height="1.04999" fill="#0067b9"/><rect x="256.10884" y="47.25928" width="4.38275" height="1.04999" fill="#0067b9"/><polygon points="222.394 45.684 221.344 45.684 221.343 48.309 223.968 48.309 223.968 47.259 222.394 47.259 222.394 45.684" fill="#0067b9"/><rect x="221.3434" y="12.04388" width="1.05005" height="4.0368" fill="#0067b9"/><rect x="221.3434" y="5.31586" width="1.05005" height="4.0368" fill="#0067b9"/><rect x="221.3434" y="18.77191" width="1.05005" height="4.0368" fill="#0067b9"/><rect x="221.3434" y="38.95593" width="1.05005" height="4.03687" fill="#0067b9"/><rect x="221.3434" y="25.49994" width="1.05005" height="4.0368" fill="#0067b9"/><rect x="221.3434" y="32.22791" width="1.05005" height="4.03687" fill="#0067b9"/><polygon points="221.343 2.625 222.394 2.625 222.394 1.05 223.968 1.05 223.968 0 221.343 0 221.343 2.625" fill="#0067b9"/><rect x="263.4131" width="4.38275" height="1.04999" fill="#0067b9"/><rect x="278.02235" width="4.38281" height="1.04999" fill="#0067b9"/><rect x="248.80385" width="4.38275" height="1.04999" fill="#0067b9"/><rect x="226.88991" width="4.38281" height="1.04999" fill="#0067b9"/><rect x="234.19453" width="4.38281" height="1.04999" fill="#0067b9"/><rect x="241.49916" width="4.38281" height="1.04999" fill="#0067b9"/><rect x="256.10847" width="4.38275" height="1.04999" fill="#0067b9"/><rect x="270.71773" width="4.38281" height="1.04999" fill="#0067b9"/><line x1="285.32741" y1="1.04999" x2="285.32741" y2="1.05005" fill="none"/><polygon points="285.327 0 285.327 1.05 286.902 1.05 286.902 2.625 287.952 2.625 287.952 0 285.327 0" fill="#0067b9"/><rect x="286.90199" y="12.04401" width="1.05005" height="4.03687" fill="#0067b9"/><rect x="286.90199" y="38.95612" width="1.05005" height="4.0368" fill="#0067b9"/><rect x="286.90199" y="25.50006" width="1.05005" height="4.0368" fill="#0067b9"/><rect x="286.90199" y="32.22809" width="1.05005" height="4.0368" fill="#0067b9"/><rect x="286.90199" y="18.77203" width="1.05005" height="4.0368" fill="#0067b9"/><rect x="286.90199" y="5.31604" width="1.05005" height="4.0368" fill="#0067b9"/><polyline points="189.836 93.388 217.261 93.375 229.658 114.078" fill="none" stroke="#0067b9" stroke-linecap="square" stroke-miterlimit="10" stroke-width="1.05"/><path d="M266.64883,103.72619h0a3.22355,3.22355,0,1,1,3.22358,3.22352h-.00184A3.22292,3.22292,0,0,1,266.64883,103.72619Z" transform="translate(-0.00008)" fill="#f1f9fe" stroke="#0067b9" stroke-miterlimit="14.3" stroke-width="1.05"/><path d="M236.20177,103.72619h0a3.22354,3.22354,0,1,1,3.22355,3.22352h-.0018A3.22294,3.22294,0,0,1,236.20177,103.72619Z" transform="translate(-0.00008)" fill="#f1f9fe" stroke="#0067b9" stroke-miterlimit="14.3" stroke-width="1.05"/><line x1="266.64876" y1="103.72619" x2="242.64876" y2="103.72619" fill="none" stroke="#0067b9" stroke-miterlimit="14.3" stroke-width="1.05"/><path d="M144.44731,103.72619h0a3.22354,3.22354,0,1,1,3.22356,3.22352h-.0018A3.22294,3.22294,0,0,1,144.44731,103.72619Z" transform="translate(-0.00008)" fill="#f1f9fe" stroke="#0067b9" stroke-miterlimit="14.3" stroke-width="1.05"/><path d="M176.847,103.72619h0a3.22354,3.22354,0,1,1,3.22356,3.22352h-.0018A3.22294,3.22294,0,0,1,176.847,103.72619Z" transform="translate(-0.00008)" fill="#f1f9fe" stroke="#0067b9" stroke-miterlimit="14.3" stroke-width="1.05"/><line x1="176.84692" y1="103.72619" x2="150.8943" y2="103.72619" fill="none" stroke="#0067b9" stroke-miterlimit="14.3" stroke-width="1.05"/><path d="M275.80551,24.15445h0a3.22354,3.22354,0,1,1,3.22357,3.22352h-.0018A3.22293,3.22293,0,0,1,275.80551,24.15445Z" transform="translate(-0.00008)" fill="#f1f9fe" stroke="#0067b9" stroke-miterlimit="14.3" stroke-width="1.05"/><path d="M402.97983,107.84241l-.4336-1.44336a.09036.09036,0,0,0-.09863-.06935h-3.66992a.08879.08879,0,0,0-.09766.06935l-.43457,1.44336a.24089.24089,0,0,1-.252.18164H396.719c-.15429,0-.2246-.09766-.18261-.252l2.998-9.37109a.2409.2409,0,0,1,.252-.18165h1.63867a.24266.24266,0,0,1,.25293.18165l3.01074,9.37109c.042.1543-.02734.252-.18164.252H403.2327A.242.242,0,0,1,402.97983,107.84241Zm-3.7959-2.7881h2.85742c.05664,0,.084-.02734.07031-.09764l-1.44238-4.76271c-.02832-.07031-.084-.07031-.1123,0l-1.44239,4.76271C399.1,105.027,399.12827,105.05432,399.18393,105.05431Z" transform="translate(-0.00008)"/><path d="M406.16928,107.80042V98.443a.20609.20609,0,0,1,.22461-.22363h3.36133c2.01758,0,3.334,1.12012,3.334,2.87108v4.0625c0,1.751-1.3164,2.87111-3.334,2.87111h-3.36133a.20618.20618,0,0,1-.22461-.22364Zm1.709-1.17676h1.94726a1.58937,1.58937,0,0,0,1.63867-1.72265v-3.54394a1.58272,1.58272,0,0,0-1.65332-1.73731H407.8783a.07449.07449,0,0,0-.084.06355.07373.07373,0,0,0,0,.02045v6.83593a.07449.07449,0,0,0,.084.084Z" transform="translate(-0.00008)"/><path d="M414.5687,104.84436v-3.46a3.20774,3.20774,0,0,1,3.5166-3.27733c2.10058,0,3.501,1.26074,3.501,3.15135,0,.09865-.06933.1543-.21.168l-1.19043.07032c-.13965.01368-.22363-.02832-.22363-.07032v-.084a1.88494,1.88494,0,0,0-3.76855,0v3.57226a1.88537,1.88537,0,0,0,3.76855,0c0-.09765.084-.168.22363-.15429l1.17676.05664c.13965.01368.22363.02735.22363.06933v.07032c0,1.91894-1.40039,3.17968-3.501,3.17968a3.2182,3.2182,0,0,1-3.51657-3.292Z" transform="translate(-0.00008)"/><path d="M80.56318,103.72619h0a3.22354,3.22354,0,1,1,3.22356,3.22352h-.00181A3.22293,3.22293,0,0,1,80.56318,103.72619Z" transform="translate(-0.00008)" fill="#f1f9fe" stroke="#0067b9" stroke-miterlimit="14.3" stroke-width="1.05"/><polyline points="80.563 103.726 42.985 103.726 42.985 79.155" fill="none" stroke="#0067b9" stroke-miterlimit="14.3" stroke-width="1.05"/><line x1="32.43933" y1="61.04533" x2="53.70392" y2="61.04533" fill="none" stroke="#0067b9" stroke-linecap="square" stroke-miterlimit="14.3" stroke-width="1.4"/><polygon points="33.242 78.784 42.097 61.391 42.985 61.391 52.173 78.784 33.242 78.784 33.242 78.784" fill="#0067b9" stroke="#0067b9" stroke-width="1.4" fill-rule="evenodd"/><polygon points="26.898 74.088 17.354 69.215 23.197 63.372 28.069 72.915 26.898 74.088" fill="#0067b9"/><polyline points="13.369 49.526 22.259 58.417 13.793 60.108 21.697 68.013" fill="none" stroke="#0067b9" stroke-width="1.0115"/><polygon points="14.131 73.393 4.588 68.52 10.431 62.675 15.304 72.22 14.131 73.393" fill="#0067b9"/><polyline points="0.604 48.831 9.493 57.719 1.026 59.413 8.93 67.315" fill="none" stroke="#0067b9" stroke-width="1.0115"/><path d="M203.86411,197.9928l-.43409-1.44336a.08955.08955,0,0,0-.09814-.06934H199.662a.08955.08955,0,0,0-.09814.06934l-.43408,1.44336a.24177.24177,0,0,1-.25245.18164h-1.27441c-.1543,0-.22412-.09766-.18213-.25195l2.99756-9.3711a.24088.24088,0,0,1,.252-.18164h1.63916a.2409.2409,0,0,1,.252.18164l3.01172,9.3711c.042.15429-.02832.25195-.18213.25195h-1.2749A.24089.24089,0,0,1,203.86411,197.9928Zm-3.7959-2.78809h2.85743c.05616,0,.084-.02734.06983-.09765l-1.44238-4.7627c-.02832-.07031-.08448-.07031-.11231,0l-1.44287,4.7627C199.98373,195.17737,200.012,195.20471,200.06821,195.20471Z" transform="translate(-0.00008)" fill="#0067b9"/><path d="M213.22983,194.61682a5.42547,5.42547,0,0,1-.2378,1.709,2.68827,2.68827,0,0,1-2.70361,1.96094,2.04655,2.04655,0,0,1-1.59668-.68653c-.042-.05566-.09814-.042-.09814.02833v2.96972a.206.206,0,0,1-.22412.22363h-1.17675a.206.206,0,0,1-.22413-.22363v-9.35744a.206.206,0,0,1,.22413-.22363h1.17675a.206.206,0,0,1,.22412.22363v.36426c0,.07032.05617.09766.09814.02832a1.97,1.97,0,0,1,1.59668-.72851,2.7215,2.7215,0,0,1,2.68945,1.96093A5.68752,5.68752,0,0,1,213.22983,194.61682Zm-1.68067-.02832a3.25935,3.25935,0,0,0-.33642-1.59668,1.26632,1.26632,0,0,0-1.17627-.67187,1.21254,1.21254,0,0,0-1.09277.6582,3.31254,3.31254,0,0,0-.32227,1.625,3.25071,3.25071,0,0,0,.35008,1.667,1.1809,1.1809,0,0,0,1.0508.61621,1.28239,1.28239,0,0,0,1.1206-.58887A3.113,3.113,0,0,0,211.54916,194.5885Z" transform="translate(-0.00008)" fill="#0067b9"/><path d="M220.99985,194.61682a5.42547,5.42547,0,0,1-.2378,1.709,2.68827,2.68827,0,0,1-2.70361,1.96094,2.04654,2.04654,0,0,1-1.59668-.68653c-.042-.05566-.09814-.042-.09814.02833v2.96972a.206.206,0,0,1-.22412.22363h-1.17675a.206.206,0,0,1-.22413-.22363v-9.35744a.206.206,0,0,1,.22413-.22363h1.17675a.206.206,0,0,1,.22412.22363v.36426c0,.07032.05616.09766.09814.02832a1.97,1.97,0,0,1,1.59668-.72851,2.7215,2.7215,0,0,1,2.68945,1.96093A5.68752,5.68752,0,0,1,220.99985,194.61682Zm-1.68067-.02832a3.25946,3.25946,0,0,0-.33642-1.59668,1.26632,1.26632,0,0,0-1.17627-.67187,1.21256,1.21256,0,0,0-1.09278.6582,3.31264,3.31264,0,0,0-.32226,1.625,3.25061,3.25061,0,0,0,.35008,1.667,1.1809,1.1809,0,0,0,1.0508.61621,1.28239,1.28239,0,0,0,1.1206-.58887A3.1131,3.1131,0,0,0,219.31918,194.5885Z" transform="translate(-0.00008)" fill="#0067b9"/><path d="M222.45248,197.95081v-9.35744a.206.206,0,0,1,.22413-.22363h1.17675a.206.206,0,0,1,.22412.22363v9.35744a.206.206,0,0,1-.22412.22363h-1.17675a.206.206,0,0,1-.22413-.22363Z" transform="translate(-0.00008)" fill="#0067b9"/><path d="M225.7142,189.09827a.99.99,0,0,1,.96912-1.01046q.04086-.00084.08166.00167a1.01584,1.01584,0,1,1,.04181,2.03125q-.0209.00043-.04181,0a.99365.99365,0,0,1-1.04957-.9344Q225.71285,189.14235,225.7142,189.09827Zm.23828,8.85254v-6.71a.206.206,0,0,1,.22413-.22363h1.17675a.206.206,0,0,1,.22412.22363v6.71a.206.206,0,0,1-.22412.22363h-1.17675a.206.206,0,0,1-.22413-.22363Z" transform="translate(-0.00008)" fill="#0067b9"/><path d="M229.43832,196.24182a5.09719,5.09719,0,0,1-.22412-1.68066,5.03663,5.03663,0,0,1,.22412-1.65332,2.9385,2.9385,0,0,1,2.95557-2.00293,3.00215,3.00215,0,0,1,2.9834,1.91894,1.81823,1.81823,0,0,1,.085.39258c.02734.15332-.042.22363-.18262.25195l-1.1626.18164a.19656.19656,0,0,1-.25244-.168l-.042-.18165a1.39309,1.39309,0,0,0-1.42871-.99511,1.36488,1.36488,0,0,0-1.40088,1.02246,4.48329,4.48329,0,0,0-.14013,1.24707,5.03937,5.03937,0,0,0,.12646,1.24707,1.48739,1.48739,0,0,0,2.82959.06933.24785.24785,0,0,0,.01367-.06933c.01416-.07031.126-.22461.26612-.19629l1.16259.18164a.19753.19753,0,0,1,.18262.25195,2.33709,2.33709,0,0,1-.05664.28028,3.20741,3.20741,0,0,1-5.939-.09766Z" transform="translate(-0.00008)" fill="#0067b9"/><path d="M242.54526,193.28577v4.665a.20586.20586,0,0,1-.22364.22363h-1.17675a.20586.20586,0,0,1-.22364-.22363v-.35059c0-.07031-.042-.084-.09863-.042a2.80058,2.80058,0,0,1-2.0166.72851,2.07823,2.07823,0,0,1-2.36719-2.11523c0-1.44239,1.04981-2.31153,2.91309-2.31153h1.48535a.07411.07411,0,0,0,.084-.084v-.32226c0-.71387-.4209-1.14844-1.30273-1.14844-.67286,0-1.10743.252-1.24708.6582-.042.14063-.1123.19629-.252.18262l-1.26075-.1543c-.14062-.01367-.22461-.084-.21-.18164.168-1.10742,1.3164-1.90527,2.92773-1.90527C241.38315,190.90491,242.54526,191.9137,242.54526,193.28577Zm-1.624,2.42381v-.64453a.07448.07448,0,0,0-.084-.084h-1.16309c-.98047,0-1.61133.37793-1.61133,1.07812,0,.61623.51856.93848,1.19141.93848.88182,0,1.667-.51755,1.667-1.28806Z" transform="translate(-0.00008)" fill="#0067b9"/><path d="M247.61264,192.33362h-1.35937a.07449.07449,0,0,0-.084.084v3.30566c0,.72852.30859,1.02246.96679,1.02246h.36425a.2062.2062,0,0,1,.22363.22461v.93848a.21673.21673,0,0,1-.194.23733.21443.21443,0,0,1-.02966.00095c-.22461,0-.44825.01369-.67286.01369-1.34472,0-2.19922-.33594-2.21289-1.82129V192.4176a.08087.08087,0,0,0-.07762-.084h-.73489a.20619.20619,0,0,1-.22364-.22461v-.86816a.20585.20585,0,0,1,.22364-.22363h.72851a.07449.07449,0,0,0,.084-.084v-1.56934a.20615.20615,0,0,1,.22461-.22363h1.10645a.20584.20584,0,0,1,.22363.22363v1.56934a.08087.08087,0,0,0,.07762.084h1.36576a.20584.20584,0,0,1,.22363.22363v.86816a.20616.20616,0,0,1-.22362.22463Z" transform="translate(-0.00008)" fill="#0067b9"/><path d="M249.14975,189.09827a.99.99,0,0,1,.96912-1.01046q.04085-.00084.08166.00167a1.01585,1.01585,0,0,1,.04276,2.03125q-.02139.00045-.04276,0a.99364.99364,0,0,1-1.04957-.9344Q249.1484,189.14235,249.14975,189.09827Zm.23828,8.85254v-6.71a.20615.20615,0,0,1,.22461-.22363h1.17676a.20586.20586,0,0,1,.22363.22363v6.71a.20586.20586,0,0,1-.22363.22363h-1.17676a.20615.20615,0,0,1-.22464-.22363Z" transform="translate(-0.00008)" fill="#0067b9"/><path d="M252.888,196.17151a5.15831,5.15831,0,0,1-.23828-1.59668,5.46845,5.46845,0,0,1,.22461-1.59668,2.993,2.993,0,0,1,3.03906-2.07324,2.94889,2.94889,0,0,1,2.94238,2.05859,4.78125,4.78125,0,0,1,.252,1.59766,5.2967,5.2967,0,0,1-.23828,1.59668,3.16848,3.16848,0,0,1-5.98145.01367Zm4.42676-.40625a3.8249,3.8249,0,0,0,.15332-1.17676,4.51671,4.51671,0,0,0-.13965-1.17676,1.4546,1.4546,0,0,0-1.457-1.10644,1.43908,1.43908,0,0,0-1.44238,1.10644,4.51239,4.51239,0,0,0-.14063,1.17676,4.66664,4.66664,0,0,0,.14063,1.17676,1.47176,1.47176,0,0,0,1.4707,1.12109,1.44377,1.44377,0,0,0,1.415-1.12109Z" transform="translate(-0.00008)" fill="#0067b9"/><path d="M266.58334,193.41174v4.53907a.20619.20619,0,0,1-.22461.22363H265.182a.20586.20586,0,0,1-.22364-.22363v-4.20215a1.34764,1.34764,0,1,0-2.68945-.01465v4.2168a.20619.20619,0,0,1-.22461.22363H260.8685a.20617.20617,0,0,1-.22461-.22363v-6.71a.20614.20614,0,0,1,.22461-.22363h1.17578a.20617.20617,0,0,1,.22461.22363v.37793c0,.07031.042.09863.084.042a2.04859,2.04859,0,0,1,1.72265-.75586,2.33891,2.33891,0,0,1,2.50778,2.50686Z" transform="translate(-0.00008)" fill="#0067b9"/><path d="M271.2142,197.95081v-9.35744a.20585.20585,0,0,1,.22364-.22363h3.3623c2.0166,0,3.334,1.12011,3.334,2.87109v4.0625c0,1.751-1.31739,2.87109-3.334,2.87109h-3.3623a.20584.20584,0,0,1-.22364-.22361Zm1.709-1.17676h1.94726a1.59,1.59,0,0,0,1.63868-1.72266v-3.54394a1.58325,1.58325,0,0,0-1.65333-1.73731h-1.93261a.0741.0741,0,0,0-.084.084v6.83592a.07411.07411,0,0,0,.084.084Z" transform="translate(-0.00008)" fill="#0067b9"/><path d="M284.44662,196.14319a.19656.19656,0,0,1,.30762-.06934l.67285.53223a.20979.20979,0,0,1,.06885.2886l-.01318.019a3.08808,3.08808,0,0,1-2.71778,1.373,2.90329,2.90329,0,0,1-2.9414-1.98925,5.14216,5.14216,0,0,1-.28028-1.73632,5.08759,5.08759,0,0,1,.1543-1.48535,2.90025,2.90025,0,0,1,2.95606-2.1709c1.877,0,2.78711,1.09277,3.06738,2.87109a9.53173,9.53173,0,0,1,.09766,1.14941.20585.20585,0,0,1-.22364.22364h-4.34277a.07448.07448,0,0,0-.084.084,1.87755,1.87755,0,0,0,.084.61621,1.58762,1.58762,0,0,0,1.667,1.06445A1.86245,1.86245,0,0,0,284.44662,196.14319Zm-3.15234-2.85742a2.20043,2.20043,0,0,0-.11133.58886c-.01465.05567.01367.084.06934.084h2.81543a.07479.07479,0,0,0,.085-.084,3.15009,3.15009,0,0,0-.085-.50488,1.38062,1.38062,0,0,0-1.42871-1.06445A1.29688,1.29688,0,0,0,281.29428,193.28577Z" transform="translate(-0.00008)" fill="#0067b9"/><path d="M293.6312,194.61682a5.4245,5.4245,0,0,1-.23829,1.709,2.68771,2.68771,0,0,1-2.70312,1.96094,2.04588,2.04588,0,0,1-1.59668-.68653c-.042-.05566-.09863-.042-.09863.02833v2.96972a.20585.20585,0,0,1-.22364.22363h-1.17675a.20617.20617,0,0,1-.22461-.22363v-9.35744a.20619.20619,0,0,1,.22461-.22363h1.17675a.20585.20585,0,0,1,.22364.22363v.36426c0,.07032.05664.09766.09863.02832a1.97,1.97,0,0,1,1.59668-.72851,2.72153,2.72153,0,0,1,2.68945,1.96093A5.68752,5.68752,0,0,1,293.6312,194.61682Zm-1.68067-.02832a3.25364,3.25364,0,0,0-.33691-1.59668,1.26506,1.26506,0,0,0-1.17578-.67187,1.21256,1.21256,0,0,0-1.09278.6582,3.3068,3.3068,0,0,0-.32226,1.625,3.25591,3.25591,0,0,0,.34961,1.667,1.18143,1.18143,0,0,0,1.05078.61621,1.28322,1.28322,0,0,0,1.12109-.58887A3.11713,3.11713,0,0,0,291.95053,194.5885Z" transform="translate(-0.00008)" fill="#0067b9"/><path d="M299.804,196.14319a.19739.19739,0,0,1,.30859-.06934l.67187.53223a.20925.20925,0,0,1,.07056.2874l-.01392.02022a3.08921,3.08921,0,0,1-2.71777,1.373,2.90251,2.90251,0,0,1-2.9414-1.98925,6.1882,6.1882,0,0,1-.126-3.22167,2.89837,2.89837,0,0,1,2.95508-2.1709c1.877,0,2.78808,1.09277,3.06836,2.87109a9.52562,9.52562,0,0,1,.09765,1.14941.20619.20619,0,0,1-.22461.22364H296.6106a.07409.07409,0,0,0-.084.084,1.8523,1.8523,0,0,0,.084.61621,1.58688,1.58688,0,0,0,1.667,1.06445A1.85915,1.85915,0,0,0,299.804,196.14319Zm-3.15137-2.85742a2.1986,2.1986,0,0,0-.11231.58886c-.01367.05567.01368.084.07032.084h2.81543a.07448.07448,0,0,0,.084-.06358.07351.07351,0,0,0,0-.02042,3.16266,3.16266,0,0,0-.084-.50488,1.38134,1.38134,0,0,0-1.42872-1.06445,1.2954,1.2954,0,0,0-1.34466.98047Z" transform="translate(-0.00008)" fill="#0067b9"/><path d="M308.597,193.41174v4.53907a.20618.20618,0,0,1-.2246.22363h-1.17676a.20586.20586,0,0,1-.22364-.22363v-4.20215a1.34764,1.34764,0,1,0-2.68945-.01465v4.2168a.20619.20619,0,0,1-.22461.22363h-1.17578a.20617.20617,0,0,1-.22461-.22363v-6.71a.20614.20614,0,0,1,.22461-.22363H304.058a.20617.20617,0,0,1,.22461.22363v.37793c0,.07031.042.09863.084.042a2.04859,2.04859,0,0,1,1.72265-.75586,2.33894,2.33894,0,0,1,2.50769,2.50686Z" transform="translate(-0.00008)" fill="#0067b9"/><path d="M314.84018,188.36975H316.016a.20617.20617,0,0,1,.22461.22363v9.35744a.20614.20614,0,0,1-.22461.22363h-1.17578a.20617.20617,0,0,1-.22461-.22363v-.36426c0-.07031-.05566-.09863-.09766-.02832a1.97551,1.97551,0,0,1-1.59668.72852,2.72071,2.72071,0,0,1-2.68945-1.96094,5.6575,5.6575,0,0,1-.25293-1.751,5.421,5.421,0,0,1,.23828-1.709,2.687,2.687,0,0,1,2.7041-1.96093,2.04874,2.04874,0,0,1,1.59668.68652c.042.05566.09766.042.09766-.02832v-2.96973a.20613.20613,0,0,1,.22458-.2236Zm-.25293,6.21875a3.24585,3.24585,0,0,0-.34961-1.667,1.18144,1.18144,0,0,0-1.05078-.61621,1.2794,1.2794,0,0,0-1.12012.58887,3.10882,3.10882,0,0,0-.40625,1.709,3.25426,3.25426,0,0,0,.33594,1.59668,1.26929,1.26929,0,0,0,1.17676.67187,1.21541,1.21541,0,0,0,1.09277-.6582A3.31888,3.31888,0,0,0,314.58725,194.5885Z" transform="translate(-0.00008)" fill="#0067b9"/><path d="M322.722,196.14319a.19656.19656,0,0,1,.30762-.06934l.67285.53223a.20979.20979,0,0,1,.06885.2886l-.01318.019a3.08808,3.08808,0,0,1-2.71778,1.373,2.90329,2.90329,0,0,1-2.9414-1.98925,5.14216,5.14216,0,0,1-.28028-1.73632,5.08759,5.08759,0,0,1,.1543-1.48535,2.90025,2.90025,0,0,1,2.95606-2.1709c1.877,0,2.78711,1.09277,3.06738,2.87109a9.53173,9.53173,0,0,1,.09766,1.14941.20585.20585,0,0,1-.22364.22364h-4.34277a.07448.07448,0,0,0-.084.084,1.87755,1.87755,0,0,0,.084.61621,1.58762,1.58762,0,0,0,1.667,1.06445A1.86245,1.86245,0,0,0,322.722,196.14319Zm-3.15234-2.85742a2.20161,2.20161,0,0,0-.11133.58886c-.01465.05567.01367.084.06934.084h2.81543a.07479.07479,0,0,0,.085-.084,3.15009,3.15009,0,0,0-.085-.50488,1.38062,1.38062,0,0,0-1.42871-1.06445,1.2969,1.2969,0,0,0-1.3447.98047Z" transform="translate(-0.00008)" fill="#0067b9"/><path d="M331.514,193.41174v4.53907a.20586.20586,0,0,1-.22364.22363h-1.17675a.20617.20617,0,0,1-.22461-.22363v-4.20215a1.34765,1.34765,0,1,0-2.68946-.01465v4.2168a.20584.20584,0,0,1-.22363.22363h-1.17676a.20584.20584,0,0,1-.22363-.22363v-6.71a.20584.20584,0,0,1,.22363-.22363h1.17676a.20584.20584,0,0,1,.22363.22363v.37793c0,.07031.042.09863.084.042a2.05048,2.05048,0,0,1,1.72363-.75586,2.33822,2.33822,0,0,1,2.50681,2.50686Z" transform="translate(-0.00008)" fill="#0067b9"/><path d="M336.763,192.33362h-1.35937a.0745.0745,0,0,0-.084.06355.07373.07373,0,0,0,0,.02045v3.30566c0,.72852.30859,1.02246.9668,1.02246h.36426a.2061.2061,0,0,1,.22363.22461v.93848a.21674.21674,0,0,1-.194.23733.21453.21453,0,0,1-.02966.00095c-.22461,0-.44825.01369-.67286.01369-1.34472,0-2.19922-.33594-2.21289-1.82129V192.4176a.08087.08087,0,0,0-.0776-.084h-.73493a.20609.20609,0,0,1-.22363-.22461v-.86816a.20584.20584,0,0,1,.22363-.22363h.72852a.0745.0745,0,0,0,.084-.06356.07365.07365,0,0,0,0-.02044v-1.56934a.20614.20614,0,0,1,.22461-.22363H335.096a.20584.20584,0,0,1,.22363.22363v1.56934a.08087.08087,0,0,0,.07761.084H336.763a.20584.20584,0,0,1,.22363.22363v.86816a.20611.20611,0,0,1-.22363.22463Z" transform="translate(-0.00008)" fill="#0067b9"/><rect x="182.10106" y="193.35158" width="4.20001" height="1.04999" fill="#0067b9"/><rect x="175.10106" y="193.35158" width="4.20001" height="1.04999" fill="#0067b9"/><rect x="189.10106" y="193.35158" width="4.20001" height="1.04999" fill="#0067b9"/><rect x="161.10106" y="193.35158" width="4.20001" height="1.04999" fill="#0067b9"/><rect x="168.10106" y="193.35158" width="4.20001" height="1.04999" fill="#0067b9"/></svg>