<svg width="32" height="32" viewBox="0 0 32 32" fill="none" xmlns="http://www.w3.org/2000/svg">
<rect width="32" height="32" fill="#212836"/>
<mask id="path-1-inside-1_4530_319495" fill="white">
<path fill-rule="evenodd" clip-rule="evenodd" d="M16.7886 9.00789C18.0508 10.2701 18.5206 12.0246 18.198 13.6533L23.7666 19.2218C24.1571 19.6124 24.1571 20.2455 23.7666 20.636L21.136 23.2667C20.7454 23.6572 20.1123 23.6572 19.7217 23.2667L14.1531 17.6981C12.5245 18.0206 10.77 17.5508 9.50789 16.2886C7.73212 14.5129 7.52478 11.7626 8.88588 9.75924L11.3499 12.2232C11.7404 12.6138 12.3768 12.6105 12.7673 12.22C13.1578 11.8295 13.1611 11.1931 12.7706 10.8025L10.3159 8.34791C12.3142 7.02882 15.0296 7.24881 16.7886 9.00789Z"/>
</mask>
<path d="M18.198 13.6533L16.2361 13.2647L16.0286 14.3123L16.7838 15.0675L18.198 13.6533ZM16.7886 9.00789L18.2028 7.59368V7.59368L16.7886 9.00789ZM23.7666 19.2218L25.1808 17.8076L23.7666 19.2218ZM23.7666 20.636L22.3524 19.2218L22.3524 19.2218L23.7666 20.636ZM19.7217 23.2667L21.136 21.8525L21.136 21.8525L19.7217 23.2667ZM14.1531 17.6981L15.5673 16.2838L14.8122 15.5287L13.7646 15.7362L14.1531 17.6981ZM9.50789 16.2886L8.09368 17.7028L8.09368 17.7028L9.50789 16.2886ZM8.88588 9.75924L10.3001 8.34503L8.59038 6.63532L7.23158 8.63528L8.88588 9.75924ZM11.3499 12.2232L12.7641 10.809L12.7641 10.809L11.3499 12.2232ZM12.7673 12.22L14.1815 13.6342L14.1815 13.6342L12.7673 12.22ZM12.7706 10.8025L11.3563 12.2167L11.3563 12.2167L12.7706 10.8025ZM10.3159 8.34791L9.21411 6.67878L7.16864 8.02904L8.90172 9.76212L10.3159 8.34791ZM20.1599 14.0418C20.6066 11.7864 19.9567 9.34754 18.2028 7.59368L15.3744 10.4221C16.1449 11.1926 16.4346 12.2628 16.2361 13.2647L20.1599 14.0418ZM25.1808 17.8076L19.6122 12.2391L16.7838 15.0675L22.3524 20.636L25.1808 17.8076ZM25.1808 22.0503C26.3524 20.8787 26.3524 18.9792 25.1808 17.8076L22.3524 20.636C21.9619 20.2455 21.9619 19.6124 22.3524 19.2218L25.1808 22.0503ZM22.5502 24.6809L25.1808 22.0503L22.3524 19.2218L19.7217 21.8525L22.5502 24.6809ZM18.3075 24.6809C19.4791 25.8525 21.3786 25.8525 22.5502 24.6809L19.7217 21.8525C20.1123 21.462 20.7454 21.462 21.136 21.8525L18.3075 24.6809ZM12.7389 19.1123L18.3075 24.6809L21.136 21.8525L15.5673 16.2838L12.7389 19.1123ZM8.09368 17.7028C9.84749 19.4567 12.2863 20.1066 14.5416 19.66L13.7646 15.7362C12.7627 15.9346 11.6926 15.6449 10.9221 14.8744L8.09368 17.7028ZM7.23158 8.63528C5.34109 11.4178 5.62648 15.2357 8.09368 17.7028L10.9221 14.8744C9.83775 13.7901 9.70847 12.1074 10.5402 10.8832L7.23158 8.63528ZM12.7641 10.809L10.3001 8.34503L7.47167 11.1735L9.93565 13.6374L12.7641 10.809ZM11.3531 10.8058C11.7352 10.4237 12.3652 10.4101 12.7641 10.809L9.93565 13.6374C11.1156 14.8174 13.0184 14.7973 14.1815 13.6342L11.3531 10.8058ZM11.3563 12.2167C10.9574 11.8178 10.971 11.1879 11.3531 10.8058L14.1815 13.6342C15.3447 12.4711 15.3647 10.5683 14.1848 9.38832L11.3563 12.2167ZM8.90172 9.76212L11.3563 12.2167L14.1848 9.38832L11.7302 6.9337L8.90172 9.76212ZM18.2028 7.59368C15.7587 5.14957 11.9894 4.84679 9.21411 6.67878L11.4178 10.017C12.6391 9.21084 14.3004 9.34805 15.3744 10.4221L18.2028 7.59368Z" fill="white" mask="url(#path-1-inside-1_4530_319495)"/>
</svg>
